SplineFontDB: 3.0
FontName: TaameyFrankCLM-Bold
FullName: Taamey Frank CLM Bold
FamilyName: Taamey Frank CLM
Weight: Bold
Copyright: Copyright (c) 2009-2010 by Yoram Gnat (yoram.gnat@gmail.com)\nDistributed under the terms of GNU General Public License version 2(http://www.gnu.org/licenses/gpl.html). \n\nHebrew OpenType Layout logic copyright (c) 2003 & 2007, Ralph Hancock & John Hudson. This layout logic for Biblical Hebrew is open source software under the MIT License; for details  contact copyright holders at <license@tiro.com>.\n\nLatin glyphs and part of punctuation, taken from Century Schoolbook L font, copyright 1999 by (URW)++ Design & Development \n\nHebrew glyphs, vowels, cantillation marks and implementation of above layout logic copyright (c)2009-2010 by Yoram Gnat (yoramg@shenkar.ac.il). Distributed under the terms of GNU General Public Licence version 2 (http://www.gnu.org/licenses/gpl.html)\n\nAs a special exception, if you create a document which uses this font, and embed this font or unaltered portions of this font into the document, this font does not by itself cause the resulting document to be covered by the GNU General Public License. This exception does not however invalidate any other reasons why the document might be covered by the GNU General Public License. If you modify this font, you may extend this exception to your version of the font, but you are not obligated to do so. If you do not wish to do so, delete this exception statement from your version.
Version: 0.110
ItalicAngle: 0
UnderlinePosition: -170
UnderlineWidth: 70
Ascent: 1638
Descent: 410
LayerCount: 2
Layer: 0 0 "Back"  1
Layer: 1 0 "Fore"  0
XUID: [1021 594 1227166039 14964671]
FSType: 0
OS2Version: 0
OS2_WeightWidthSlopeOnly: 0
OS2_UseTypoMetrics: 1
CreationTime: 1244295734
ModificationTime: 1284286802
PfmFamily: 17
TTFWeight: 700
TTFWidth: 5
LineGap: 184
VLineGap: 0
Panose: 2 0 0 0 0 0 0 0 0 0
OS2TypoAscent: 1638
OS2TypoAOffset: 0
OS2TypoDescent: -410
OS2TypoDOffset: 0

StartChar: .notdef
Encoding: 65536 -1 0
Width: 942
GlyphClass: 2
Flags: W
HStem: -28 154<138 772> 238 180<359.594 508.934> 1132 88<307.202 535.776> 1286 154<138 772>
VStem: -0 138<126 1286> 178 114<946.919 1110.2> 348 174<250.516 406.264> 398 80<474 635.985> 576 140<834.297 1092.81> 772 138<126 1286>
LayerCount: 2
Fore
SplineSet
398 501 m 2xfdc0
 398 767 576 791 576 985 c 0
 576 1069 515 1132 438 1132 c 0
 336 1132 292 1086 292 1055 c 0
 292 1048 295 1042 299 1037 c 0
 311 1023 344 1006 344 965 c 0
 344 917 303 887 263 887 c 0
 221 887 178 920 178 999 c 0
 178 1144 289 1220 443 1220 c 0
 607 1220 716 1124 716 970 c 0
 716 863 662 805 608 751 c 1
 582 719 478 627 478 501 c 2
 478 474 l 1
 398 474 l 1
 398 501 l 2xfdc0
348 328 m 1xfec0
 354 405 403 418 433 418 c 0
 486 418 522 376 522 328 c 0
 522 285 488 238 433 238 c 1
 361 243 348 302 348 328 c 1xfec0
772 126 m 1
 772 1286 l 1
 138 1286 l 1
 138 126 l 1
 772 126 l 1
910 1440 m 1
 910 -28 l 1
 -0 -28 l 1
 -0 1440 l 1
 910 1440 l 1
EndSplineSet
Validated: 1
EndChar

StartChar: sheva
Encoding: 1456 1456 37
Width: 0
GlyphClass: 4
Flags: W
HStem: -587 219<-79.0824 79.0824> -333 219<-79.0824 79.0824>
VStem: -98 196<-570.275 -384.771 -316.275 -130.771>
AnchorPoint: "A-8" -148.75 0 mark 0
AnchorPoint: "A-70" 0 0 mark 0
AnchorPoint: "A-48" -221 0 basemark 0
AnchorPoint: "A-4" 0 0 mark 0
LayerCount: 2
Fore
SplineSet
0 -587 m 0
 -60 -587 -98 -536 -98 -478 c 0
 -98 -415 -56 -368 0 -368 c 0
 60 -368 98 -419 98 -478 c 0
 98 -540 56 -587 0 -587 c 0
0 -333 m 0
 -60 -333 -98 -282 -98 -224 c 0
 -98 -161 -56 -114 0 -114 c 0
 60 -114 98 -165 98 -224 c 0
 98 -286 56 -333 0 -333 c 0
EndSplineSet
Validated: 1
LCarets2: 1 0 
EndChar

StartChar: hatafsegol
Encoding: 1457 1457 38
Width: 0
GlyphClass: 4
Flags: W
HStem: -587 219<-194.443 -37.5566 156.013 312.443> -333 219<-312.443 -155.851 -76.7544 79.7214 156.013 312.443>
VStem: -331 194<-316.275 -130.771> -213 194<-570.275 -384.771> -95 194<-315.282 -132.193> 137 194<-570.275 -384.771 -316.275 -130.771>
AnchorPoint: "A-73" -0.424805 0 mark 0
AnchorPoint: "A-48" -450.925 0 basemark 0
AnchorPoint: "A-6" -0.424805 0 mark 0
LayerCount: 2
Fore
SplineSet
234 -587 m 0xc4
 175 -587 137 -536 137 -478 c 0
 137 -415 179 -368 234 -368 c 0
 292 -368 331 -418 331 -478 c 0
 331 -540 290 -587 234 -587 c 0xc4
234 -333 m 0
 175 -333 137 -282 137 -224 c 0
 137 -161 179 -114 234 -114 c 0
 292 -114 331 -164 331 -224 c 0
 331 -286 290 -333 234 -333 c 0
0 -114 m 0
 58 -114 99 -164 99 -224 c 0
 99 -286 56 -333 0 -333 c 0
 -59 -333 -95 -282 -95 -224 c 0xcc
 -95 -161 -55 -114 0 -114 c 0
-116 -368 m 0
 -57 -368 -19 -419 -19 -478 c 0
 -19 -540 -60 -587 -116 -587 c 0
 -174 -587 -213 -537 -213 -478 c 0xd4
 -213 -415 -172 -368 -116 -368 c 0
-234 -114 m 0
 -175 -114 -137 -165 -137 -224 c 0
 -137 -286 -179 -333 -234 -333 c 0
 -292 -333 -331 -283 -331 -224 c 0xe4
 -331 -161 -290 -114 -234 -114 c 0
EndSplineSet
Validated: 1
LCarets2: 1 0 
EndChar

StartChar: hatafpatah
Encoding: 1458 1458 39
Width: 0
GlyphClass: 4
Flags: W
HStem: -587 219<118.557 275.443> -333 219<118.557 275.443> -288 149<-294 58>
VStem: 100 194<-570.275 -384.771 -316.275 -130.771>
AnchorPoint: "A-73" -3.40039 0 mark 0
AnchorPoint: "A-48" -419.9 0 basemark 0
AnchorPoint: "A-6" -3.40039 0 mark 0
LayerCount: 2
Fore
SplineSet
58 -288 m 1xb0
 -294 -288 l 1
 -294 -139 l 1
 58 -139 l 1
 58 -288 l 1xb0
197 -587 m 0
 139 -587 100 -537 100 -478 c 0
 100 -415 141 -368 197 -368 c 0
 257 -368 294 -419 294 -478 c 0
 294 -540 253 -587 197 -587 c 0
197 -333 m 0xd0
 139 -333 100 -283 100 -224 c 0
 100 -161 141 -114 197 -114 c 0
 257 -114 294 -165 294 -224 c 0
 294 -286 253 -333 197 -333 c 0xd0
EndSplineSet
Validated: 1
LCarets2: 1 1 
EndChar

StartChar: hatafqamats
Encoding: 1459 1459 40
Width: 0
GlyphClass: 4
Flags: W
HStem: -587 219<118.49 275.082> -333 219<118.49 275.082> -288 149<-294 -168 -71 57>
VStem: -168 97<-453.438 -288> 100 194<-569.53 -384.771 -315.53 -130.771>
AnchorPoint: "A-73" 2.125 0 mark 0
AnchorPoint: "A-48" -431.375 0 basemark 0
AnchorPoint: "A-6" 2.125 0 mark 0
LayerCount: 2
Fore
SplineSet
-71 -288 m 1xb8
 -71 -296 l 2
 -71 -326 -66 -352 -59 -373 c 2
 -19 -472 l 1
 -37 -519 -49 -546 -84 -581 c 1
 -95 -584 -106 -587 -120 -587 c 0
 -135 -587 -144 -584 -154 -581 c 1
 -190 -551 -201 -524 -218 -471 c 1
 -178 -372 l 2
 -172 -358 -168 -306 -168 -298 c 2
 -168 -288 l 1
 -294 -288 l 1
 -294 -139 l 1
 57 -139 l 1
 57 -288 l 1
 -71 -288 l 1xb8
196 -587 m 0
 139 -587 100 -537 100 -478 c 0
 100 -415 141 -368 196 -368 c 0
 256 -368 294 -419 294 -478 c 0
 294 -540 252 -587 196 -587 c 0
196 -333 m 0xd8
 139 -333 100 -283 100 -224 c 0
 100 -161 141 -114 196 -114 c 0
 256 -114 294 -165 294 -224 c 0
 294 -286 252 -333 196 -333 c 0xd8
EndSplineSet
Validated: 1
LCarets2: 1 0 
EndChar

StartChar: hiriq
Encoding: 1460 1460 41
Width: 0
GlyphClass: 4
Flags: W
HStem: -333 219<-79.0824 79.0824>
VStem: -98 196<-316.275 -130.771>
AnchorPoint: "A-59" 230.35 0 mark 0
AnchorPoint: "A-8" -150 0 mark 0
AnchorPoint: "A-70" 0 0 mark 0
AnchorPoint: "A-48" -204 0 basemark 0
AnchorPoint: "A-4" 0 0 mark 0
LayerCount: 2
Fore
SplineSet
0 -333 m 0
 -60 -333 -98 -282 -98 -224 c 0
 -98 -161 -56 -114 0 -114 c 0
 60 -114 98 -165 98 -224 c 0
 98 -286 56 -333 0 -333 c 0
EndSplineSet
Validated: 1
LCarets2: 1 -40 
EndChar

StartChar: tsere
Encoding: 1461 1461 42
Width: 0
GlyphClass: 4
Flags: W
HStem: -333 219<-187.082 -28.9176 28.9176 187.082>
VStem: -206 196<-316.275 -130.771> 10 196<-316.275 -130.771>
AnchorPoint: "A-8" -150 -1 mark 0
AnchorPoint: "A-71" 0 0 mark 0
AnchorPoint: "A-48" -331.5 0 basemark 0
AnchorPoint: "A-5" 0 0 mark 0
LayerCount: 2
Fore
SplineSet
206 -224 m 0
 206 -286 164 -333 108 -333 c 0
 48 -333 10 -282 10 -224 c 0
 10 -161 52 -114 108 -114 c 0
 168 -114 206 -165 206 -224 c 0
-10 -224 m 0
 -10 -286 -52 -333 -108 -333 c 0
 -168 -333 -206 -282 -206 -224 c 0
 -206 -161 -164 -114 -108 -114 c 0
 -48 -114 -10 -165 -10 -224 c 0
EndSplineSet
Validated: 1
LCarets2: 1 0 
EndChar

StartChar: segol
Encoding: 1462 1462 43
Width: 0
GlyphClass: 4
Flags: W
HStem: -577 219<-79.0824 79.0824> -333 219<-197.082 -38.9176 38.9176 197.082>
VStem: -216 196<-316.275 -130.771> -98 196<-560.275 -374.771> 20 196<-316.275 -130.771>
AnchorPoint: "A-8" -150 0 mark 0
AnchorPoint: "A-71" 0 0 mark 0
AnchorPoint: "A-48" -331.5 0 basemark 0
AnchorPoint: "A-5" 0 0 mark 0
LayerCount: 2
Fore
SplineSet
118 -114 m 0xc8
 178 -114 216 -165 216 -224 c 0
 216 -286 174 -333 118 -333 c 0
 58 -333 20 -282 20 -224 c 0
 20 -161 62 -114 118 -114 c 0xc8
0 -358 m 0
 60 -358 98 -409 98 -468 c 0
 98 -530 56 -577 0 -577 c 0
 -60 -577 -98 -526 -98 -468 c 0xd0
 -98 -405 -56 -358 0 -358 c 0
-118 -114 m 0
 -58 -114 -20 -165 -20 -224 c 0
 -20 -286 -62 -333 -118 -333 c 0
 -178 -333 -216 -282 -216 -224 c 0xe0
 -216 -161 -174 -114 -118 -114 c 0
EndSplineSet
Validated: 1
LCarets2: 1 0 
EndChar

StartChar: patah
Encoding: 1463 1463 44
Width: 0
GlyphClass: 4
Flags: W
HStem: -288 149<-177 177>
VStem: -177 354<-288 -139>
AnchorPoint: "A-8" -150 0 mark 0
AnchorPoint: "A-71" 0.424805 0 mark 0
AnchorPoint: "A-48" -288.575 0 basemark 0
AnchorPoint: "A-5" 0.424805 0 mark 0
LayerCount: 2
Fore
SplineSet
177 -288 m 1
 -177 -288 l 1
 -177 -139 l 1
 177 -139 l 1
 177 -288 l 1
EndSplineSet
Validated: 1
LCarets2: 1 0 
EndChar

StartChar: qamats
Encoding: 1464 1464 45
Width: 0
GlyphClass: 4
Flags: W
HStem: -288 149<-176 -49 48 176>
VStem: -49 97<-456.219 -288>
AnchorPoint: "A-8" -150 0 mark 0
AnchorPoint: "A-71" -0.424805 0 mark 0
AnchorPoint: "A-48" -289.425 0 basemark 0
AnchorPoint: "A-5" -0.424805 0 mark 0
LayerCount: 2
Fore
SplineSet
48 -288 m 1
 48 -298 l 2
 48 -327 52 -352 59 -373 c 1
 99 -472 l 1
 79 -525 68 -547 33 -583 c 1
 23 -585 13 -587 0 -587 c 0
 -15 -587 -24 -584 -35 -581 c 1
 -72 -551 -82 -524 -99 -472 c 1
 -60 -371 l 1
 -53 -359 -49 -313 -49 -298 c 2
 -49 -288 l 1
 -176 -288 l 1
 -176 -139 l 1
 176 -139 l 1
 176 -288 l 1
 48 -288 l 1
EndSplineSet
Validated: 1
LCarets2: 1 0 
EndChar

StartChar: holam
Encoding: 1465 1465 46
Width: 0
GlyphClass: 4
Flags: W
HStem: 1167 219<-331.082 -172.918>
VStem: -350 196<1183.72 1369.23>
AnchorPoint: "A-21" -464.5 0 mark 0
AnchorPoint: "A-20" -464.5 0 mark 0
LayerCount: 2
Fore
SplineSet
-252 1167 m 0
 -312 1167 -350 1218 -350 1276 c 0
 -350 1339 -308 1386 -252 1386 c 0
 -192 1386 -154 1335 -154 1276 c 0
 -154 1214 -196 1167 -252 1167 c 0
EndSplineSet
Validated: 1
LCarets2: 1 -18 
EndChar

StartChar: holamhaser
Encoding: 1466 1466 47
Width: 0
GlyphClass: 4
Flags: W
HStem: 1167 219<-331.082 -172.918>
VStem: -350 196<1183.72 1369.23>
LayerCount: 2
Fore
SplineSet
-252 1167 m 0
 -312 1167 -350 1218 -350 1276 c 0
 -350 1339 -308 1386 -252 1386 c 0
 -192 1386 -154 1335 -154 1276 c 0
 -154 1214 -196 1167 -252 1167 c 0
EndSplineSet
Validated: 1
EndChar

StartChar: qubuts
Encoding: 1467 1467 48
Width: 0
GlyphClass: 4
Flags: W
HStem: -604 214<90.9016 246.51> -464 214<-72.0984 83.5105> -321 214<-236.098 -80.4895>
VStem: -254 192<-304.616 -122.978> -90 192<-447.616 -265.978> 73 192<-587.616 -405.978>
AnchorPoint: "A-8" -150 0 mark 0
AnchorPoint: "A-72" -3.5 0 mark 0
AnchorPoint: "A-48" -360.5 0 basemark 0
AnchorPoint: "A-5" -3.5 0 mark 0
LayerCount: 2
Fore
SplineSet
6 -464 m 0x48
 -51 -464 -90 -414 -90 -357 c 0
 -90 -300 -51 -250 6 -250 c 0
 63 -250 102 -300 102 -357 c 0
 102 -418 61 -464 6 -464 c 0x48
-158 -321 m 0x30
 -215 -321 -254 -271 -254 -214 c 0
 -254 -157 -215 -107 -158 -107 c 0
 -101 -107 -62 -157 -62 -214 c 0
 -62 -275 -103 -321 -158 -321 c 0x30
169 -604 m 0x84
 112 -604 73 -554 73 -497 c 0
 73 -440 112 -390 169 -390 c 0
 226 -390 265 -440 265 -497 c 0
 265 -558 224 -604 169 -604 c 0x84
EndSplineSet
Validated: 1
LCarets2: 1 0 
EndChar

StartChar: dagesh
Encoding: 1468 1468 49
Width: 0
GlyphClass: 4
Flags: W
HStem: 410 218<-80.2583 80.2583>
VStem: -98 196<426.477 611.523>
AnchorPoint: "A-3" 0 0 mark 0
LayerCount: 2
Fore
SplineSet
0 410 m 0
 -60 410 -98 460 -98 519 c 0
 -98 582 -56 628 0 628 c 0
 60 628 98 578 98 519 c 0
 98 456 56 410 0 410 c 0
EndSplineSet
Validated: 1
LCarets2: 1 0 
EndChar

StartChar: meteg
Encoding: 1469 1469 50
Width: 0
GlyphClass: 4
Flags: W
HStem: -572 445<-64 64>
VStem: -64 128<-572 -127>
AnchorPoint: "A-63" -153.425 0 mark 0
AnchorPoint: "A-62" -272.425 0 mark 0
AnchorPoint: "A-61" -382.925 0 mark 0
AnchorPoint: "A-8" -170.425 0 mark 0
AnchorPoint: "A-73" -425.425 0 basemark 0
AnchorPoint: "A-72" -340.425 0 basemark 0
AnchorPoint: "A-71" -306.425 0 basemark 0
AnchorPoint: "A-70" -238.425 0 basemark 0
AnchorPoint: "A-48" 50 0 mark 0
AnchorPoint: "A-4" -0.424805 0 mark 0
LayerCount: 2
Fore
SplineSet
64 -572 m 1
 -64 -572 l 1
 -64 -127 l 1
 64 -127 l 1
 64 -572 l 1
EndSplineSet
Validated: 1
Ligature2: "remove taam before meteg table" lowerdot meteg
Ligature2: "remove taam before meteg table" dehi meteg
Ligature2: "remove taam before meteg table" yerahbenyomo meteg
Ligature2: "remove taam before meteg table" darga meteg
Ligature2: "remove taam before meteg table" merkhakefula meteg
Ligature2: "remove taam before meteg table" merkha meteg
Ligature2: "remove taam before meteg table" mahapakh meteg
Ligature2: "remove taam before meteg table" munah meteg
Ligature2: "remove taam before meteg table" atnahhafukh meteg
Ligature2: "remove taam before meteg table" tevir meteg
Ligature2: "remove taam before meteg table" yetiv meteg
Ligature2: "remove taam before meteg table" tipeha meteg
Ligature2: "remove taam before meteg table" atnah meteg
LCarets2: 1 0 
EndChar

StartChar: makaf
Encoding: 1470 1470 51
Width: 686
GlyphClass: 2
Flags: W
HStem: 802 278<126.379 571.959>
VStem: 74 548<989.105 1026.84>
LayerCount: 2
Fore
SplineSet
106 802 m 2
 75 802 74 830 74 837 c 0
 74 858 88 907 99 949 c 2
 126 1055 l 1
 134 1073 147 1080 160 1080 c 2
 590 1080 l 2
 609 1080 622 1067 622 1046 c 2
 622 1042 l 1
 593 935 l 1
 566 827 570 802 534 802 c 2
 106 802 l 2
EndSplineSet
Validated: 1
EndChar

StartChar: rafe
Encoding: 1471 1471 52
Width: 0
GlyphClass: 4
Flags: W
HStem: 1169 149<-222 222>
VStem: -222 444<1169 1318>
AnchorPoint: "A-3" -6 0 mark 0
LayerCount: 2
Fore
SplineSet
222 1169 m 1
 -222 1169 l 1
 -222 1318 l 1
 222 1318 l 1
 222 1169 l 1
EndSplineSet
Validated: 1
LCarets2: 1 0 
EndChar

StartChar: paseq
Encoding: 1472 1472 53
Width: 644
GlyphClass: 2
Flags: W
VStem: 207 140<-164 1229>
LayerCount: 2
Fore
SplineSet
347 -164 m 1
 207 -164 l 1
 207 1229 l 1
 347 1229 l 1
 347 -164 l 1
EndSplineSet
Validated: 1
EndChar

StartChar: shindot
Encoding: 1473 1473 54
Width: 0
GlyphClass: 4
Flags: W
HStem: 1167 219<-79.0824 79.0824>
VStem: -98 196<1183.72 1369.23>
AnchorPoint: "A-60" -329.8 0 mark 0
LayerCount: 2
Fore
SplineSet
0 1167 m 0
 -60 1167 -98 1218 -98 1276 c 0
 -98 1339 -56 1386 0 1386 c 0
 60 1386 98 1335 98 1276 c 0
 98 1214 56 1167 0 1167 c 0
EndSplineSet
Validated: 1
EndChar

StartChar: sindot
Encoding: 1474 1474 55
Width: 0
GlyphClass: 4
Flags: W
HStem: 1167 219<-79.0824 79.0824>
VStem: -98 196<1183.72 1369.23>
AnchorPoint: "A-60" 357 0 mark 0
LayerCount: 2
Fore
SplineSet
0 1167 m 0
 -60 1167 -98 1218 -98 1276 c 0
 -98 1339 -56 1386 0 1386 c 0
 60 1386 98 1335 98 1276 c 0
 98 1214 56 1167 0 1167 c 0
EndSplineSet
Validated: 1
EndChar

StartChar: sofpasuq
Encoding: 1475 1475 56
Width: 545
GlyphClass: 2
Flags: W
VStem: 77 317<112.25 215.355>
LayerCount: 2
Fore
SplineSet
217 976 m 0
 229 976 239 974 243 971 c 1
 245 973 l 1
 327 885 360 873 381 857 c 1
 398 852 400 847 400 844 c 0
 400 818 397 809 394 802 c 1
 344 737 l 1
 298 654 l 1
 291 643 278 636 266 636 c 0
 219 636 117 717 87 747 c 1
 83 754 77 770 77 792 c 0
 77 792 144 911 182 970 c 1
 192 974 206 976 217 976 c 0
266 -18 m 0
 207 -18 77 111 77 111 c 0
 77 126 80 138 83 148 c 1
 115 205 147 264 182 319 c 1
 190 338 203 350 217 350 c 0
 231 350 235 341 243 335 c 1
 245 330 l 1
 366 206 400 237 400 160 c 0
 400 156 398 154 394 151 c 1
 344 71 l 1
 298 -12 l 1
 291 -16 278 -18 266 -18 c 0
EndSplineSet
Validated: 1
EndChar

StartChar: nunhapukha
Encoding: 1478 1478 59
Width: 692
GlyphClass: 2
Flags: W
HStem: 0 296<328 556> 786 269<326.789 493.761>
VStem: 193 130<490.072 781.399> 218 128<314.524 723.764>
LayerCount: 2
Fore
SplineSet
246 1132 m 1xe0
 263 1091 275 1055 368 1055 c 0
 399 1055 434 1059 470 1059 c 0
 493 1059 516 1057 537 1051 c 1
 564 1045 l 1
 492 778 l 1
 468 782 l 1
 447 784 429 786 412 786 c 0
 332 786 323 757 323 728 c 0xe0
 323 638 346 524 346 426 c 0
 346 403 345 394 345 387 c 1
 328 296 l 1
 556 295 l 1
 638 0 l 1
 168 0 l 1
 161 25 156 65 156 130 c 0
 156 239 218 369 218 546 c 0xd0
 218 622 193 664 193 735 c 0
 193 750 194 765 197 782 c 1
 136 804 115 867 115 926 c 0
 115 1003 161 1121 165 1132 c 1
 246 1132 l 1xe0
EndSplineSet
Validated: 1
EndChar

StartChar: qamatsqatan
Encoding: 1479 1479 60
Width: 0
GlyphClass: 4
Flags: W
HStem: -275 136<-175 -48 49 176>
VStem: -99 198<-599.625 -462.824> -48 97<-490.812 -275>
AnchorPoint: "A-8" -150 0 mark 0
AnchorPoint: "A-71" -0.424805 0 mark 0
AnchorPoint: "A-48" -289.425 0 basemark 0
AnchorPoint: "A-5" -0.424805 0 mark 0
LayerCount: 2
Fore
SplineSet
49 -275 m 1xa0
 49 -285 l 2xa0
 49 -314 52 -347 59 -373 c 1
 99 -513 l 1
 79 -566 68 -588 33 -624 c 1
 23 -626 13 -628 0 -628 c 0
 -15 -628 -24 -625 -35 -622 c 1
 -72 -592 -82 -565 -99 -513 c 1xc0
 -60 -371 l 1
 -55 -352 -49 -302 -48 -285 c 1
 -48 -275 l 1
 -175 -275 l 1
 -176 -139 l 1
 176 -139 l 1
 177 -275 l 1
 49 -275 l 1xa0
EndSplineSet
Validated: 1
EndChar

StartChar: alef
Encoding: 1488 1488 61
Width: 1158
GlyphClass: 2
Flags: W
HStem: -17 21G<948 1041.5> 0 73<187 207>
VStem: 160 191<342.5 521.754> 171 149<987.011 1089.83> 247 308<77.8177 238.758> 404 3<-1.29199 0> 948 152<28.2666 120.991>
AnchorPoint: "A-63" 591.975 0 basechar 0
AnchorPoint: "A-62" 591.975 0 basechar 0
AnchorPoint: "A-61" 591.975 0 basechar 0
AnchorPoint: "A-59" 86.2246 0 basechar 0
AnchorPoint: "A-21" -279.275 0 basechar 0
AnchorPoint: "A-8" 591.975 0 basechar 0
AnchorPoint: "A-20" 120.225 0 basechar 0
AnchorPoint: "A-7" 630 0 basechar 0
AnchorPoint: "A-6" 640 0 basechar 0
AnchorPoint: "A-5" 630 0 basechar 0
AnchorPoint: "A-4" 630 0 basechar 0
LayerCount: 2
Fore
SplineSet
932 1056 m 1x52
 972 1056 1091 1005 1091 886 c 0
 1091 812 1050 749 1011 700 c 1
 956 700 l 1
 951 717 948 736 951 759 c 1
 894 670 876 617 876 563 c 0
 876 517 895 479 922 448 c 2
 1015 346 l 2
 1061 295 1100 231 1100 154 c 0
 1100 84 1070 33 1013 -17 c 1
 948 -17 l 1
 948 10 l 2
 948 55 929 92 903 121 c 1
 431 603 l 1
 375 572 351 535 351 494 c 0xa2
 351 386 555 299 555 162 c 1x8a
 550 65 470 4 414 0 c 1
 407 0 l 1
 406 -28 404 -28 404 0 c 1x46
 187 0 l 1
 187 73 l 1
 207 78 l 2
 243 88 247 106 247 119 c 0x4a
 247 167 160 298 160 387 c 0x62
 160 494 235 583 354 654 c 1
 254 763 l 2
 200 823 171 888 171 955 c 0
 171 1048 222 1100 254 1136 c 1
 320 1136 l 1
 320 1108 l 2
 320 1066 333 1023 365 987 c 1
 748 600 l 1
 767 664 793 716 830 769 c 1
 727 797 678 867 678 970 c 0
 678 1053 711 1097 740 1136 c 1
 810 1136 l 1
 816 1116 l 1
 833 1069 868 1056 932 1056 c 1x52
EndSplineSet
Validated: 1
LCarets2: 1 90 
Substitution2: "'jalt' Wide Letter Alternatives in Hebrew subtable" alef.wide
EndChar

StartChar: bet
Encoding: 1489 1489 62
Width: 1077
GlyphClass: 2
Flags: W
HStem: -0 295<168.041 811.052 910 1027.37> 782 274<327.154 785.994>
VStem: 132 922<4.66647 273.384> 824 149<339.486 763.249>
AnchorPoint: "A-63" 512.55 0 basechar 0
AnchorPoint: "A-62" 512.55 0 basechar 0
AnchorPoint: "A-61" 512.55 0 basechar 0
AnchorPoint: "A-59" 83.2998 0 basechar 0
AnchorPoint: "A-21" -282.2 0 basechar 0
AnchorPoint: "A-8" 512.55 0 basechar 0
AnchorPoint: "A-20" 66.2998 0 basechar 0
AnchorPoint: "A-7" 550 0 basechar 0
AnchorPoint: "A-6" 560 0 basechar 0
AnchorPoint: "A-5" 550 0 basechar 0
AnchorPoint: "A-4" 600 0 basechar 0
LayerCount: 2
Fore
SplineSet
132 56 m 0xe0
 132 95 141 204 187 295 c 1
 803 295 l 1
 818 366 824 429 824 536 c 0
 824 668 808 749 787 764 c 0
 766 779 715 782 619 782 c 1
 362 782 l 1
 251 782 183 853 183 950 c 0
 183 1046 231 1098 259 1130 c 1
 319 1130 l 1
 324 1110 l 2
 333 1076 361 1056 405 1056 c 2
 572 1056 l 2
 939 1056 973 962 973 694 c 2
 973 562 l 2xd0
 973 484 945 365 910 296 c 1
 1054 295 l 1
 1054 268 l 2
 1054 234 1050 99 1014 0 c 1
 138 -0 l 1
 134 18 132 36 132 56 c 0xe0
EndSplineSet
Validated: 1
LCarets2: 1 81 
EndChar

StartChar: gimel
Encoding: 1490 1490 63
Width: 720
GlyphClass: 2
Flags: W
HStem: -18 21G<80.523 329.333 587.672 666.5>
VStem: 173 373<821.297 1011.41> 420 110<453.105 761.604>
AnchorPoint: "A-3" 380 0 basechar 0
AnchorPoint: "A-63" 373.3 0 basechar 0
AnchorPoint: "A-62" 373.3 0 basechar 0
AnchorPoint: "A-61" 373.3 0 basechar 0
AnchorPoint: "A-59" 67.2998 0 basechar 0
AnchorPoint: "A-21" -298.2 0 basechar 0
AnchorPoint: "A-8" 373.3 0 basechar 0
AnchorPoint: "A-20" 143.8 0 basechar 0
AnchorPoint: "A-7" 373.3 0 basechar 0
AnchorPoint: "A-6" 373.3 0 basechar 0
AnchorPoint: "A-5" 400 0 basechar 0
AnchorPoint: "A-4" 400 0 basechar 0
LayerCount: 2
Fore
SplineSet
703 131 m 0xa0
 703 59 680 21 653 -18 c 1
 596 -18 l 1
 464 299 l 1
 342 0 l 1
 76 -21 l 1
 140 262 l 1
 263 282 303 280 344 325 c 0
 394 379 420 497 420 598 c 0xa0
 420 679 403 749 368 769 c 0
 361 772 354 775 332 780 c 2
 293 789 l 2
 175 815 174 866 173 944 c 0
 173 945 173 946 173 947 c 0
 173 1034 222 1089 251 1123 c 1
 314 1123 l 1
 318 1102 l 1
 323 1067 320 1073 321 1060 c 1
 324 1059 324 1058 336 1057 c 2
 409 1050 l 2
 464 1045 546 1018 546 889 c 0xc0
 546 813 530 668 530 597 c 0
 530 453 703 304 703 131 c 0xa0
EndSplineSet
Validated: 1
LCarets2: 1 54 
EndChar

StartChar: dalet
Encoding: 1491 1491 64
Width: 989
GlyphClass: 2
Flags: W
HStem: -27 21G<583.048 710> 780 276<242.573 714>
VStem: 100 834<828.349 1031.8> 587 194<158.001 666.765> 597 206<43.2001 503.852>
AnchorPoint: "A-3" 530 0 basechar 0
AnchorPoint: "A-63" 523.75 0 basechar 0
AnchorPoint: "A-62" 438.75 0 basechar 0
AnchorPoint: "A-61" 353.75 0 basechar 0
AnchorPoint: "A-59" 39.25 0 basechar 0
AnchorPoint: "A-21" -326.25 0 basechar 0
AnchorPoint: "A-8" 494 0 basechar 0
AnchorPoint: "A-20" -45.75 0 basechar 0
AnchorPoint: "A-7" 520 0 basechar 0
AnchorPoint: "A-6" 560 0 basechar 0
AnchorPoint: "A-5" 650 0 basechar 0
AnchorPoint: "A-4" 650 0 basechar 0
LayerCount: 2
Fore
SplineSet
100 941 m 0xe0
 100 1052 157 1105 177 1126 c 1
 236 1126 l 1
 241 1106 l 2
 246 1087 256 1056 313 1056 c 2
 782 1056 l 2
 889 1056 934 1022 934 919 c 0xe0
 934 784 871 809 812 714 c 1
 791 683 781 643 781 594 c 0xd0
 781 490 803 302 803 192 c 0
 803 140 795 -1 625 -27 c 1
 604 -27 l 1
 560 15 l 1
 572 31 597 54 597 113 c 0xc8
 597 237 587 330 587 423 c 0xd0
 587 578 621 695 714 780 c 1
 282 780 l 2
 168 780 100 841 100 941 c 0xe0
EndSplineSet
Validated: 1
LCarets2: 1 73 
Substitution2: "'jalt' Wide Letter Alternatives in Hebrew subtable" dalet.wide
EndChar

StartChar: he
Encoding: 1492 1492 65
Width: 1181
GlyphClass: 2
Flags: W
HStem: -27 21G<880.583 916.5> 780 276<341.317 943>
VStem: 196 909<828.23 1029.96> 231 193<20.2344 473.009> 874 158<227.658 735.944> 890 188<40.8867 512.765>
AnchorPoint: "A-63" 597.592 0 basechar 0
AnchorPoint: "A-62" 597.592 0 basechar 0
AnchorPoint: "A-61" 597.592 0 basechar 0
AnchorPoint: "A-59" 100.342 0 basechar 0
AnchorPoint: "A-21" -265.158 0 basechar 0
AnchorPoint: "A-8" 597.592 0 basechar 0
AnchorPoint: "A-20" 100.342 0 basechar 0
AnchorPoint: "A-7" 620 0 basechar 0
AnchorPoint: "A-6" 620 0 basechar 0
AnchorPoint: "A-5" 630 0 basechar 0
AnchorPoint: "A-4" 600 0 basechar 0
LayerCount: 2
Fore
SplineSet
471 474 m 2xd0
 471 474 416 461 416 320 c 0
 416 282 424 164 424 126 c 0
 424 -2 324 -28 231 -34 c 1xd0
 196 20 l 1xe0
 213 35 l 2
 220 43 231 57 231 90 c 0
 231 127 225 240 225 278 c 0
 225 446 297 551 406 551 c 0
 432 551 446 544 471 532 c 1
 471 474 l 2xd0
196 943 m 0xe0
 196 1053 253 1105 273 1126 c 1
 333 1126 l 1
 338 1106 l 2
 345 1078 361 1056 404 1056 c 2
 948 1056 l 2
 1079 1056 1105 1002 1105 919 c 2
 1105 873 l 2xe0
 1105 781 1032 795 1032 604 c 0xc8
 1032 481 1078 321 1078 192 c 0
 1078 -6 937 -21 896 -27 c 1
 859 21 l 1
 875 49 890 73 890 123 c 0xc4
 890 204 874 378 874 461 c 0xc8
 874 595 887 696 943 780 c 1
 372 780 l 2
 258 780 196 847 196 943 c 0xe0
EndSplineSet
Validated: 1
LCarets2: 1 88 
Substitution2: "'jalt' Wide Letter Alternatives in Hebrew subtable" he.wide
EndChar

StartChar: vav
Encoding: 1493 1493 66
Width: 539
GlyphClass: 2
Flags: W
HStem: -20 21G<330 412>
VStem: 330 145<6.03149 754.675>
AnchorPoint: "A-63" 264.25 0 basechar 0
AnchorPoint: "A-62" 196.25 0 basechar 0
AnchorPoint: "A-61" 264.25 0 basechar 0
AnchorPoint: "A-59" 56 0 basechar 0
AnchorPoint: "A-21" 158 0 basechar 0
AnchorPoint: "A-8" 349.25 0 basechar 0
AnchorPoint: "A-20" 158 0 basechar 0
AnchorPoint: "A-7" 295 0 basechar 0
AnchorPoint: "A-6" 320 0 basechar 0
AnchorPoint: "A-5" 370 0 basechar 0
AnchorPoint: "A-4" 380 0 basechar 0
LayerCount: 2
Fore
SplineSet
153 1117 m 1
 168 1114 208 1112 212 1112 c 1
 218 1094 204 1056 294 1056 c 0
 439 1056 475 950 475 824 c 2
 475 107 l 2
 475 46 442 0 382 -20 c 1
 330 -4 l 1
 330 663 l 2
 330 664 330 665 330 667 c 0
 330 683 329 728 312 756 c 1
 289 756 297 754 259 761 c 1
 201 777 74 803 74 970 c 1
 74 1050 138 1117 153 1117 c 1
EndSplineSet
Validated: 1
LCarets2: 1 39 
EndChar

StartChar: zain
Encoding: 1494 1494 67
Width: 604
GlyphClass: 2
Flags: W
HStem: -21 21G<236.702 278>
VStem: 94 477<843.135 993.276> 223 154<373.986 747.077> 255 184<55.9474 492.541>
AnchorPoint: "A-63" 223.139 0 basechar 0
AnchorPoint: "A-62" 223.139 0 basechar 0
AnchorPoint: "A-61" 223.139 0 basechar 0
AnchorPoint: "A-59" 61.6387 0 basechar 0
AnchorPoint: "A-21" -303.861 0 basechar 0
AnchorPoint: "A-8" 316.639 0 basechar 0
AnchorPoint: "A-20" 19.1387 0 basechar 0
AnchorPoint: "A-7" 300 0 basechar 0
AnchorPoint: "A-6" 308.139 0 basechar 0
AnchorPoint: "A-5" 300 0 basechar 0
AnchorPoint: "A-4" 316.639 0 basechar 0
LayerCount: 2
Fore
SplineSet
571 891 m 0xc0
 571 819 545 765 502 713 c 1
 449 713 l 1
 445 734 l 1
 438 755 396 772 389 774 c 1
 379 724 377 695 377 661 c 0xa0
 377 513 439 361 439 221 c 0
 439 8 301 -14 255 -21 c 1
 212 26 l 1
 228 49 l 2
 245 73 255 101 255 139 c 0x90
 255 231 223 393 223 489 c 0xa0
 223 589 237 680 283 785 c 1
 155 785 94 870 94 964 c 0
 94 1058 131 1107 163 1147 c 1
 226 1147 l 1
 230 1125 l 2
 234 1107 243 1087 273 1080 c 1
 412 1050 471 1024 515 1005 c 1
 550 983 571 937 571 891 c 0xc0
EndSplineSet
Validated: 1
LCarets2: 1 46 
EndChar

StartChar: het
Encoding: 1495 1495 68
Width: 1175
GlyphClass: 2
Flags: W
HStem: -27 21G<218.451 254 874.898 912> 780 276<398.156 933>
VStem: 191 909<813.674 1029.96> 220 161<224.022 705.706> 235 186<47.4158 651.493> 869 154<241.757 745.284> 885 185<39.1066 520.378>
AnchorPoint: "A-63" 594.325 0 basechar 0
AnchorPoint: "A-62" 594.325 0 basechar 0
AnchorPoint: "A-61" 594.325 0 basechar 0
AnchorPoint: "A-59" 58.8252 0 basechar 0
AnchorPoint: "A-21" -306.675 0 basechar 0
AnchorPoint: "A-8" 594.325 0 basechar 0
AnchorPoint: "A-20" 58.8252 0 basechar 0
AnchorPoint: "A-7" 615 0 basechar 0
AnchorPoint: "A-6" 620 0 basechar 0
AnchorPoint: "A-5" 594.325 0 basechar 0
AnchorPoint: "A-4" 620 0 basechar 0
AnchorPoint: "A-3" 594.325 0 basechar 0
LayerCount: 2
Fore
SplineSet
220 451 m 1xd0
 220 463 220 475 220 485 c 0xd0
 220 609 245 701 313 780 c 1
 209 799 191 866 191 943 c 0
 191 1053 248 1105 268 1126 c 1
 328 1126 l 1
 333 1106 l 2
 338 1089 348 1056 406 1056 c 2
 944 1056 l 2
 1040 1056 1100 1033 1100 923 c 2
 1100 919 l 2xe0
 1100 763 1023 787 1023 604 c 0xc4
 1023 498 1070 316 1070 192 c 0
 1070 -7 934 -21 890 -27 c 1
 853 22 l 1
 864 40 885 65 885 128 c 0xc2
 885 213 869 396 869 484 c 0
 869 624 878 692 933 780 c 1
 436 780 l 1
 401 754 381 728 381 624 c 0xd4
 381 504 421 346 421 218 c 0
 421 -7 277 -21 231 -27 c 1
 199 24 l 1
 217 50 235 75 235 161 c 1xc8
 235 213 220 354 220 451 c 1xd0
EndSplineSet
Validated: 1
LCarets2: 1 91 
EndChar

StartChar: tet
Encoding: 1496 1496 69
Width: 1125
GlyphClass: 2
Flags: W
HStem: -0 295<410.714 877.6> 780 303<696.691 888.92>
VStem: 134 367<826.5 1029.48> 212 120<423.388 777.939> 921 131<339.599 749.849>
AnchorPoint: "A-63" 548.25 0 basechar 0
AnchorPoint: "A-62" 548.25 0 basechar 0
AnchorPoint: "A-61" 548.25 0 basechar 0
AnchorPoint: "A-59" 46.75 0 basechar 0
AnchorPoint: "A-21" -318.75 0 basechar 0
AnchorPoint: "A-8" 548.25 0 basechar 0
AnchorPoint: "A-20" 29.75 0 basechar 0
AnchorPoint: "A-7" 600 0 basechar 0
AnchorPoint: "A-6" 600 0 basechar 0
AnchorPoint: "A-5" 570 0 basechar 0
AnchorPoint: "A-4" 580 0 basechar 0
LayerCount: 2
Fore
SplineSet
253 786 m 1xd8
 169 810 134 865 134 959 c 0
 134 1016 146 1048 175 1108 c 1
 254 1108 l 1
 257 1084 269 1056 336 1056 c 1
 433 1056 501 1031 501 933 c 0xe8
 501 912 488 813 468 760 c 1
 454 745 446 741 431 741 c 1
 423 741 407 749 397 763 c 0
 392 770 379 777 375 780 c 1
 365 782 360 778 353 780 c 1
 335 721 332 691 332 647 c 0
 332 532 363 437 432 295 c 1
 859 295 l 1
 908 404 921 476 921 630 c 0
 921 756 855 780 786 780 c 0
 780 780 773 780 766 780 c 0
 719 780 657 773 621 670 c 2
 612 645 l 1
 517 666 l 1
 523 692 l 2
 569 885 636 1083 837 1083 c 0
 1009 1083 1052 899 1052 658 c 0
 1052 467 1007 248 921 0 c 1
 284 -0 l 1
 284 147 212 377 212 559 c 0
 212 638 225 707 253 786 c 1xd8
EndSplineSet
Validated: 1
LCarets2: 1 85 
EndChar

StartChar: yod
Encoding: 1497 1497 70
Width: 509
GlyphClass: 2
Flags: W
VStem: 66 389<825.958 990.685> 312 143<577.25 765.495>
AnchorPoint: "A-63" 222.875 0 basechar 0
AnchorPoint: "A-62" 222.875 0 basechar 0
AnchorPoint: "A-61" 222.875 0 basechar 0
AnchorPoint: "A-59" 44.375 0 basechar 0
AnchorPoint: "A-21" -321.125 0 basechar 0
AnchorPoint: "A-8" 239.875 0 basechar 0
AnchorPoint: "A-20" -15.125 0 basechar 0
AnchorPoint: "A-7" 230 0 basechar 0
AnchorPoint: "A-6" 250 0 basechar 0
AnchorPoint: "A-5" 239.875 0 basechar 0
AnchorPoint: "A-4" 280 0 basechar 0
LayerCount: 2
Fore
SplineSet
268 418 m 1x40
 206 490 l 1
 230 508 l 2
 296 559 312 600 312 683 c 2
 312 719 l 1
 312 722 l 0x40
 312 752 311 766 251 766 c 0
 128 766 66 852 66 961 c 0
 66 1015 87 1051 120 1113 c 1
 196 1113 l 1
 199 1113 l 1
 203 1076 229 1060 265 1060 c 1
 300 1056 l 1
 370 1056 455 975 455 858 c 2x80
 455 779 l 2
 455 651 396 486 287 428 c 1
 268 418 l 1x40
EndSplineSet
Validated: 1
LCarets2: 1 36 
EndChar

StartChar: finalkaf
Encoding: 1498 1498 71
Width: 956
GlyphClass: 2
Flags: W
HStem: 780 280<249.341 694>
VStem: 108 792<825 1027.72> 694 168<-312.691 232.416> 694 136<310.054 779.625>
AnchorPoint: "A-63" 279.95 0 basechar 0
AnchorPoint: "A-62" 220.45 0 basechar 0
AnchorPoint: "A-61" 118.45 0 basechar 0
AnchorPoint: "A-59" 84.4502 0 basechar 0
AnchorPoint: "A-21" -281.05 0 basechar 0
AnchorPoint: "A-8" 347.95 0 basechar 0
AnchorPoint: "A-20" 16.4502 0 basechar 0
AnchorPoint: "A-7" 240 0 basechar 0
AnchorPoint: "A-6" 300 0 basechar 0
AnchorPoint: "A-5" 373.45 0 basechar 0
AnchorPoint: "A-4" 450 0 basechar 0
LayerCount: 2
Fore
SplineSet
689 -273 m 1x90
 694 780 l 1x90
 278 780 l 2
 168 780 108 846 108 942 c 0
 108 1039 154 1093 184 1127 c 1
 245 1127 l 1
 249 1106 l 2
 256 1075 281 1060 330 1060 c 2
 746 1059 l 2
 866 1059 900 995 900 927 c 2
 900 897 l 2xc0
 900 867 892 839 873 817 c 1
 841 771 l 1
 835 764 830 755 830 719 c 2
 830 711 l 1x90
 861 -156 l 1
 861 -163 862 -174 862 -181 c 0xa0
 862 -302 812 -329 738 -356 c 1
 736 -356 694 -334 694 -334 c 25
 694 -334 688 -280 689 -273 c 1x90
EndSplineSet
Validated: 1
LCarets2: 1 72 
EndChar

StartChar: kaf
Encoding: 1499 1499 72
Width: 1052
GlyphClass: 2
Flags: W
HStem: 0 295<180 783.504> 781 278<305.042 787.435>
VStem: 835 147<353.986 725.704>
AnchorPoint: "A-63" 469.65 0 basechar 0
AnchorPoint: "A-62" 469.65 0 basechar 0
AnchorPoint: "A-61" 469.65 0 basechar 0
AnchorPoint: "A-59" 78.6504 0 basechar 0
AnchorPoint: "A-21" -286.85 0 basechar 0
AnchorPoint: "A-8" 469.65 0 basechar 0
AnchorPoint: "A-20" 44.6504 0 basechar 0
AnchorPoint: "A-7" 480 0 basechar 0
AnchorPoint: "A-6" 469.65 0 basechar 0
AnchorPoint: "A-5" 469.65 0 basechar 0
AnchorPoint: "A-4" 500 0 basechar 0
LayerCount: 2
Fore
SplineSet
982 538 m 0
 982 137 884 0 508 0 c 2
 125 0 l 1
 180 295 l 1
 620 295 l 2
 778 295 835 345 835 519 c 2
 835 529 l 2
 835 712 804 781 641 781 c 2
 325 781 l 2
 215 781 162 852 162 946 c 0
 162 1042 210 1094 238 1126 c 1
 298 1126 l 1
 303 1106 l 2
 310 1079 327 1059 377 1059 c 2
 620 1059 l 2
 844 1059 982 914 982 538 c 0
EndSplineSet
Validated: 1
LCarets2: 1 74 
Substitution2: "'jalt' Wide Letter Alternatives in Hebrew subtable" kaf.wide
EndChar

StartChar: lamed
Encoding: 1500 1500 73
Width: 1011
GlyphClass: 2
Flags: W
HStem: -22 21G<510.5 588.5> 777 281<295.429 826.07>
VStem: 144 138<904 1177.7> 421 224<8.43582 215.918> 830 143<514.458 771.633>
AnchorPoint: "A-63" 397.325 0 basechar 0
AnchorPoint: "A-62" 371.825 0 basechar 0
AnchorPoint: "A-61" 397.325 0 basechar 0
AnchorPoint: "A-59" 133.825 0 basechar 0
AnchorPoint: "A-21" -231.675 0 basechar 0
AnchorPoint: "A-8" 490.825 0 basechar 0
AnchorPoint: "A-20" -170 -90 basechar 0
AnchorPoint: "A-7" 500 0 basechar 0
AnchorPoint: "A-6" 490 0 basechar 0
AnchorPoint: "A-5" 530 0 basechar 0
AnchorPoint: "A-4" 520 0 basechar 0
LayerCount: 2
Fore
SplineSet
82 1402 m 0
 82 1418 94 1498 144 1572 c 1
 206 1572 l 1
 210 1548 l 2
 210 1546 211 1534 235 1524 c 2
 273 1509 l 2
 324 1488 357 1454 357 1406 c 0
 357 1405 357 1405 357 1404 c 0
 357 1398 355 1391 309 1232 c 1
 295 1180 l 2
 288 1153 282 1128 282 1107 c 0
 282 1091 286 1079 295 1072 c 0
 304 1064 323 1058 380 1058 c 2
 754 1058 l 2
 820 1058 875 1043 915 1009 c 1
 960 969 973 879 973 780 c 2
 973 677 l 2
 973 590 953 521 908 473 c 2
 716 270 l 1
 667 224 645 182 645 144 c 0
 645 134 652 106 652 77 c 0
 652 30 634 -22 543 -22 c 0
 478 -22 421 33 421 106 c 0
 421 195 509 269 614 359 c 1
 776 503 l 1
 815 543 830 591 830 643 c 2
 830 701 l 1
 829 774 819 777 665 777 c 2
 329 777 l 2
 211 777 144 851 144 957 c 0
 144 1017 157 1085 182 1158 c 2
 211 1243 l 2
 220 1270 221 1278 196 1291 c 2
 141 1318 l 1
 117 1330 82 1351 82 1402 c 0
EndSplineSet
Validated: 1
LCarets2: 1 67 
Substitution2: "'jalt' Wide Letter Alternatives in Hebrew subtable" lamed.wide
EndChar

StartChar: finalmem
Encoding: 1501 1501 74
Width: 1114
GlyphClass: 2
Flags: W
HStem: 0 295<318 891> 780 279<295.366 345 441 848.993>
VStem: 172 146<295 665.742> 891 141<295 741.018>
AnchorPoint: "A-63" 556.9 0 basechar 0
AnchorPoint: "A-62" 556.9 0 basechar 0
AnchorPoint: "A-61" 556.9 0 basechar 0
AnchorPoint: "A-59" 76.6504 0 basechar 0
AnchorPoint: "A-21" -288.85 0 basechar 0
AnchorPoint: "A-8" 556.9 0 basechar 0
AnchorPoint: "A-20" 42.6504 0 basechar 0
AnchorPoint: "A-7" 600 0 basechar 0
AnchorPoint: "A-6" 580 0 basechar 0
AnchorPoint: "A-5" 580 0 basechar 0
AnchorPoint: "A-4" 600 0 basechar 0
AnchorPoint: "A-3" 569.65 0 basechar 0
LayerCount: 2
Fore
SplineSet
687 780 m 2
 441 780 l 1
 356 668 l 1
 330 630 317 585 317 529 c 2
 318 295 l 1
 891 295 l 1
 891 501 l 1
 890 645 869 698 848 741 c 1
 830 778 782 780 687 780 c 2
152 943 m 0
 152 1040 197 1090 228 1124 c 1
 288 1124 l 1
 293 1104 l 2
 300 1076 316 1059 362 1059 c 2
 726 1056 l 2
 858 1055 899 1041 956 988 c 0
 1012 935 1032 826 1032 692 c 2
 1032 0 l 1
 172 0 l 1
 172 538 l 1
 172 540 172 541 172 542 c 0
 172 595 189 632 240 697 c 1
 256 719 286 748 345 780 c 1
 219 780 152 849 152 943 c 0
EndSplineSet
Validated: 1
LCarets2: 1 83 
Substitution2: "'jalt' Wide Letter Alternatives in Hebrew subtable" finalmem.wide
EndChar

StartChar: mem
Encoding: 1502 1502 75
Width: 1204
GlyphClass: 2
Flags: W
HStem: 0 295<556 971.516>
VStem: 174 171<0 374.668> 186 402<846.375 1034.85> 977 140<297.758 679.352>
AnchorPoint: "A-63" 573.75 0 basechar 0
AnchorPoint: "A-62" 573.75 0 basechar 0
AnchorPoint: "A-61" 573.75 0 basechar 0
AnchorPoint: "A-59" 89.25 0 basechar 0
AnchorPoint: "A-21" -276.25 0 basechar 0
AnchorPoint: "A-8" 650 0 basechar 0
AnchorPoint: "A-20" 123.25 0 basechar 0
AnchorPoint: "A-7" 600 0 basechar 0
AnchorPoint: "A-6" 630 0 basechar 0
AnchorPoint: "A-5" 610 0 basechar 0
AnchorPoint: "A-4" 600 0 basechar 0
LayerCount: 2
Fore
SplineSet
186 960 m 0xb0
 186 1039 213 1088 240 1135 c 1
 303 1135 l 1
 309 1115 l 2
 320 1080 354 1070 386 1067 c 2
 478 1059 l 1
 552 1049 588 1010 588 952 c 0xb0
 588 922 579 889 579 871 c 0
 579 860 581 851 586 845 c 1
 679 898 728 966 736 1048 c 2
 739 1075 l 1
 768 1071 l 2
 1031 1029 1117 763 1117 493 c 0
 1117 404 1104 302 1079 184 c 2
 1041 0 l 1
 485 0 l 1
 556 295 l 1
 964 295 l 1
 977 354 977 402 977 496 c 2
 977 498 l 2
 977 660 901 780 778 783 c 1
 772 783 l 1
 663 780 585 731 505 622 c 1
 420 498 347 333 345 27 c 2
 345 0 l 1
 180 0 l 1
 178 25 l 2
 175 58 174 87 174 110 c 0xd0
 174 354 242 555 455 733 c 1
 460 756 460 763 460 764 c 1
 439 768 416 768 350 777 c 1
 241 797 186 881 186 960 c 0xb0
EndSplineSet
Validated: 1
LCarets2: 1 89 
EndChar

StartChar: finalnun
Encoding: 1503 1503 76
Width: 514
GlyphClass: 2
Flags: W
VStem: 90 374<824.023 1010.96> 243 181<-286.67 179.064> 243 147<43.75 680.983>
AnchorPoint: "A-63" -114.2 0 basechar 0
AnchorPoint: "A-62" -190.7 0 basechar 0
AnchorPoint: "A-61" -301.2 0 basechar 0
AnchorPoint: "A-59" 81.2998 0 basechar 0
AnchorPoint: "A-21" -284.2 0 basechar 0
AnchorPoint: "A-8" -67.4502 0 basechar 0
AnchorPoint: "A-20" 21.7998 0 basechar 0
AnchorPoint: "A-7" -173.7 0 basechar 0
AnchorPoint: "A-6" -139.7 0 basechar 0
AnchorPoint: "A-5" -30 0 basechar 0
AnchorPoint: "A-4" 81.2998 0 basechar 0
AnchorPoint: "A-3" 81.2998 0 basechar 0
LayerCount: 2
Fore
SplineSet
90 956 m 0x80
 90 1049 126 1097 158 1137 c 1
 222 1137 l 1
 226 1114 l 2
 233 1071 249 1057 279 1056 c 1
 303 1056 l 1
 415 1049 464 992 464 876 c 1x80
 462 780 390 801 390 524 c 1x20
 390 513 390 501 391 489 c 2
 423 -59 l 2
 424 -74 424 -87 424 -100 c 0x40
 424 -303 330 -339 290 -354 c 1
 243 -337 l 1
 243 537 l 1x20
 246 646 313 701 313 749 c 0
 313 757 313 765 312 769 c 1
 286 784 90 740 90 956 c 0x80
EndSplineSet
Validated: 1
LCarets2: 1 36 
EndChar

StartChar: nun
Encoding: 1504 1504 77
Width: 669
GlyphClass: 2
Flags: W
HStem: 0 294<115 411>
VStem: 196 387<832.847 1017.79> 411 136<296.526 716.025>
AnchorPoint: "A-63" 256.825 0 basechar 0
AnchorPoint: "A-62" 256.825 0 basechar 0
AnchorPoint: "A-61" 256.825 0 basechar 0
AnchorPoint: "A-59" 44.3252 0 basechar 0
AnchorPoint: "A-21" -299.925 0 basechar 0
AnchorPoint: "A-8" 316.325 0 basechar 0
AnchorPoint: "A-20" 95.3252 0 basechar 0
AnchorPoint: "A-7" 316.325 0 basechar 0
AnchorPoint: "A-6" 330 0 basechar 0
AnchorPoint: "A-5" 330 0 basechar 0
AnchorPoint: "A-4" 316.325 0 basechar 0
LayerCount: 2
Fore
SplineSet
398 1057 m 2xc0
 442 1052 l 2
 583 1037 583 954 583 898 c 0xc0
 583 802 547 641 547 549 c 0
 547 372 609 242 609 133 c 0
 609 66 604 25 598 -0 c 2
 593 0 l 1
 69 0 l 1
 115 294 l 1
 411 295 l 1
 411 393 l 1
 411 417 l 2
 411 517 430 632 430 722 c 2
 430 728 l 2
 429 733 429 751 422 764 c 0
 418 771 415 773 411 775 c 0xa0
 406 777 395 779 383 779 c 0
 300 780 199 814 196 963 c 1
 196 967 l 2
 196 1066 249 1118 265 1132 c 2
 273 1140 l 1
 334 1140 l 1
 338 1117 l 2
 343 1094 344 1088 346 1081 c 1
 354 1069 374 1059 398 1057 c 2xc0
EndSplineSet
Validated: 1
LCarets2: 1 47 
EndChar

StartChar: samekh
Encoding: 1505 1505 78
Width: 1148
GlyphClass: 2
Flags: W
HStem: -24 286<418.111 807.062> 780 276<353.926 866.908>
VStem: 176 149<354.542 671.8> 927 145<349.965 711.847>
AnchorPoint: "A-63" 581.7 0 basechar 0
AnchorPoint: "A-62" 581.7 0 basechar 0
AnchorPoint: "A-61" 581.7 0 basechar 0
AnchorPoint: "A-59" 88.7002 0 basechar 0
AnchorPoint: "A-21" -268.3 0 basechar 0
AnchorPoint: "A-8" 581.7 0 basechar 0
AnchorPoint: "A-20" 88.7002 0 basechar 0
AnchorPoint: "A-7" 600 0 basechar 0
AnchorPoint: "A-6" 600 0 basechar 0
AnchorPoint: "A-5" 585 0 basechar 0
AnchorPoint: "A-4" 581.7 0 basechar 0
LayerCount: 2
Fore
SplineSet
176 943 m 0
 176 1038 221 1089 254 1126 c 1
 314 1126 l 1
 319 1106 l 2
 324 1089 337 1056 394 1056 c 2
 672 1056 l 2
 922 1056 1072 942 1072 538 c 0
 1072 214 876 -24 640 -24 c 2
 597 -24 l 2
 305 -24 176 207 176 441 c 0
 176 591 216 682 279 780 c 1
 217 807 176 893 176 943 c 0
927 530 m 0
 927 745 849 780 684 780 c 2
 375 780 l 1
 326 692 325 646 325 555 c 0
 325 544 l 0
 325 340 414 262 586 262 c 1
 688 262 l 1
 818 262 927 319 927 530 c 0
EndSplineSet
Validated: 1
LCarets2: 1 87 
EndChar

StartChar: ayin
Encoding: 1506 1506 79
Width: 1030
GlyphClass: 2
Flags: W
VStem: 84 388<839.686 1000.27> 220 132<617.17 755.677> 384 128<278 414.455> 593 389<829.092 1015.55> 797 12<295 727>
AnchorPoint: "A-63" 451.126 0 basechar 0
AnchorPoint: "A-62" 451.126 0 basechar 0
AnchorPoint: "A-61" 451.126 0 basechar 0
AnchorPoint: "A-59" 17.626 0 basechar 0
AnchorPoint: "A-21" -347.874 0 basechar 0
AnchorPoint: "A-8" 451.126 0 basechar 0
AnchorPoint: "A-20" 0.625977 0 basechar 0
AnchorPoint: "A-7" 450 0 basechar 0
AnchorPoint: "A-6" 450 0 basechar 0
AnchorPoint: "A-5" 450 0 basechar 0
AnchorPoint: "A-4" 451.126 0 basechar 0
AnchorPoint: "A-3" 573 89 basechar 0
LayerCount: 2
Fore
SplineSet
512 278 m 1x60
 665 296 636 315 664 388 c 1
 708 559 797 673 797 727 c 0x68
 797 739 792 749 780 755 c 0
 768 761 593 784 593 948 c 0
 593 1021 627 1080 663 1131 c 1
 737 1131 l 1
 742 1110 l 2
 747 1089 756 1077 764 1071 c 0
 817 1038 982 1067 982 920 c 0x10
 982 771 809 636 809 295 c 0
 809 197 774 7 473 7 c 1
 70 -37 l 1
 116 234 l 1
 384 264 l 1
 384 505 220 385 220 640 c 0x68
 220 677 225 718 235 781 c 1
 135 807 84 870 84 948 c 0
 84 1029 108 1079 135 1131 c 1
 200 1131 l 1
 206 1110 l 2
 213 1078 231 1056 266 1052 c 1
 312 1052 l 2
 407 1052 472 968 472 894 c 0x80
 472 814 440 792 410 758 c 1
 352 758 l 1
 352 687 353 634 393 610 c 0
 478 562 513 497 513 434 c 0
 513 427 512 421 512 414 c 2
 512 278 l 1x60
EndSplineSet
Validated: 1
LCarets2: 1 78 
Substitution2: "Automatic Alternate Ayin Subtable" ayin.alt
Substitution2: "'salt' Stylistic Alternatives in Hebrew subtable" ayin.alt
EndChar

StartChar: finalpe
Encoding: 1507 1507 80
Width: 996
GlyphClass: 2
Flags: W
HStem: 362 244<349.413 492.789> 780 276<326.25 751.08>
VStem: 141 159<437.5 676.646> 784 169<-313.953 477.536> 784 137<406.342 747.682>
AnchorPoint: "A-63" 396.35 0 basechar 0
AnchorPoint: "A-62" 302.85 0 basechar 0
AnchorPoint: "A-61" 209.35 0 basechar 0
AnchorPoint: "A-59" 107.35 0 basechar 0
AnchorPoint: "A-21" -258.15 0 basechar 0
AnchorPoint: "A-8" 421.85 0 basechar 0
AnchorPoint: "A-20" 107.35 0 basechar 0
AnchorPoint: "A-7" 328.35 0 basechar 0
AnchorPoint: "A-6" 379.35 0 basechar 0
AnchorPoint: "A-5" 472.85 0 basechar 0
AnchorPoint: "A-4" 600 0 basechar 0
LayerCount: 2
Fore
SplineSet
520 428 m 2xe8
 519 423 521 362 446 362 c 0
 417 362 378 371 348 371 c 0
 287 371 263 339 247 318 c 1
 183 318 l 1
 165 357 141 404 141 471 c 0
 141 594 187 699 247 785 c 1
 194 814 170 878 170 941 c 0
 170 1038 216 1091 248 1126 c 1
 308 1126 l 1
 317 1093 322 1056 385 1056 c 2
 600 1056 l 2
 882 1056 910 947 921 716 c 2xe8
 941 284 l 2
 949 105 953 -48 953 -174 c 0xf0
 953 -302 915 -321 835 -352 c 1
 784 -334 l 1
 784 498 l 2
 784 775 737 780 649 780 c 2
 352 780 l 1
 315 721 300 684 300 660 c 0
 300 623 337 616 388 606 c 1
 509 589 520 524 520 496 c 2
 520 428 l 2xe8
EndSplineSet
Validated: 1
LCarets2: 1 73 
EndChar

StartChar: pe
Encoding: 1508 1508 81
Width: 1022
GlyphClass: 2
Flags: W
HStem: 0 295<181 744.492> 781 278<287.641 766.125>
VStem: 117 161<549.5 759.61> 817 128<350.865 730.298>
AnchorPoint: "A-63" 431.65 0 basechar 0
AnchorPoint: "A-62" 431.65 0 basechar 0
AnchorPoint: "A-61" 431.65 0 basechar 0
AnchorPoint: "A-59" 15.1504 0 basechar 0
AnchorPoint: "A-21" -350.35 0 basechar 0
AnchorPoint: "A-8" 440.15 0 basechar 0
AnchorPoint: "A-20" 83.1504 0 basechar 0
AnchorPoint: "A-7" 470 0 basechar 0
AnchorPoint: "A-6" 450 0 basechar 0
AnchorPoint: "A-5" 440.15 0 basechar 0
AnchorPoint: "A-4" 440.15 0 basechar 0
LayerCount: 2
Fore
SplineSet
491 523 m 0
 491 508 490 449 429 449 c 0
 408 449 347 456 329 456 c 0
 269 456 246 428 228 407 c 1
 165 407 l 1
 146 447 117 514 117 585 c 0
 117 681 137 744 201 807 c 1
 179 832 l 1
 152 859 145 920 145 946 c 0
 145 1044 194 1095 222 1126 c 1
 282 1126 l 1
 287 1106 l 2
 291 1087 303 1059 361 1059 c 2
 587 1059 l 2
 809 1059 945 915 945 538 c 0
 945 331 915 177 837 103 c 0
 763 32 644 0 474 0 c 2
 110 0 l 1
 181 295 l 1
 567 295 l 2
 727 295 817 314 817 516 c 0
 817 764 747 781 620 781 c 2
 324 781 l 1
 292 761 278 737 278 708 c 0
 279 646 436 697 482 613 c 0
 488 602 491 589 491 575 c 2
 491 523 l 0
EndSplineSet
Validated: 1
LCarets2: 1 75 
EndChar

StartChar: finaltsadi
Encoding: 1509 1509 82
Width: 1100
GlyphClass: 2
Flags: W
VStem: 101 435<843.36 1009.63> 279 168<-82.7387 359> 279 143<514 659.193> 300 197<-298.068 133.92> 641 416<830.278 1019.3>
AnchorPoint: "A-63" 569.75 0 basechar 0
AnchorPoint: "A-62" 612.25 0 basechar 0
AnchorPoint: "A-61" 612.25 0 basechar 0
AnchorPoint: "A-59" 119.25 0 basechar 0
AnchorPoint: "A-21" -246.25 0 basechar 0
AnchorPoint: "A-8" 663.25 0 basechar 0
AnchorPoint: "A-20" 59.75 0 basechar 0
AnchorPoint: "A-7" 900 0 basechar 0
AnchorPoint: "A-6" 830 0 basechar 0
AnchorPoint: "A-5" 750 0 basechar 0
AnchorPoint: "A-4" 620 0 basechar 0
AnchorPoint: "A-3" 144.75 0 basechar 0
LayerCount: 2
Fore
SplineSet
320 762 m 1x28
 198 762 101 841 101 973 c 1
 101 1030 118 1083 151 1133 c 1
 228 1133 l 1
 235 1094 250 1069 285 1063 c 1
 349 1056 l 1
 469 1047 536 1000 536 916 c 0x88
 536 818 422 652 422 555 c 2
 422 546 l 1x28
 424 514 l 1
 545 624 654 705 764 773 c 1
 680 808 641 881 641 973 c 0
 641 1028 660 1083 698 1133 c 1
 785 1133 l 1
 789 1085 815 1068 847 1063 c 1
 912 1056 l 1
 914 1056 l 1
 949 1049 1057 1038 1057 924 c 0
 1057 843 1024 779 983 726 c 1
 930 726 l 1
 926 748 l 1
 921 748 919 750 905 743 c 1
 860 717 827 697 773 659 c 1
 672 568 l 2
 491 405 447 295 447 204 c 0x48
 447 92 497 -36 497 -162 c 0
 497 -320 385 -349 352 -359 c 1
 300 -342 l 1x18
 279 475 l 1
 279 479 l 2
 279 557 341 688 341 739 c 0
 341 754 332 762 320 762 c 1x28
EndSplineSet
Validated: 1
LCarets2: 1 71 
EndChar

StartChar: tsadi
Encoding: 1510 1510 83
Width: 1078
GlyphClass: 2
Flags: W
HStem: 0 295<251 691>
VStem: 126 382<831.902 1031.42> 356 134<622.509 778.717> 642 390<830.346 1026.39>
AnchorPoint: "A-63" 530.625 0 basechar 0
AnchorPoint: "A-62" 530.625 0 basechar 0
AnchorPoint: "A-61" 530.625 0 basechar 0
AnchorPoint: "A-59" 139.625 0 basechar 0
AnchorPoint: "A-21" -225.875 0 basechar 0
AnchorPoint: "A-8" 530.625 0 basechar 0
AnchorPoint: "A-20" 88.625 0 basechar 0
AnchorPoint: "A-7" 550 0 basechar 0
AnchorPoint: "A-6" 550 0 basechar 0
AnchorPoint: "A-5" 550 0 basechar 0
AnchorPoint: "A-4" 550 0 basechar 0
LayerCount: 2
Fore
SplineSet
356 730 m 1xb0
 355 761 354 780 294 780 c 0
 176 780 126 867 126 965 c 0
 126 1029 147 1065 179 1114 c 1
 256 1114 l 1
 264 1078 280 1060 313 1058 c 2
 348 1056 l 1
 473 1048 508 1027 508 914 c 0xd0
 508 862 490 766 490 722 c 0
 490 680 506 643 543 616 c 2
 618 562 l 1
 660 655 698 721 750 786 c 1
 669 819 642 893 642 965 c 0
 642 1022 665 1057 699 1112 c 1
 791 1112 l 1
 795 1084 808 1065 854 1060 c 2
 909 1056 l 2
 995 1050 1032 994 1032 909 c 0
 1032 824 997 766 961 721 c 1
 908 721 l 1
 904 743 l 2
 897 773 898 778 880 778 c 0
 868 778 776 662 776 547 c 0
 776 546 776 545 776 544 c 0
 776 494 802 450 854 409 c 2
 1000 291 l 1
 935 0 l 1
 200 0 l 1
 251 295 l 1
 691 295 l 1
 437 466 l 2
 363 516 356 567 356 593 c 0
 356 593 356 595 356 596 c 2
 356 724 l 1
 356 730 l 1xb0
EndSplineSet
Validated: 1
LCarets2: 1 75 
EndChar

StartChar: kof
Encoding: 1511 1511 84
Width: 1107
GlyphClass: 2
Flags: W
HStem: -13 21G<503 584.5> 780 276<310.94 891.486>
VStem: 204 163<-300.516 679.945> 411 240<12.6364 251.442> 902 144<511.205 770.021>
AnchorPoint: "A-63" 516.825 0 basechar 0
AnchorPoint: "A-62" 516.825 0 basechar 0
AnchorPoint: "A-61" 516.825 0 basechar 0
AnchorPoint: "A-59" 57.8252 0 basechar 0
AnchorPoint: "A-21" -307.675 0 basechar 0
AnchorPoint: "A-8" 686.825 0 basechar 0
AnchorPoint: "A-20" 40.8252 0 basechar 0
AnchorPoint: "A-7" 790 0 basechar 0
AnchorPoint: "A-6" 720 0 basechar 0
AnchorPoint: "A-5" 630 0 basechar 0
AnchorPoint: "A-4" 516.825 0 basechar 0
LayerCount: 2
Fore
SplineSet
166 943 m 0
 166 1040 213 1093 242 1126 c 1
 303 1126 l 1
 307 1105 l 2
 312 1087 322 1056 379 1056 c 2
 769 1056 l 2
 990 1056 1046 943 1046 770 c 2
 1046 677 l 2
 1046 525 1014 457 928 401 c 1
 717 276 l 1
 666 253 644 214 644 165 c 0
 644 159 644 153 645 147 c 1
 647 133 651 111 651 88 c 0
 651 40 633 -13 536 -13 c 0
 470 -13 411 33 411 96 c 0
 411 97 411 97 411 98 c 0
 413 275 517 312 649 384 c 1
 836 492 l 1
 881 520 902 562 902 620 c 2
 902 688 l 2
 902 757 887 780 757 780 c 2
 336 780 l 2
 225 780 166 847 166 943 c 0
256 -345 m 1
 204 -332 l 1
 204 548 l 2
 204 619 232 673 291 724 c 1
 320 738 343 736 367 737 c 1
 367 -240 l 1
 364 -264 365 -280 256 -345 c 1
EndSplineSet
Validated: 1
LCarets2: 1 85 
EndChar

StartChar: resh
Encoding: 1512 1512 85
Width: 993
GlyphClass: 2
Flags: W
HStem: -21 21G<791 858.5> 780 276<241.315 741.158>
VStem: 791 146<10.5519 734.176>
AnchorPoint: "A-63" 660.2 0 basechar 0
AnchorPoint: "A-62" 575.2 0 basechar 0
AnchorPoint: "A-61" 490.2 0 basechar 0
AnchorPoint: "A-59" 73.7002 0 basechar 0
AnchorPoint: "A-21" -291.8 0 basechar 0
AnchorPoint: "A-8" 626.2 0 basechar 0
AnchorPoint: "A-20" -2.7998 0 basechar 0
AnchorPoint: "A-7" 640 0 basechar 0
AnchorPoint: "A-6" 800 0 basechar 0
AnchorPoint: "A-5" 830 0 basechar 0
AnchorPoint: "A-4" 830 0 basechar 0
LayerCount: 2
Fore
SplineSet
98 943 m 0
 98 1040 145 1093 174 1126 c 1
 234 1126 l 1
 239 1106 l 2
 244 1087 255 1056 312 1056 c 2
 514 1056 l 2
 687 1056 803 1041 860 988 c 1
 917 935 937 827 937 691 c 2
 937 102 l 2
 937 28 875 -4 842 -21 c 1
 791 -4 l 1
 791 478 l 2
 791 693 788 780 584 780 c 2
 271 780 l 2
 161 780 98 847 98 943 c 0
EndSplineSet
Validated: 1
LCarets2: 1 72 
Substitution2: "'jalt' Wide Letter Alternatives in Hebrew subtable" resh.wide
EndChar

StartChar: shin
Encoding: 1513 1513 86
Width: 1402
GlyphClass: 2
Flags: W
HStem: 0 295<419.191 513.109 614 907.142>
VStem: 143 356<830.453 1016.63> 227 120<394.243 765.119> 1183 186<727.5 946>
AnchorPoint: "A-63" 675.575 0 basechar 0
AnchorPoint: "A-62" 675.575 0 basechar 0
AnchorPoint: "A-61" 675.575 0 basechar 0
AnchorPoint: "A-59" 110.325 0 basechar 0
AnchorPoint: "A-21" -255.175 0 basechar 0
AnchorPoint: "A-8" 675.575 0 basechar 0
AnchorPoint: "A-20" 42.3252 0 basechar 0
AnchorPoint: "A-7" 670 0 basechar 0
AnchorPoint: "A-6" 675.575 0 basechar 0
AnchorPoint: "A-5" 640 0 basechar 0
AnchorPoint: "A-4" 620 0 basechar 0
LayerCount: 2
Fore
SplineSet
712 1128 m 1xb0
 713 1107 722 1075 751 1069 c 2
 820 1056 l 1
 920 1031 944 972 944 900 c 2
 944 894 l 2
 944 847 905 793 862 744 c 1
 823 745 l 1
 824 753 820 757 817 760 c 1
 814 764 804 769 800 769 c 1
 752 587 697 449 614 295 c 1
 888 295 l 1
 927 392 1011 502 1147 672 c 1
 1182 718 1183 716 1183 739 c 0
 1183 810 1009 781 1009 930 c 0
 1009 998 1058 1078 1101 1128 c 1
 1179 1128 l 1
 1181 1115 1178 1068 1204 1059 c 2
 1260 1041 l 1
 1351 1009 1369 976 1369 916 c 0
 1369 715 1103 548 997 0 c 1
 338 0 l 1
 286 275 227 395 227 556 c 0xb0
 227 644 234 708 255 779 c 1
 178 813 143 885 143 954 c 0
 143 1013 159 1071 200 1131 c 1
 276 1131 l 1
 284 1104 289 1070 373 1056 c 0
 455 1041 499 986 499 904 c 0xd0
 499 833 472 779 425 726 c 1
 378 728 l 1
 374 750 l 2
 371 760 363 764 358 767 c 1
 348 713 347 668 347 594 c 0
 347 494 375 402 447 296 c 1
 489 296 l 1
 579 450 621 570 690 799 c 1
 609 835 568 900 568 971 c 0
 568 1031 609 1080 649 1128 c 1
 712 1128 l 1xb0
EndSplineSet
Validated: 1
LCarets2: 1 104 
EndChar

StartChar: tav
Encoding: 1514 1514 87
Width: 1227
GlyphClass: 2
Flags: W
HStem: 0 21G<152 516.103 997 1065.5> 782 277<529 947.784>
VStem: 319 148<296.521 682.656> 324 199<295 373.427> 997 150<16.6118 734.618>
AnchorPoint: "A-3" 700 0 basechar 0
AnchorPoint: "A-63" 649.6 0 basechar 0
AnchorPoint: "A-62" 649.6 0 basechar 0
AnchorPoint: "A-61" 649.6 0 basechar 0
AnchorPoint: "A-59" 101.35 0 basechar 0
AnchorPoint: "A-21" -242.9 0 basechar 0
AnchorPoint: "A-8" 649.6 0 basechar 0
AnchorPoint: "A-20" 135.35 0 basechar 0
AnchorPoint: "A-7" 680 0 basechar 0
AnchorPoint: "A-6" 700 0 basechar 0
AnchorPoint: "A-5" 700 0 basechar 0
AnchorPoint: "A-4" 720 0 basechar 0
LayerCount: 2
Fore
SplineSet
494 299 m 0xe8
 508 246 523 200 523 152 c 2
 523 145 l 1
 515 0 l 1
 152 0 l 1
 204 295 l 1
 324 295 l 1xd8
 319 419 l 1
 319 445 l 2
 319 563 345 665 397 749 c 1
 420 782 l 1
 308 785 259 854 259 946 c 0
 259 1054 322 1112 334 1126 c 1
 397 1126 l 1
 403 1106 l 2
 409 1087 421 1059 485 1059 c 1
 516 1057 547 1057 577 1057 c 0
 630 1057 683 1058 736 1059 c 1
 948 1059 1032 1026 1072 989 c 0
 1128 936 1147 827 1147 691 c 2
 1147 128 l 2
 1147 30 1083 -1 1048 -19 c 1
 997 0 l 1
 997 502 l 1
 997 723 955 782 833 782 c 0
 832 782 831 782 830 782 c 2
 529 776 l 1
 504 725 l 1
 479 671 467 595 467 514 c 0
 467 441 476 365 494 299 c 0xe8
EndSplineSet
Validated: 1
LCarets2: 1 91 
Substitution2: "'jalt' Wide Letter Alternatives in Hebrew subtable" tav.wide
EndChar

StartChar: geresh
Encoding: 1523 1523 91
Width: 483
GlyphClass: 2
Flags: W
HStem: 596 528<169.251 193>
VStem: 107 280<886.966 1053.49>
LayerCount: 2
Fore
SplineSet
294 789 m 2
 193 596 l 1
 107 596 l 1
 116 908 l 2
 120 1093 215 1124 281 1124 c 0
 344 1124 387 1088 387 1014 c 0
 387 972 334 866 294 789 c 2
EndSplineSet
Validated: 1
EndChar

StartChar: zerononjoin
Encoding: 8204 8204 95
Width: 0
GlyphClass: 2
Flags: W
HStem: 1195 424
VStem: -213 426
LayerCount: 2
Fore
SplineSet
0 1512 m 1
 105 1619 l 1
 213 1515 l 1
 105 1407 l 1
 213 1299 l 1
 105 1195 l 1
 0 1301 l 1
 -109 1195 l 1
 -213 1301 l 1
 -106 1407 l 1
 -213 1513 l 1
 -109 1621 l 1
 0 1512 l 1
EndSplineSet
Validated: 1
EndChar

StartChar: zerojoin
Encoding: 8205 8205 96
Width: 0
GlyphClass: 2
Flags: W
HStem: 1396 242<-254 -106 106 254> 1489 149<-106 106>
VStem: -254 148<1396 1489> 106 148<1396 1489>
LayerCount: 2
Fore
SplineSet
106 1489 m 1x70
 -106 1489 l 1x70
 -106 1396 l 1
 -254 1396 l 1
 -254 1638 l 1
 254 1638 l 1
 254 1396 l 1
 106 1396 l 1xb0
 106 1489 l 1x70
EndSplineSet
Validated: 1
EndChar

StartChar: lrm
Encoding: 8206 8206 97
Width: 0
GlyphClass: 2
Flags: W
HStem: 1340 149<-236 -50>
VStem: -236 472
LayerCount: 2
Fore
SplineSet
-82 1520 m 1
 22 1628 l 1
 236 1414 l 1
 22 1200 l 1
 -82 1308 l 1
 -49 1340 l 1
 -236 1340 l 1
 -236 1489 l 1
 -50 1489 l 1
 -82 1520 l 1
EndSplineSet
Validated: 1
EndChar

StartChar: rlm
Encoding: 8207 8207 98
Width: 0
GlyphClass: 2
Flags: W
HStem: 1332 149<50 236>
VStem: -236 472
LayerCount: 2
Fore
SplineSet
82 1301 m 1
 -22 1193 l 1
 -236 1407 l 1
 -22 1621 l 1
 82 1513 l 1
 49 1481 l 1
 236 1481 l 1
 236 1332 l 1
 50 1332 l 1
 82 1301 l 1
EndSplineSet
Validated: 1
EndChar

StartChar: quoteleft
Encoding: 8216 8216 99
Width: 385
GlyphClass: 2
Flags: W
HStem: 826 550
VStem: 48 156<942 1161.39>
LayerCount: 2
Fore
SplineSet
192 826 m 0
 99 826 48 894 48 990 c 0
 48 1141 132 1244 275 1359 c 2
 295 1376 l 1
 355 1310 l 1
 335 1292 l 2
 299 1259 271 1233 252 1214 c 1
 225 1182 213 1160 208 1144 c 0
 204 1131 204 1119 204 1109 c 0
 204 1083 212 1084 218 1084 c 0
 222 1083 228 1084 241 1080 c 0
 274 1069 320 1028 320 958 c 0
 320 883 260 826 192 826 c 0
EndSplineSet
Validated: 1
EndChar

StartChar: quoteright
Encoding: 8217 8217 100
Width: 384
GlyphClass: 2
Flags: W
HStem: 816 550
VStem: 188 156<1030.52 1250>
LayerCount: 2
Fore
SplineSet
200 1366 m 0
 293 1366 344 1298 344 1202 c 0
 344 1051 260 948 117 833 c 2
 97 816 l 1
 37 882 l 1
 57 900 l 2
 93 933 120 960 140 980 c 1
 166 1011 179 1033 184 1048 c 0
 188 1061 188 1073 188 1083 c 0
 188 1109 180 1108 174 1108 c 0
 164 1109 163 1109 157 1111 c 0
 114 1121 72 1165 72 1232 c 0
 72 1307 131 1366 200 1366 c 0
EndSplineSet
Validated: 1
EndChar

StartChar: quotesinglbase
Encoding: 8218 8218 101
Width: 384
GlyphClass: 2
Flags: W
HStem: -318 550
VStem: 182 154<-103.96 116>
LayerCount: 2
Fore
SplineSet
193 232 m 0
 286 232 336 164 336 68 c 0
 336 -83 253 -186 110 -301 c 2
 90 -318 l 1
 30 -252 l 1
 50 -234 l 2
 86 -201 113 -174 133 -154 c 1
 159 -123 172 -101 177 -86 c 0
 181 -73 182 -61 182 -51 c 0
 182 -28 172 -28 165 -28 c 0
 162 -27 152 -28 136 -21 c 0
 110 -10 66 29 66 100 c 0
 66 175 125 232 193 232 c 0
EndSplineSet
Validated: 1
EndChar

StartChar: newshekel
Encoding: 8362 8362 105
Width: 1024
GlyphClass: 2
Flags: W
HStem: 0 128<512.596 804> 936 120<230 521.934>
VStem: 37 193<0 936> 292 182<164.614 780> 540 195<296 915.912> 804 198<128 1056>
LayerCount: 2
Fore
SplineSet
735 296 m 1
 540 296 l 1
 540 780 l 2
 540 782 540 784 540 786 c 0
 540 823 538 886 506 910 c 0
 475 933 428 936 368 936 c 1
 230 936 l 1
 230 0 l 1
 37 0 l 1
 37 1056 l 1
 384 1056 l 2
 414 1056 443 1057 470 1057 c 0
 547 1057 611 1052 657 1018 c 0
 687 995 735 936 735 818 c 2
 735 813 l 1
 735 296 l 1
288 780 m 1
 474 780 l 1
 474 268 l 1
 474 196 492 177 512 164 c 0
 524 156 582 128 664 128 c 2
 804 128 l 1
 804 1056 l 1
 1002 1056 l 1
 1002 0 l 1
 650 0 l 2
 533 0 438 19 377 66 c 0
 315 112 292 154 292 240 c 2
 288 780 l 1
EndSplineSet
Validated: 1
EndChar

StartChar: Euro
Encoding: 8364 8364 106
Width: 1024
GlyphClass: 2
Flags: W
HStem: -54 122<469.86 727.311> 426 116<80 132 348 760> 554 118<80 132 355 800> 1016 110<483.473 737.754>
VStem: 139 209<227.391 426 542 554 672 805.247> 815 83<762 927.816>
LayerCount: 2
Fore
SplineSet
599 1126 m 0
 695 1126 790 1102 884 1053 c 2
 898 1046 l 1
 898 762 l 1
 815 762 l 1
 815 788 l 2
 802 942 732 1016 598 1016 c 0
 420 1016 370 780 355 672 c 1
 834 672 l 1
 800 554 l 1
 346 554 l 1
 345 550 345 546 345 542 c 1
 796 542 l 1
 760 426 l 1
 348 426 l 1
 362 219 445 68 578 68 c 0
 720 68 776 140 845 236 c 2
 860 257 l 1
 930 212 l 1
 915 189 l 2
 835 63 741 -54 546 -54 c 0
 307 -54 168 133 139 426 c 1
 46 426 l 1
 80 542 l 1
 132 542 l 1
 132 546 132 550 132 554 c 1
 46 554 l 1
 80 672 l 1
 145 672 l 1
 188 918 340 1126 599 1126 c 0
EndSplineSet
Validated: 1
EndChar

StartChar: dottedcircle
Encoding: 9676 9676 107
Width: 1150
GlyphClass: 2
Flags: W
HStem: -40 198<547.786 697.44> 20 198<348.786 498.44 746.786 896.44> 194 198<200.786 350.44 894.786 1044.44> 428 198<149.786 299.44 945.786 1095.44> 662 198<200.786 350.44 894.786 1044.44> 836 198<348.786 498.44 746.786 896.44> 896 198<547.786 697.44>
VStem: 135 179<441.164 613.021> 186 179<207.631 379.022 675.631 847.021> 334 179<33.6309 205.021 849.631 1021.02> 533 179<-26.8356 145.021 909.164 1081.02> 732 179<33.6309 205.021 849.631 1021.02> 880 179<207.631 379.022 675.631 847.021> 931 179<441.164 613.021>
AnchorPoint: "A-63" 656.075 0 basechar 0
AnchorPoint: "A-62" 656.075 0 basechar 0
AnchorPoint: "A-61" 656.075 0 basechar 0
AnchorPoint: "A-59" 93.375 0 basechar 0
AnchorPoint: "A-21" -272.125 0 basechar 0
AnchorPoint: "A-8" 622.075 0 basechar 0
AnchorPoint: "A-60" 622.075 0 basechar 0
AnchorPoint: "A-20" 25.375 0 basechar 0
AnchorPoint: "A-7" 622.075 0 basechar 0
AnchorPoint: "A-6" 622.075 0 basechar 0
AnchorPoint: "A-5" 600 0 basechar 0
AnchorPoint: "A-4" 622.075 0 basechar 0
AnchorPoint: "A-3" 622.075 0 basechar 0
LayerCount: 2
Fore
SplineSet
622 158 m 1x9020
 683 156 712 107 712 58 c 0
 712 9 682 -40 622 -40 c 1
 562 -38 533 12 533 60 c 0
 533 109 563 158 622 158 c 1x9020
821 218 m 1x5030
 882 216 911 167 911 118 c 0
 911 69 881 20 821 20 c 1
 761 23 732 72 732 121 c 0
 732 170 762 218 821 218 c 1x5030
1020 626 m 1
 1081 624 1110 575 1110 526 c 0
 1110 477 1080 428 1020 428 c 1
 960 430 931 480 931 528 c 0x1024
 931 577 961 626 1020 626 c 1
969 860 m 1x1828
 1030 858 1059 809 1059 760 c 0
 1059 711 1029 662 969 662 c 1
 909 665 880 714 880 763 c 0
 880 812 910 860 969 860 c 1x1828
622 1094 m 1x1220
 683 1092 712 1043 712 994 c 0
 712 945 682 896 622 896 c 1
 562 898 533 948 533 996 c 0
 533 1045 563 1094 622 1094 c 1x1220
224 626 m 1
 285 624 314 575 314 526 c 0
 314 477 284 428 224 428 c 1
 164 430 135 480 135 528 c 0x1120
 135 577 165 626 224 626 c 1
969 392 m 1x3028
 1030 390 1059 341 1059 292 c 0
 1059 243 1029 194 969 194 c 1
 909 197 880 246 880 295 c 0
 880 344 910 392 969 392 c 1x3028
275 860 m 1x18a0
 336 858 365 809 365 760 c 0
 365 711 335 662 275 662 c 1
 215 665 186 714 186 763 c 0
 186 812 216 860 275 860 c 1x18a0
275 392 m 1x30a0
 336 390 365 341 365 292 c 0
 365 243 335 194 275 194 c 1
 215 197 186 246 186 295 c 0
 186 344 216 392 275 392 c 1x30a0
423 1034 m 1x1460
 484 1032 513 983 513 934 c 0
 513 885 483 836 423 836 c 1
 363 839 334 888 334 937 c 0
 334 986 364 1034 423 1034 c 1x1460
821 1034 m 1
 882 1032 911 983 911 934 c 0
 911 885 881 836 821 836 c 1
 761 839 732 888 732 937 c 0x1430
 732 986 762 1034 821 1034 c 1
423 218 m 1x5060
 484 216 513 167 513 118 c 0
 513 69 483 20 423 20 c 1
 363 23 334 72 334 121 c 0
 334 170 364 218 423 218 c 1x5060
EndSplineSet
Validated: 1
LCarets2: 1 93 
EndChar

StartChar: yodyodpatah
Encoding: 64287 64287 110
Width: 1029
GlyphClass: 2
Flags: W
HStem: 258 150<132 921> 783 277<202.731 311.229 658.941 775.299>
VStem: 66 412<841.637 1010.49> 312 166<588.32 782.496> 501 418<848.389 1016.48> 776 143<577.625 782.46>
AnchorPoint: "A-7" 510 0 basechar 0
AnchorPoint: "A-6" 507 0 basechar 0
AnchorPoint: "A-5" 513 0 basechar 0
AnchorPoint: "A-63" 520 0 basechar 0
AnchorPoint: "A-62" 520 0 basechar 0
AnchorPoint: "A-61" 520 0 basechar 0
AnchorPoint: "A-59" 0 0 basechar 0
AnchorPoint: "A-21" -430 0 basechar 0
AnchorPoint: "A-8" 510 0 basechar 0
AnchorPoint: "A-20" -70 0 basechar 0
AnchorPoint: "A-4" 510 0 basechar 0
LayerCount: 2
Fore
SplineSet
732 442 m 1xc4
 663 512 l 1
 690 530 l 1
 760 580 776 620 776 701 c 2
 776 737 l 1xc4
 776 768 776 783 715 783 c 0
 572 783 501 867 501 974 c 0
 501 1024 522 1054 561 1112 c 1
 652 1112 l 1
 657 1076 687 1060 727 1060 c 1
 762 1056 l 1
 832 1056 919 1035 919 867 c 2xc8
 919 791 l 2
 919 618 860 508 751 452 c 2
 732 442 l 1xc4
268 442 m 1
 206 512 l 1
 230 530 l 2
 296 580 312 620 312 701 c 2
 312 737 l 1
 312 740 l 0xd0
 312 769 311 783 251 783 c 0
 128 783 66 867 66 974 c 0
 66 1024 87 1054 120 1111 c 1
 199 1111 l 1
 203 1076 229 1060 265 1060 c 1
 300 1056 l 1
 379 1056 478 1035 478 867 c 2xe0
 478 791 l 2xd0
 478 618 409 508 287 452 c 1
 268 442 l 1
921 258 m 1
 132 258 l 1
 132 408 l 1
 921 408 l 1
 921 258 l 1
EndSplineSet
Validated: 1
EndChar

StartChar: ayin.alt
Encoding: 64288 64288 111
Width: 1030
GlyphClass: 2
Flags: W
VStem: 84 388<839.686 1000.27> 220 132<617.17 755.677> 384 128<278 414.455> 593 389<829.092 1015.55> 797 12<295 727>
AnchorPoint: "A-63" 432.65 0 basechar 0
AnchorPoint: "A-62" 432.65 0 basechar 0
AnchorPoint: "A-61" 432.65 0 basechar 0
AnchorPoint: "A-59" 16.1504 0 basechar 0
AnchorPoint: "A-21" -349.35 0 basechar 0
AnchorPoint: "A-8" 432.65 0 basechar 0
AnchorPoint: "A-20" 16.1504 0 basechar 0
AnchorPoint: "A-7" 450 0 basechar 0
AnchorPoint: "A-6" 450 0 basechar 0
AnchorPoint: "A-5" 450 0 basechar 0
AnchorPoint: "A-4" 451 0 basechar 0
AnchorPoint: "A-3" 583 89 basechar 0
LayerCount: 2
Fore
SplineSet
512 278 m 1x60
 665 296 636 315 664 388 c 1
 708 559 797 673 797 727 c 0x68
 797 739 792 749 780 755 c 0
 768 761 593 784 593 948 c 0
 593 1021 627 1080 663 1131 c 1
 737 1131 l 1
 742 1110 l 2
 747 1089 756 1077 764 1071 c 0
 817 1038 982 1067 982 920 c 0x10
 982 771 809 636 809 295 c 0
 809 197 774 7 473 7 c 1
 70 -37 l 1
 116 234 l 1
 384 264 l 1
 384 505 220 385 220 640 c 0x68
 220 677 225 718 235 781 c 1
 135 807 84 870 84 948 c 0
 84 1029 108 1079 135 1131 c 1
 200 1131 l 1
 206 1110 l 2
 213 1078 231 1056 266 1052 c 1
 312 1052 l 2
 407 1052 472 968 472 894 c 0x80
 472 814 440 792 410 758 c 1
 352 758 l 1
 352 687 353 634 393 610 c 0
 478 562 513 497 513 434 c 0
 513 427 512 421 512 414 c 2
 512 278 l 1x60
EndSplineSet
Validated: 1
LCarets2: 1 77 
EndChar

StartChar: alef.wide
Encoding: 64289 64289 112
Width: 792
GlyphClass: 2
Flags: W
HStem: -18 21G<1501.4 1595.5> 0 73<237 257> 803 241<1514.83 1618.2>
VStem: 204 197<372.801 525.107> 218 150<1001.23 1093.34> 297 264<76.7686 235.71> 1242 410<849.889 1008.02> 1288 140<458.809 721.643>
AnchorPoint: "A-63" 893.6 0 basechar 0
AnchorPoint: "A-62" 893.6 0 basechar 0
AnchorPoint: "A-61" 893.6 0 basechar 0
AnchorPoint: "A-59" 103.1 0 basechar 0
AnchorPoint: "A-21" -262.4 0 basechar 0
AnchorPoint: "A-8" 893.6 0 basechar 0
AnchorPoint: "A-20" 111.6 0 basechar 0
AnchorPoint: "A-7" 920 0 basechar 0
AnchorPoint: "A-6" 930 0 basechar 0
AnchorPoint: "A-5" 900 0 basechar 0
AnchorPoint: "A-4" 893.6 0 basechar 0
AnchorPoint: "A-3" 910.6 -450 basechar 0
LayerCount: 2
Fore
SplineSet
1654 155 m 0x61
 1654 86 1625 35 1566 -18 c 1
 1503 -18 l 1
 1501 7 l 2
 1498 51 1484 87 1460 116 c 1
 1141 256 822 426 506 625 c 1
 447 589 401 545 401 492 c 0xb1
 401 380 561 257 561 124 c 0
 561 18 497 0 454 0 c 2
 237 0 l 1
 237 73 l 1
 257 78 l 2
 293 87 297 106 297 119 c 0x64
 297 171 204 304 204 395 c 0x70
 204 506 292 595 418 675 c 1
 305 767 l 1
 257 819 218 884 218 961 c 0x68
 218 1031 253 1089 297 1135 c 1x64
 368 1135 l 1
 374 1092 376 1042 416 997 c 1
 606 766 904 569 1310 409 c 1
 1295 456 1288 502 1288 546 c 0x69
 1288 642 1315 714 1379 788 c 1
 1287 818 1242 891 1242 981 c 0
 1242 1031 1260 1069 1298 1119 c 1
 1375 1119 l 1
 1384 1090 1402 1071 1435 1063 c 2
 1521 1044 l 2
 1611 1023 1652 987 1652 911 c 0x62
 1652 889 1646 855 1628 803 c 1
 1597 793 1573 789 1512 788 c 1
 1449 691 1428 629 1428 572 c 0
 1428 529 1443 491 1475 455 c 2
 1568 352 l 1
 1624 291 1654 224 1654 155 c 0x61
EndSplineSet
Validated: 1
LCarets2: 1 137 
EndChar

StartChar: dalet.wide
Encoding: 64290 64290 113
Width: 1648
GlyphClass: 2
Flags: W
HStem: -27 21G<1253.43 1312> 780 276<293.643 1367>
VStem: 1257 183<158.001 685.195> 1266 196<42.9474 503.83>
AnchorPoint: "A-63" 1180.22 0 basechar 0
AnchorPoint: "A-62" 1095.22 0 basechar 0
AnchorPoint: "A-61" 1010.22 0 basechar 0
AnchorPoint: "A-59" 109.225 0 basechar 0
AnchorPoint: "A-21" -256.275 0 basechar 0
AnchorPoint: "A-8" 1120.72 0 basechar 0
AnchorPoint: "A-20" 24.2246 0 basechar 0
AnchorPoint: "A-7" 1200 0 basechar 0
AnchorPoint: "A-6" 1229 0 basechar 0
AnchorPoint: "A-5" 1273.72 0 basechar 0
AnchorPoint: "A-4" 1320 0 basechar 0
AnchorPoint: "A-3" 746.725 0 basechar 0
LayerCount: 2
Fore
SplineSet
149 941 m 0xe0
 149 1052 206 1105 226 1126 c 1
 285 1126 l 1
 290 1106 l 2
 297 1078 313 1056 362 1056 c 2
 1441 1056 l 2
 1544 1056 1593 1025 1593 919 c 0
 1593 784 1529 809 1470 714 c 0
 1450 682 1440 643 1440 594 c 0xe0
 1440 489 1462 302 1462 192 c 0
 1462 16 1352 -15 1272 -27 c 1
 1233 15 l 1
 1245 32 1266 53 1266 113 c 0xd0
 1266 237 1257 330 1257 423 c 0
 1257 577 1282 694 1367 780 c 1
 305 780 l 2
 181 780 149 852 149 941 c 0xe0
EndSplineSet
Validated: 1
LCarets2: 1 123 
EndChar

StartChar: he.wide
Encoding: 64291 64291 114
Width: 1791
GlyphClass: 2
Flags: W
HStem: 780 276<410.587 1562>
VStem: 273 191<21.2344 455.529> 1491 157<228.168 728.422> 1507 187<35.1976 510.672>
AnchorPoint: "A-63" 934.875 0 basechar 0
AnchorPoint: "A-62" 934.875 0 basechar 0
AnchorPoint: "A-61" 934.875 0 basechar 0
AnchorPoint: "A-59" 152.875 0 basechar 0
AnchorPoint: "A-21" -212.625 0 basechar 0
AnchorPoint: "A-8" 917.875 0 basechar 0
AnchorPoint: "A-20" 152.875 0 basechar 0
AnchorPoint: "A-7" 950 0 basechar 0
AnchorPoint: "A-6" 970 0 basechar 0
AnchorPoint: "A-5" 960 0 basechar 0
AnchorPoint: "A-4" 917.875 0 basechar 0
AnchorPoint: "A-3" 917.875 0 basechar 0
LayerCount: 2
Fore
SplineSet
267 943 m 0xe0
 267 1053 326 1105 345 1126 c 1
 405 1126 l 1
 409 1106 l 2
 417 1077 432 1056 476 1056 c 2
 1564 1053 l 2
 1690 1053 1722 1007 1722 916 c 2
 1722 870 l 2
 1722 778 1648 792 1648 602 c 0xe0
 1648 482 1694 326 1694 189 c 0
 1694 -7 1561 -23 1513 -30 c 1
 1476 18 l 1
 1490 41 1507 67 1507 120 c 0xd0
 1507 200 1491 374 1491 458 c 0
 1491 591 1506 691 1562 777 c 1
 428 780 l 2
 348 780 267 813 267 943 c 0xe0
518 464 m 2
 518 464 464 447 464 322 c 0
 464 282 472 166 472 126 c 0
 472 -1 373 -27 280 -33 c 1
 246 21 l 1
 261 36 l 2
 268 44 279 58 279 90 c 0
 279 164 273 238 273 278 c 0
 273 425 333 541 455 541 c 0
 481 541 494 534 518 522 c 1
 518 464 l 2
EndSplineSet
Validated: 1
LCarets2: 1 137 
EndChar

StartChar: kaf.wide
Encoding: 64292 64292 115
Width: 1598
GlyphClass: 2
Flags: W
HStem: 0 296<274 1339.33> 781 275<360.118 1350.22>
VStem: 1401 132<349.842 726.169>
AnchorPoint: "A-63" 746.525 0 basechar 0
AnchorPoint: "A-62" 746.525 0 basechar 0
AnchorPoint: "A-61" 746.525 0 basechar 0
AnchorPoint: "A-59" 100.525 0 basechar 0
AnchorPoint: "A-21" -264.975 0 basechar 0
AnchorPoint: "A-8" 746.525 0 basechar 0
AnchorPoint: "A-20" 83.5254 0 basechar 0
AnchorPoint: "A-7" 760 0 basechar 0
AnchorPoint: "A-6" 746.525 0 basechar 0
AnchorPoint: "A-5" 850 0 basechar 0
AnchorPoint: "A-4" 746.525 0 basechar 0
AnchorPoint: "A-3" 763.525 0 basechar 0
LayerCount: 2
Fore
SplineSet
1533 538 m 0
 1533 165 1450 0 1081 0 c 2
 171 0 l 1
 274 296 l 1
 1201 296 l 1
 1348 296 1401 343 1401 516 c 2
 1401 523 l 2
 1401 709 1364 781 1209 781 c 2
 384 781 l 2
 279 781 213 848 213 946 c 0
 213 1041 260 1092 289 1126 c 1
 350 1126 l 1
 355 1106 l 2
 361 1078 379 1056 428 1056 c 2
 1182 1056 l 2
 1395 1056 1533 916 1533 538 c 0
EndSplineSet
Validated: 1
LCarets2: 1 121 
EndChar

StartChar: lamed.wide
Encoding: 64293 64293 116
Width: 1559
GlyphClass: 2
Flags: W
HStem: -22 21G<1085.5 1115> 781 275<328.708 1373.82>
VStem: 192 135<904.5 1177.75> 1006 193<-7.17495 218.546> 1378 143<515.458 774.197>
AnchorPoint: "A-63" 945.75 0 basechar 0
AnchorPoint: "A-62" 945.75 0 basechar 0
AnchorPoint: "A-61" 945.75 0 basechar 0
AnchorPoint: "A-59" 155.25 0 basechar 0
AnchorPoint: "A-21" -210.25 0 basechar 0
AnchorPoint: "A-8" 1030.75 0 basechar 0
AnchorPoint: "A-20" -132.9 -90 basechar 0
AnchorPoint: "A-7" 1030.75 0 basechar 0
AnchorPoint: "A-6" 1030.75 0 basechar 0
AnchorPoint: "A-5" 1090 0 basechar 0
AnchorPoint: "A-4" 1100 0 basechar 0
AnchorPoint: "A-3" 767.25 0 basechar 0
LayerCount: 2
Fore
SplineSet
130 1402 m 0
 130 1420 141 1498 189 1568 c 1
 252 1568 l 1
 256 1544 l 2
 256 1542 257 1530 281 1520 c 2
 319 1505 l 2
 370 1484 401 1450 401 1402 c 0
 401 1386 362 1251 357 1232 c 2
 343 1180 l 1
 332 1154 327 1133 327 1115 c 0
 327 1074 356 1056 408 1056 c 2
 1286 1056 l 2
 1352 1056 1407 1040 1448 1005 c 1
 1492 964 1521 900 1521 799 c 2
 1521 693 l 2
 1521 605 1502 534 1456 485 c 2
 1265 277 l 1
 1219 230 1199 187 1199 148 c 0
 1199 136 1206 108 1206 78 c 0
 1206 40 1195 -1 1144 -17 c 0
 1134 -20 1122 -22 1108 -22 c 0
 1063 -22 1006 -0 1006 85 c 0
 1006 195 1106 300 1171 360 c 1
 1324 504 l 1
 1363 544 1378 592 1378 644 c 2
 1378 702 l 2
 1378 771 1366 781 1217 781 c 2
 375 781 l 2
 258 781 192 852 192 957 c 0
 192 1017 205 1085 230 1158 c 2
 259 1243 l 2
 268 1270 269 1278 244 1291 c 2
 189 1318 l 1
 165 1330 130 1351 130 1402 c 0
EndSplineSet
Validated: 1
LCarets2: 1 113 
EndChar

StartChar: finalmem.wide
Encoding: 64294 64294 117
Width: 1726
GlyphClass: 2
Flags: W
HStem: 0 296<369 1500> 780 279<495 1465.73>
VStem: 222 147<296 669.458> 1500 140<296 740.934>
AnchorPoint: "A-63" 843.3 0 basechar 0
AnchorPoint: "A-62" 843.3 0 basechar 0
AnchorPoint: "A-61" 843.3 0 basechar 0
AnchorPoint: "A-59" 95.2998 0 basechar 0
AnchorPoint: "A-21" -270.2 0 basechar 0
AnchorPoint: "A-8" 843.3 0 basechar 0
AnchorPoint: "A-20" 61.2998 0 basechar 0
AnchorPoint: "A-7" 900 0 basechar 0
AnchorPoint: "A-6" 900 0 basechar 0
AnchorPoint: "A-5" 900 0 basechar 0
AnchorPoint: "A-4" 900 0 basechar 0
AnchorPoint: "A-3" 860.3 0 basechar 0
LayerCount: 2
Fore
SplineSet
202 945 m 0
 202 1042 247 1092 278 1126 c 1
 338 1126 l 1
 343 1106 l 2
 350 1077 367 1059 412 1059 c 2
 1236 1059 l 2
 1390 1059 1506 1041 1563 988 c 0
 1602 951 1640 876 1640 692 c 2
 1640 0 l 1
 222 0 l 1
 222 540 l 2
 222 604 251 656 290 699 c 2
 363 780 l 1
 350 780 l 2
 212 780 202 874 202 945 c 0
1283 780 m 2
 495 780 l 1
 406 670 l 2
 377 634 367 587 367 531 c 2
 369 296 l 1
 1500 296 l 1
 1500 501 l 1
 1499 645 1492 686 1471 729 c 0
 1452 767 1357 780 1283 780 c 2
EndSplineSet
Validated: 1
LCarets2: 1 132 
EndChar

StartChar: resh.wide
Encoding: 64295 64295 118
Width: 1594
GlyphClass: 2
Flags: W
HStem: -21 21G<1389 1456.5> 781 278<285.686 1334.88>
VStem: 1389 146<10.5519 724.416>
AnchorPoint: "A-63" 1269.35 0 basechar 0
AnchorPoint: "A-62" 1184.35 0 basechar 0
AnchorPoint: "A-61" 1099.35 0 basechar 0
AnchorPoint: "A-59" 147.35 0 basechar 0
AnchorPoint: "A-21" -218.15 0 basechar 0
AnchorPoint: "A-8" 1235.35 0 basechar 0
AnchorPoint: "A-20" 70.8496 0 basechar 0
AnchorPoint: "A-7" 1200 0 basechar 0
AnchorPoint: "A-6" 1350 0 basechar 0
AnchorPoint: "A-5" 1400 0 basechar 0
AnchorPoint: "A-4" 1430 0 basechar 0
AnchorPoint: "A-3" 784.85 0 basechar 0
LayerCount: 2
Fore
SplineSet
144 943 m 0
 144 1040 191 1093 220 1126 c 1
 280 1126 l 1
 285 1106 l 2
 292 1078 309 1056 358 1056 c 2
 1131 1059 l 2
 1135 1059 1139 1059 1142 1059 c 0
 1291 1059 1402 1040 1458 988 c 0
 1497 951 1535 876 1535 691 c 2
 1535 102 l 2
 1535 28 1473 -4 1440 -21 c 1
 1389 -4 l 1
 1389 478 l 2
 1389 678 1378 719 1310 754 c 0
 1281 769 1242 781 1192 781 c 2
 316 781 l 2
 206 781 144 847 144 943 c 0
EndSplineSet
Validated: 1
LCarets2: 1 118 
EndChar

StartChar: tav.wide
Encoding: 64296 64296 119
Width: 1839
GlyphClass: 2
Flags: W
HStem: 0 3G<205 563.103 1637 1710.5> 780 279<460.047 475 573 1574.16>
VStem: 373 133<295.243 689.329> 1637 150<19.5123 710.944>
AnchorPoint: "A-63" 999.67 0 basechar 0
AnchorPoint: "A-62" 999.67 0 basechar 0
AnchorPoint: "A-61" 999.67 0 basechar 0
AnchorPoint: "A-59" 141.175 0 basechar 0
AnchorPoint: "A-21" -203.075 0 basechar 0
AnchorPoint: "A-8" 999.67 0 basechar 0
AnchorPoint: "A-20" 175.175 0 basechar 0
AnchorPoint: "A-7" 1050 0 basechar 0
AnchorPoint: "A-6" 1050 0 basechar 0
AnchorPoint: "A-5" 1060 0 basechar 0
AnchorPoint: "A-4" 1050 0 basechar 0
AnchorPoint: "A-3" 999.67 0 basechar 0
LayerCount: 2
Fore
SplineSet
373 450 m 0
 373 567 396 668 452 750 c 1
 475 780 l 1
 366 784 314 854 314 946 c 0
 314 1054 375 1109 391 1126 c 1
 452 1126 l 1
 457 1106 l 2
 462 1087 474 1059 534 1059 c 2
 1385 1060 l 2
 1539 1060 1655 1042 1711 990 c 0
 1767 937 1787 828 1787 692 c 2
 1787 129 l 2
 1787 41 1734 6 1687 -18 c 1
 1637 0 l 1
 1637 502 l 2
 1637 698 1576 738 1553 752 c 0
 1521 771 1483 780 1408 780 c 2
 573 780 l 1
 543 727 l 2
 516 679 506 622 506 562 c 0
 506 474 528 380 549 298 c 0
 563 242 570 190 570 152 c 2
 570 145 l 1
 562 0 l 1
 205 0 l 1
 270 295 l 1
 381 295 l 1
 381 295 373 444 373 450 c 0
EndSplineSet
Validated: 1
LCarets2: 1 143 
EndChar

StartChar: hebrewplussign
Encoding: 64297 64297 120
Width: 1173
GlyphClass: 2
Flags: W
HStem: 402 142<171 554 703 1085>
VStem: 554 149<544 974>
LayerCount: 2
Fore
SplineSet
1085 402 m 1
 171 402 l 1
 171 544 l 1
 554 544 l 1
 554 974 l 1
 703 974 l 1
 703 544 l 1
 1085 544 l 1
 1085 402 l 1
EndSplineSet
Validated: 1
EndChar

StartChar: aleflamed
Encoding: 64335 64335 153
Width: 1148
GlyphClass: 3
Flags: W
HStem: -16 21G<922.4 1015>
VStem: 20 282<1330.21 1504.78> 86 137<905.5 1192.02> 656 417<830.618 992.351>
AnchorPoint: "A-63" 874 0 basechar 0
AnchorPoint: "A-62" 1034 0 basechar 0
AnchorPoint: "A-61" 1094 0 basechar 0
AnchorPoint: "A-20" 154 0 basechar 0
AnchorPoint: "A-7" 636 0 basechar 0
AnchorPoint: "A-6" 600 0 basechar 0
AnchorPoint: "A-5" 680 0 basechar 0
AnchorPoint: "A-4" 634 0 basechar 0
LayerCount: 2
Fore
SplineSet
940 759 m 1xb0
 934 764 921 770 907 773 c 1
 883 687 l 2
 870 637 855 605 855 561 c 0
 855 520 868 483 896 448 c 2
 982 343 l 2
 1038 275 1073 211 1073 155 c 0
 1073 86 1043 36 987 -16 c 1
 924 -16 l 1
 922 9 l 2
 919 53 892 93 875 115 c 1
 434 650 l 1
 344 734 l 1
 334 746 309 773 258 773 c 2
 228 773 l 2
 143 773 86 852 86 959 c 0xb0
 86 1027 98 1094 120 1160 c 2
 149 1245 l 2
 158 1272 159 1280 134 1293 c 2
 79 1320 l 1
 55 1332 20 1353 20 1404 c 0xd0
 20 1424 37 1518 86 1590 c 1xb0
 149 1590 l 1
 154 1570 l 2
 157 1557 164 1548 177 1543 c 2
 218 1527 l 2
 270 1506 302 1472 302 1424 c 0xd0
 302 1413 264 1298 247 1232 c 2
 233 1182 l 2
 228 1163 223 1137 223 1114 c 0
 223 1083 231 1057 256 1057 c 2
 309 1057 l 2
 359 1057 403 1023 441 978 c 2
 730 624 l 1
 738 666 754 715 790 776 c 1
 685 808 656 880 656 972 c 0
 656 1047 682 1093 716 1137 c 1
 786 1137 l 1
 792 1116 l 2
 798 1093 832 1059 874 1055 c 0
 1030 1041 1073 955 1073 889 c 0
 1073 814 1044 756 1000 702 c 1
 945 702 l 1
 948 723 952 743 940 759 c 1xb0
EndSplineSet
Validated: 1
Ligature2: "'ccmp' Alef Lamed Ligature subtable" alef cgj lamed
Ligature2: "'ccmp' Alef Lamed Ligature subtable" alef .null lamed
LCarets2: 2 0 0 
Ligature2: "'ccmp' Alef Lamed Ligature subtable" alef zerojoin lamed
EndChar

StartChar: hatafsegol_meteg
Encoding: 65542 -1 159
Width: 0
GlyphClass: 4
Flags: W
HStem: -590 220<-279.296 -122.557 241.088 397.062> -336 220<-397.804 -240.624 -161.296 -4.55658 241.088 397.062>
VStem: -416 194<-318.484 -133.02> -298 194<-572.98 -386.771> -180 194<-318.98 -132.771> 60 106<-573 -130> 222 194<-573.275 -387.771 -319.275 -133.771>
AnchorPoint: "A-7" -6.25 0 mark 0
LayerCount: 2
Fore
SplineSet
166 -575 m 1xc6
 60 -573 l 1
 60 -128 l 1
 166 -130 l 1
 166 -575 l 1xc6
320 -590 m 0
 260 -590 222 -540 222 -481 c 0
 222 -418 263 -371 320 -371 c 0
 378 -371 416 -421 416 -481 c 0
 416 -543 376 -590 320 -590 c 0
320 -336 m 0
 260 -336 222 -286 222 -227 c 0
 222 -164 263 -117 320 -117 c 0
 378 -117 416 -167 416 -227 c 0
 416 -289 376 -336 320 -336 c 0
-83 -116 m 0
 -25 -116 14 -166 14 -226 c 0
 14 -288 -27 -336 -83 -336 c 0
 -143 -336 -180 -285 -180 -226 c 0xce
 -180 -163 -139 -116 -83 -116 c 0
-201 -370 m 0
 -143 -370 -104 -420 -104 -480 c 0
 -104 -542 -145 -590 -201 -590 c 0
 -261 -590 -298 -539 -298 -480 c 0xd6
 -298 -417 -257 -370 -201 -370 c 0
-320 -116 m 0
 -260 -116 -222 -167 -222 -226 c 0
 -222 -288 -263 -336 -320 -336 c 0
 -378 -336 -416 -286 -416 -226 c 0xe6
 -416 -164 -376 -116 -320 -116 c 0
EndSplineSet
Validated: 1
Ligature2: "'ccmp' Hataf CGJ Meteg substitutions subtable" hatafsegol cgj meteg
Ligature2: "'ccmp' Hataf CGJ Meteg substitutions subtable" hatafsegol .null meteg
Ligature2: "'ccmp' Hataf CGJ Meteg substitutions subtable" hatafsegol zerojoin meteg
LCarets2: 2 0 0 
EndChar

StartChar: hatafpatah_meteg
Encoding: 65543 -1 160
Width: 0
GlyphClass: 4
Flags: W
HStem: -587 219<178.013 335.082> -333 219<178.013 335.082> -262 125<-352 -39>
VStem: 19 94<-573 -130> 159 195<-570.275 -384.771 -316.275 -130.771>
AnchorPoint: "A-7" -1.97461 0 mark 0
LayerCount: 2
Fore
SplineSet
-39 -262 m 1xb8
 -354 -262 l 1
 -352 -137 l 1
 -37 -137 l 1
 -39 -262 l 1xb8
113 -573 m 1
 19 -575 l 1
 19 -130 l 1
 113 -128 l 1
 113 -573 l 1
256 -587 m 0
 197 -587 159 -536 159 -478 c 0
 159 -415 201 -368 256 -368 c 0
 316 -368 354 -419 354 -478 c 0
 354 -540 312 -587 256 -587 c 0
256 -333 m 0xd8
 197 -333 159 -282 159 -224 c 0
 159 -161 201 -114 256 -114 c 0
 316 -114 354 -165 354 -224 c 0
 354 -286 312 -333 256 -333 c 0xd8
EndSplineSet
Validated: 1
Ligature2: "'ccmp' Hataf CGJ Meteg substitutions subtable" hatafpatah cgj meteg
Ligature2: "'ccmp' Hataf CGJ Meteg substitutions subtable" hatafpatah .null meteg
Ligature2: "'ccmp' Hataf CGJ Meteg substitutions subtable" hatafpatah zerojoin meteg
LCarets2: 2 1 0 
EndChar

StartChar: hatafqamats_meteg
Encoding: 65544 -1 161
Width: 0
GlyphClass: 4
Flags: W
HStem: -587 219<178.704 335.443> -333 219<178.704 335.443> -265 130<-354 -228 -130 -10>
VStem: -228 98<-454.078 -265> 32 104<-575 -130> 160 194<-570.275 -384.771 -316.275 -130.771>
AnchorPoint: "A-7" -1.7002 0 mark 0
LayerCount: 2
Fore
SplineSet
-218 -573 m 1xbc
 -250 -552 -264 -509 -273 -476 c 2
 -276 -467 l 1
 -237 -368 l 2
 -232 -356 -228 -284 -228 -276 c 2
 -228 -265 l 1
 -354 -265 l 1
 -354 -135 l 1
 -10 -134 l 1
 -10 -265 l 1
 -130 -265 l 1
 -130 -272 l 2
 -130 -274 l 0
 -130 -312 -124 -355 -118 -369 c 2
 -80 -468 l 1
 -83 -478 l 2
 -94 -508 -104 -550 -138 -573 c 1
 -153 -580 -166 -584 -179 -584 c 0
 -192 -584 -204 -580 -218 -573 c 1xbc
136 -575 m 1
 32 -575 l 1
 32 -130 l 1
 136 -130 l 1
 136 -575 l 1
257 -587 m 0
 197 -587 160 -536 160 -478 c 0
 160 -415 201 -368 257 -368 c 0
 315 -368 354 -418 354 -478 c 0
 354 -540 313 -587 257 -587 c 0
257 -333 m 0xdc
 197 -333 160 -282 160 -224 c 0
 160 -161 201 -114 257 -114 c 0
 315 -114 354 -164 354 -224 c 0
 354 -286 313 -333 257 -333 c 0xdc
EndSplineSet
Validated: 1
Ligature2: "'ccmp' Hataf CGJ Meteg substitutions subtable" hatafqamats cgj meteg
Ligature2: "'ccmp' Hataf CGJ Meteg substitutions subtable" hatafqamats .null meteg
Ligature2: "'ccmp' Hataf CGJ Meteg substitutions subtable" hatafqamats zerojoin meteg
LCarets2: 2 0 0 
EndChar

StartChar: hatafsegol_leftmeteg
Encoding: 65545 -1 162
Width: 0
Flags: W
HStem: -589 220<-120.296 36.4434 242.014 396.445> -335 220<-238.804 -81.6236 -2.29557 154.443 242.014 396.445>
VStem: -416 106<-579 -136> -257 194<-317.484 -132.02> -139 194<-571.98 -385.771> -21 194<-317.98 -131.771> 222 194<-572.57 -387.771 -318.57 -133.771>
AnchorPoint: "A-7" -6.25 0 mark 0
LayerCount: 2
Fore
SplineSet
-310 -581 m 1xe2
 -416 -579 l 1
 -416 -134 l 1
 -310 -136 l 1
 -310 -581 l 1xe2
320 -589 m 0
 260 -589 222 -540 222 -481 c 0
 222 -418 263 -371 320 -371 c 0
 378 -371 416 -421 416 -481 c 0
 416 -543 376 -589 320 -589 c 0
320 -335 m 0
 260 -335 222 -286 222 -227 c 0
 222 -164 263 -117 320 -117 c 0
 378 -117 416 -167 416 -227 c 0
 416 -289 376 -335 320 -335 c 0
76 -115 m 0
 134 -115 173 -165 173 -225 c 0
 173 -287 132 -335 76 -335 c 0
 16 -335 -21 -284 -21 -225 c 0xe6
 -21 -162 20 -115 76 -115 c 0
-42 -369 m 0
 16 -369 55 -419 55 -479 c 0
 55 -541 14 -589 -42 -589 c 0
 -102 -589 -139 -538 -139 -479 c 0xea
 -139 -416 -98 -369 -42 -369 c 0
-161 -115 m 0
 -101 -115 -63 -166 -63 -225 c 0
 -63 -287 -104 -335 -161 -335 c 0
 -219 -335 -257 -285 -257 -225 c 0xf2
 -257 -163 -217 -115 -161 -115 c 0
EndSplineSet
Validated: 1
Ligature2: "'ccmp' Hataf Meteg substitutions subtable" hatafsegol meteg
LCarets2: 1 0 
EndChar

StartChar: hatafpatah_leftmeteg
Encoding: 65546 -1 163
Width: 0
GlyphClass: 4
Flags: W
HStem: -587 219<178.013 335.082> -333 219<178.013 335.082> -263 125<-203 110>
VStem: -354 94<-581 -138> 159 195<-570.275 -384.771 -316.275 -130.771>
AnchorPoint: "A-7" -1.97461 0 mark 0
LayerCount: 2
Fore
SplineSet
110 -263 m 1xb8
 -205 -263 l 1
 -203 -138 l 1
 112 -138 l 1
 110 -263 l 1xb8
-260 -581 m 1
 -354 -583 l 1
 -354 -138 l 1
 -260 -136 l 1
 -260 -581 l 1
256 -587 m 0
 197 -587 159 -536 159 -478 c 0
 159 -415 201 -368 256 -368 c 0
 316 -368 354 -419 354 -478 c 0
 354 -540 312 -587 256 -587 c 0
256 -333 m 0xd8
 197 -333 159 -282 159 -224 c 0
 159 -161 201 -114 256 -114 c 0
 316 -114 354 -165 354 -224 c 0
 354 -286 312 -333 256 -333 c 0xd8
EndSplineSet
Validated: 1
Ligature2: "'ccmp' Hataf Meteg substitutions subtable" hatafpatah meteg
LCarets2: 1 0 
EndChar

StartChar: hatafqamats_leftmeteg
Encoding: 65547 -1 164
Width: 0
GlyphClass: 4
Flags: W
HStem: -587 219<176.704 333.443> -333 219<176.704 333.443> -263 130<-210 -84 14 134>
VStem: -352 104<-581 -136> -84 98<-452.078 -263> 158 194<-570.275 -384.771 -316.275 -130.771>
AnchorPoint: "A-7" -3.7002 0 mark 0
LayerCount: 2
Fore
SplineSet
-74 -571 m 1xbc
 -106 -550 -120 -507 -129 -474 c 2
 -132 -465 l 1
 -93 -366 l 2
 -88 -354 -84 -282 -84 -274 c 2
 -84 -263 l 1
 -210 -263 l 1
 -210 -133 l 1
 134 -132 l 1
 134 -263 l 1
 14 -263 l 1
 14 -270 l 2
 14 -272 l 0
 14 -310 20 -353 26 -367 c 2
 64 -466 l 1
 61 -476 l 2
 50 -506 40 -548 6 -571 c 1
 -9 -578 -22 -582 -35 -582 c 0
 -48 -582 -60 -578 -74 -571 c 1xbc
-248 -581 m 1
 -352 -581 l 1
 -352 -136 l 1
 -248 -136 l 1
 -248 -581 l 1
255 -587 m 0
 195 -587 158 -536 158 -478 c 0
 158 -415 199 -368 255 -368 c 0
 313 -368 352 -418 352 -478 c 0
 352 -540 311 -587 255 -587 c 0
255 -333 m 0xdc
 195 -333 158 -282 158 -224 c 0
 158 -161 199 -114 255 -114 c 0
 313 -114 352 -164 352 -224 c 0
 352 -286 311 -333 255 -333 c 0xdc
EndSplineSet
Validated: 1
Ligature2: "'ccmp' Hataf Meteg substitutions subtable" hatafqamats meteg
LCarets2: 1 0 
EndChar

StartChar: exclam
Encoding: 33 33 165
Width: 505
Flags: W
HStem: 1238 20G<196 302>
VStem: 96 301<110.109 264.891 785.312 1223.88> 191 113<489.12 618.786>
LayerCount: 2
Fore
SplineSet
109 220 m 2xc0
 224 389 l 2
 243 418 251 420 271 389 c 2
 386 220 l 2
 394 208 397 198 397 188 c 0
 397 177 394 167 386 155 c 2
 271 -14 l 2
 252 -43 244 -45 224 -14 c 2
 109 155 l 2
 100 168 96 178 96 188 c 0
 96 197 100 207 109 220 c 2xc0
304 553 m 2xa0
 301 538 295 527 283 512 c 0
 268 494 258 485 248 485 c 0
 238 485 228 494 212 512 c 0
 202 526 194 538 191 553 c 2
 101 966 l 2
 92 1004 89 1051 89 1082 c 0
 89 1198 143 1258 249 1258 c 0
 355 1258 406 1200 406 1079 c 0
 406 1052 403 1007 394 966 c 2
 304 553 l 2xa0
EndSplineSet
Validated: 1
EndChar

StartChar: quotedbl
Encoding: 34 34 166
Width: 802
Flags: W
HStem: 645 556
LayerCount: 2
Fore
SplineSet
84 645 m 1
 113 1065 l 2
 115 1079 118 1091 121 1101 c 0
 141 1166 203 1201 288 1201 c 0
 361 1201 399 1179 399 1133 c 0
 399 1124 398 1113 394 1101 c 0
 391 1091 386 1077 381 1065 c 2
 140 645 l 1
 84 645 l 1
471 645 m 1
 502 1065 l 2
 502 1079 507 1091 510 1101 c 0
 530 1166 594 1201 679 1201 c 0
 750 1201 790 1177 790 1132 c 0
 790 1123 788 1114 785 1103 c 0
 782 1091 775 1079 768 1065 c 2
 527 645 l 1
 471 645 l 1
EndSplineSet
Validated: 1
EndChar

StartChar: numbersign
Encoding: 35 35 167
Width: 979
Flags: W
HStem: 0 21G<176 331.933 476 632.88> 375 142<70 230 404 531 705 865> 701 142<114 278 451 577 751 910>
LayerCount: 2
Fore
SplineSet
230 375 m 1
 70 375 l 1
 70 517 l 1
 251 517 l 1
 278 701 l 1
 114 701 l 1
 114 843 l 1
 297 843 l 1
 348 1195 l 1
 502 1195 l 1
 451 843 l 1
 597 843 l 1
 647 1195 l 1
 800 1195 l 1
 751 843 l 1
 910 843 l 1
 910 701 l 1
 730 701 l 1
 705 517 l 1
 865 517 l 1
 865 375 l 1
 684 375 l 1
 630 0 l 1
 476 0 l 1
 531 375 l 1
 384 375 l 1
 329 0 l 1
 176 0 l 1
 230 375 l 1
432 701 m 1
 404 517 l 1
 550 517 l 1
 577 701 l 1
 432 701 l 1
EndSplineSet
Validated: 1
EndChar

StartChar: dollar
Encoding: 36 36 168
Width: 979
Flags: W
HStem: -24 94<290.185 445 544 653.547> 1101 92<334.707 445 544 672.204>
VStem: 43 213<127.725 320.194> 77 205<739 994.818> 445 99<-234 -20.1343 75 445 770 1101 1191.27 1367> 679 239<878.772 1069.22> 724 213<176.856 370.43>
LayerCount: 2
Fore
SplineSet
544 739 m 1xdc
 589 725 l 2
 835 650 937 543 937 360 c 0
 937 147 795 9 544 -20 c 1
 544 -234 l 1
 445 -234 l 1
 445 -24 l 1
 406 -21 383 -19 352 -12 c 0
 154 27 43 124 43 261 c 0
 43 355 104 422 189 422 c 0
 268 422 328 369 328 297 c 0
 328 251 304 200 268 171 c 0
 259 162 256 159 256 152 c 0xea
 256 114 344 77 445 70 c 1
 445 476 l 1
 387 495 l 1
 170 562 77 659 77 819 c 0
 77 964 156 1089 287 1152 c 0
 331 1174 363 1183 445 1193 c 1
 445 1367 l 1
 544 1367 l 1
 544 1195 l 1
 773 1180 918 1086 918 951 c 0
 918 862 857 797 770 797 c 0
 697 797 640 850 640 918 c 0
 640 949 650 979 669 1010 c 0
 678 1022 679 1027 679 1036 c 0
 679 1070 631 1092 544 1101 c 1
 544 739 l 1xdc
445 770 m 1
 445 1101 l 1
 336 1082 282 1029 282 937 c 0xd8
 282 857 327 806 423 777 c 2
 445 770 l 1
544 445 m 1
 544 75 l 1
 578 78 598 83 618 92 c 0
 683 118 724 182 724 254 c 0xca
 724 348 672 406 561 440 c 2
 544 445 l 1
EndSplineSet
Validated: 1
EndChar

StartChar: percent
Encoding: 37 37 169
Width: 1421
Flags: W
HStem: 0 21G<317 475.477> 24 130<1013.11 1176.13> 538 131<248.223 411.604> 556 139<1144.13 1282.05> 969 125<630.252 878.755> 1188 20G<393.5 465> 1212 20G<995.5 1171>
VStem: 29 213<673.386 880.844> 527 104<805.206 977.578> 795 212<160.773 365.206> 1297 104<295.053 544.314>
LayerCount: 2
Fore
SplineSet
1171 1232 m 1xefe0
 464 0 l 1
 317 0 l 1
 881 988 l 1
 841 975 783 969 730 969 c 0
 692 969 656 972 631 978 c 1
 631 879 583 756 510 669 c 0
 435 579 353 538 256 538 c 0
 125 538 29 630 29 756 c 0
 29 874 108 1029 210 1118 c 0
 278 1176 357 1208 430 1208 c 0
 500 1208 547 1184 591 1126 c 1
 637 1104 685 1094 748 1094 c 0
 874 1094 958 1133 1033 1232 c 1
 1171 1232 l 1xefe0
440 1072 m 1
 389 1055 373 1038 324 951 c 0
 264 847 242 790 242 742 c 0
 242 698 271 669 312 669 c 0
 416 669 527 826 527 969 c 0
 527 988 526 1002 519 1021 c 1
 485 1033 464 1046 440 1072 c 1
1193 695 m 0xdfe0
 1314 695 1401 606 1401 483 c 0
 1401 381 1350 251 1271 152 c 0
 1206 72 1116 24 1026 24 c 0
 893 24 795 114 795 239 c 0
 795 336 841 454 913 544 c 1
 993 641 1091 695 1193 695 c 0xdfe0
1219 556 m 0
 1181 556 1147 528 1106 461 c 0
 1036 347 1007 276 1007 227 c 0
 1007 186 1039 154 1077 154 c 0
 1183 154 1297 310 1297 452 c 0
 1297 508 1263 556 1219 556 c 0
EndSplineSet
Validated: 1
EndChar

StartChar: ampersand
Encoding: 38 38 170
Width: 1454
Flags: W
HStem: -27 186<1035.39 1252.97> -27 141<395 694.503> 604 92<894 1036.31 1211.11 1360> 1169 89<613.701 795.804>
VStem: 67 290<281.324 468.488> 345 239<884.843 1098.73> 836 188<878.551 1129.88> 1318 85<199.888 286.205>
LayerCount: 2
Fore
SplineSet
1360 696 m 1x77
 1360 604 l 1
 1239 601 1200 574 1133 444 c 1
 1087 360 1074 336 1026 271 c 1
 1084 194 1139 159 1200 159 c 0
 1258 159 1298 208 1318 302 c 1
 1403 283 l 1
 1396 220 1381 175 1352 126 c 0
 1287 18 1208 -27 1089 -27 c 0xb7
 983 -27 894 12 819 87 c 1
 711 10 596 -27 459 -27 c 0
 331 -27 226 10 159 80 c 0
 99 143 67 221 67 305 c 0x7b
 67 433 139 544 270 623 c 0
 313 649 346 666 411 695 c 1
 362 797 345 858 345 940 c 0
 345 1024 384 1113 445 1169 c 0
 512 1229 602 1258 713 1258 c 0
 899 1258 1024 1159 1024 1014 c 0
 1024 941 988 870 927 821 c 0
 872 778 829 755 725 712 c 1
 812 564 923 396 964 352 c 1
 1022 422 1046 473 1046 521 c 0
 1046 579 1002 602 894 604 c 1
 894 696 l 1
 1360 696 l 1x77
452 609 m 1
 389 570 357 513 357 440 c 0
 357 394 370 343 396 292 c 0
 454 174 536 114 638 114 c 0x7b
 681 114 710 123 751 152 c 1
 625 306 525 457 452 609 c 1
678 792 m 1
 693 799 696 801 705 804 c 0
 790 847 836 918 836 1005 c 0
 836 1099 780 1169 703 1169 c 0
 635 1169 584 1113 584 1041 c 0x37
 584 976 610 910 678 792 c 1
EndSplineSet
Validated: 1
EndChar

StartChar: quotesingle
Encoding: 39 39 171
Width: 416
Flags: W
HStem: 645 556
VStem: 114 286<1025.62 1157.19>
LayerCount: 2
Fore
SplineSet
84 645 m 1
 114 1065 l 2
 114 1079 120 1091 123 1101 c 0
 143 1166 204 1201 288 1201 c 0
 361 1201 400 1179 400 1134 c 0
 400 1124 398 1113 394 1101 c 0
 391 1091 388 1077 381 1065 c 2
 140 645 l 1
 84 645 l 1
EndSplineSet
Validated: 1
EndChar

StartChar: parenleft
Encoding: 40 40 172
Width: 663
Flags: W
HStem: 1238 20G<520 577>
VStem: 123 213<264.903 794>
LayerCount: 2
Fore
SplineSet
577 -116 m 1
 577 -201 l 1
 452 -136 375 -73 295 29 c 0
 182 172 123 348 123 529 c 0
 123 724 193 910 321 1060 c 0
 398 1149 463 1198 577 1258 c 1
 577 1172 l 1
 485 1107 442 1054 403 952 c 0
 359 841 336 694 336 527 c 0
 336 343 365 184 416 70 c 1
 455 -12 493 -58 577 -116 c 1
EndSplineSet
Validated: 1
EndChar

StartChar: parenright
Encoding: 41 41 173
Width: 663
Flags: W
HStem: 1238 20G<85 147.5>
VStem: 326 213<262.226 791.097>
LayerCount: 2
Fore
SplineSet
85 1172 m 1
 85 1258 l 1
 210 1193 287 1129 367 1027 c 0
 480 884 539 708 539 527 c 0
 539 332 469 147 341 -3 c 0
 264 -92 199 -141 85 -201 c 1
 85 -116 l 1
 177 -51 220 2 259 104 c 0
 303 215 326 362 326 529 c 0
 326 713 297 872 246 986 c 1
 207 1068 169 1114 85 1172 c 1
EndSplineSet
Validated: 1
EndChar

StartChar: asterisk
Encoding: 42 42 174
Width: 853
Flags: W
HStem: 655 162<104.786 259.729 602.993 752.901> 935 174<112.886 260.801 597.318 745.872> 1238 20G<406 451>
VStem: 346 164<518.066 718.996 1047.02 1246.76> 408 43<711.453 845 920 1054.4>
LayerCount: 2
Fore
SplineSet
408 845 m 1xe8
 381 828 l 2
 332 799 317 783 271 715 c 0
 245 676 214 655 176 655 c 0
 132 655 96 691 96 734 c 0
 96 770 118 802 152 817 c 0
 174 826 179 828 246 831 c 0
 289 834 322 845 358 865 c 2
 386 882 l 1
 358 898 l 2
 305 927 292 930 205 935 c 0
 138 940 96 978 96 1031 c 0
 96 1074 131 1109 177 1109 c 0
 199 1109 227 1099 246 1082 c 0
 260 1068 260 1068 294 1017 c 0
 320 981 342 957 381 935 c 1
 408 920 l 1
 408 952 l 2xe8
 408 1007 405 1019 364 1104 c 0
 352 1126 346 1148 346 1167 c 0xf0
 346 1216 384 1258 428 1258 c 0
 474 1258 512 1217 512 1166 c 0
 512 1142 510 1135 478 1067 c 0
 458 1028 451 995 451 952 c 2
 451 920 l 1
 478 935 l 2
 529 966 539 978 587 1050 c 0
 614 1091 645 1109 683 1109 c 0
 727 1109 763 1075 763 1031 c 0
 763 995 741 964 707 947 c 0
 687 938 681 939 613 932 c 1
 569 930 539 920 500 898 c 2
 473 882 l 1
 500 867 l 2
 553 838 568 834 652 829 c 0
 719 824 763 785 763 732 c 0
 763 689 729 655 686 655 c 0
 640 655 621 672 565 749 c 0
 541 783 514 808 478 828 c 2
 451 845 l 1
 451 812 l 2xe8
 451 757 454 744 493 660 c 0
 505 638 510 616 510 599 c 0
 510 548 474 507 428 507 c 0
 384 507 346 548 346 597 c 0xf0
 346 623 350 631 381 698 c 1
 401 737 408 768 408 812 c 2
 408 845 l 1xe8
EndSplineSet
Validated: 1
EndChar

StartChar: plus
Encoding: 43 43 175
Width: 1034
Flags: W
HStem: 0 21G<420 616> 333 196<87 420 616 947>
VStem: 420 196<0 333 529 862>
LayerCount: 2
Fore
SplineSet
420 333 m 1
 87 333 l 1
 87 529 l 1
 420 529 l 1
 420 862 l 1
 616 862 l 1
 616 529 l 1
 947 529 l 1
 947 333 l 1
 616 333 l 1
 616 0 l 1
 420 0 l 1
 420 333 l 1
EndSplineSet
Validated: 1
EndChar

StartChar: comma
Encoding: 44 44 176
Width: 474
Flags: W
LayerCount: 2
Fore
SplineSet
77 157 m 2
 57 183 57 194 77 218 c 2
 212 384 l 2
 234 411 244 413 266 384 c 2
 396 218 l 2
 413 194 415 183 401 157 c 2
 164 -242 l 2
 152 -261 136 -270 123 -270 c 0
 106 -270 92 -256 92 -233 c 0
 92 -227 92 -221 94 -215 c 2
 152 20 l 2
 157 44 157 60 143 75 c 2
 77 157 l 2
EndSplineSet
Validated: 1
EndChar

StartChar: hyphen
Encoding: 45 45 177
Width: 665
Flags: W
HStem: 382 255<99.4062 567.5>
VStem: 55 556
LayerCount: 2
Fore
SplineSet
611 602 m 2
 563 408 l 2
 558 391 555 382 531 382 c 2
 80 382 l 2
 46 382 50 390 55 416 c 2
 104 611 l 2
 107 628 111 637 135 637 c 2
 585 637 l 2
 621 637 618 628 611 602 c 2
EndSplineSet
Validated: 1
EndChar

StartChar: period
Encoding: 46 46 178
Width: 474
Flags: W
LayerCount: 2
Fore
SplineSet
77 218 m 2
 212 384 l 2
 234 411 244 413 266 384 c 2
 401 218 l 2
 420 196 420 179 401 157 c 2
 266 -9 l 2
 244 -36 234 -38 212 -9 c 2
 77 157 l 2
 57 183 57 194 77 218 c 2
EndSplineSet
Validated: 1
EndChar

StartChar: slash
Encoding: 47 47 179
Width: 474
Flags: W
HStem: 1238 20G<382.333 515>
VStem: -39 554
LayerCount: 2
Fore
SplineSet
389 1258 m 1
 515 1258 l 1
 87 -26 l 1
 -39 -26 l 1
 389 1258 l 1
EndSplineSet
Validated: 1
EndChar

StartChar: zero
Encoding: 48 48 180
Width: 979
Flags: W
HStem: -24 89<397.67 573.629> 1120 88<403.086 574.756>
VStem: 46 294<317.558 866.849> 635 297<315.239 873.272>
LayerCount: 2
Fore
SplineSet
490 1208 m 0
 604 1208 705 1157 785 1060 c 1
 886 934 932 785 932 584 c 0
 932 238 741 -24 490 -24 c 0
 234 -24 46 237 46 592 c 0
 46 947 234 1208 490 1208 c 0
488 1120 m 0
 428 1120 388 1083 369 1015 c 0
 354 957 340 766 340 592 c 0
 340 391 355 206 375 150 c 0
 395 95 435 65 488 65 c 0
 546 65 587 101 606 169 c 0
 621 227 635 415 635 589 c 0
 635 794 621 978 599 1034 c 1
 580 1089 539 1120 488 1120 c 0
EndSplineSet
Validated: 1
EndChar

StartChar: one
Encoding: 49 49 181
Width: 979
Flags: W
HStem: 0 92<157 352.281 635.93 838> 995 96<142 359.63> 1188 20G<520 633>
VStem: 365 268<118.652 988.071>
LayerCount: 2
Fore
SplineSet
633 1208 m 1
 633 246 l 2
 633 138 633 132 645 118 c 0
 659 99 696 92 783 92 c 2
 838 92 l 1
 838 0 l 1
 157 0 l 1
 157 92 l 1
 212 92 l 2
 302 92 338 99 353 118 c 0
 365 132 365 140 365 246 c 2
 365 852 l 2
 365 994 365 993 213 995 c 1
 142 995 l 1
 142 1091 l 1
 343 1094 467 1128 573 1208 c 1
 633 1208 l 1
EndSplineSet
Validated: 1
EndChar

StartChar: two
Encoding: 50 50 182
Width: 979
Flags: W
HStem: 0 256<299 755.213> 1111 97<291.112 549.625>
VStem: 70 176<804.5 1023.29> 611 290<724.087 1034.6> 814 92<389.865 454>
LayerCount: 2
Fore
SplineSet
814 454 m 1xe8
 906 454 l 1xe8
 867 -7 l 1
 816 -2 792 0 763 0 c 2
 121 0 l 2
 97 0 76 -2 32 -7 c 1
 32 73 l 1
 117 196 184 275 375 476 c 0
 556 669 611 769 611 911 c 0
 611 1037 542 1111 423 1111 c 0
 338 1111 246 1053 246 998 c 0
 246 984 254 975 273 966 c 0
 352 928 384 885 384 812 c 0
 384 723 328 667 239 667 c 0
 137 667 70 745 70 864 c 0
 70 1059 249 1208 481 1208 c 0
 722 1208 901 1070 901 887 c 0xf0
 901 807 867 717 809 640 c 0
 760 577 706 538 469 384 c 0
 402 340 359 307 299 256 c 1
 628 256 l 1
 736 258 739 258 756 270 c 0
 770 279 780 301 795 369 c 2
 814 454 l 1xe8
EndSplineSet
Validated: 1
EndChar

StartChar: three
Encoding: 51 51 183
Width: 979
Flags: W
HStem: -24 89<281.55 530.397> 567 121<277.544 448.657> 577 92<336.931 547.667> 1120 88<307.472 538.928>
VStem: 41 222<127 324.5> 84 213<882.5 1061.12> 597 277<760.167 1054.73> 608 297<158.344 495.629>
LayerCount: 2
Fore
SplineSet
597 628 m 1xb6
 687 616 730 604 778 577 c 0
 857 531 905 437 905 329 c 0
 905 220 854 116 775 61 c 0
 696 6 579 -24 454 -24 c 0
 208 -24 41 94 41 266 c 0
 41 362 105 428 195 428 c 0
 280 428 343 367 343 287 c 0
 343 239 331 216 280 167 c 0
 268 157 263 147 263 137 c 0
 263 101 338 65 410 65 c 0
 536 65 608 164 608 335 c 0
 608 495 555 577 449 577 c 0xb9
 442 577 415 572 364 567 c 0
 354 565 343 567 336 567 c 0
 300 567 275 593 275 631 c 0
 275 667 297 688 336 688 c 0xd9
 356 688 367 687 406 678 c 0
 433 673 452 669 466 669 c 0
 546 669 597 761 597 908 c 0
 597 1041 535 1120 427 1120 c 0
 362 1120 297 1087 297 1055 c 0
 297 1048 300 1043 309 1034 c 0
 358 988 377 952 377 906 c 0
 377 826 321 771 239 771 c 0
 150 771 84 838 84 927 c 0
 84 992 119 1064 174 1113 c 0
 246 1176 348 1208 471 1208 c 0
 713 1208 874 1087 874 906 c 0
 874 775 793 683 643 640 c 0
 631 637 617 633 597 628 c 1xb6
EndSplineSet
Validated: 1
EndChar

StartChar: four
Encoding: 52 52 184
Width: 979
Flags: W
HStem: 0 92<333 480.326 773.675 915> 309 114<157 493 761 932> 1188 20G<637.907 771>
VStem: 493 268<116.698 309 423 850>
LayerCount: 2
Fore
SplineSet
761 423 m 1
 932 423 l 1
 932 309 l 1
 761 309 l 1
 761 246 l 2
 761 138 761 131 773 116 c 0
 787 101 826 92 896 92 c 2
 915 92 l 1
 915 0 l 1
 333 0 l 1
 333 92 l 1
 352 92 l 2
 429 92 467 99 481 116 c 0
 493 131 493 138 493 246 c 2
 493 309 l 1
 32 309 l 1
 32 435 l 1
 654 1208 l 1
 771 1208 l 1
 764 1082 761 987 761 949 c 2
 761 423 l 1
493 423 m 1
 493 850 l 1
 157 423 l 1
 493 423 l 1
EndSplineSet
Validated: 1
EndChar

StartChar: five
Encoding: 53 53 185
Width: 979
Flags: W
HStem: -24 97<263.644 519.904> 669 116<289.39 535.177> 915 264<267.113 695.435> 1188 20G<177.5 234>
VStem: 53 196<115.351 311> 97 133<513.781 603.531> 609 304<206.877 577.065>
LayerCount: 2
Fore
SplineSet
268 940 m 1xf6
 242 720 l 1
 355 771 408 785 488 785 c 0
 734 785 913 621 913 399 c 0
 913 148 722 -24 442 -24 c 0
 206 -24 53 87 53 258 c 0
 53 364 118 432 217 432 c 0
 304 432 362 376 362 292 c 0
 362 234 337 201 270 169 c 0
 255 160 249 155 249 145 c 0xfa
 249 109 322 73 399 73 c 0
 536 73 609 184 609 391 c 0
 609 575 544 669 416 669 c 0
 346 669 278 647 227 604 c 1
 229 594 230 584 230 577 c 0
 230 539 198 509 160 509 c 0
 124 509 97 536 97 572 c 0
 97 599 104 611 142 649 c 1
 164 944 174 1071 181 1208 c 1
 287 1186 372 1179 514 1179 c 0
 647 1179 767 1189 823 1203 c 0
 833 1206 843 1208 850 1208 c 0
 859 1208 864 1198 864 1188 c 0
 864 1150 838 1089 806 1046 c 0
 741 962 625 915 483 915 c 0
 416 915 348 923 268 940 c 1xf6
EndSplineSet
Validated: 1
EndChar

StartChar: six
Encoding: 54 54 186
Width: 979
Flags: W
HStem: -24 80<415.797 574.966> 601 128<423.164 591.978> 1120 88<468.929 640.093>
VStem: 49 306<253.678 817.616> 640 297<198.857 552.418> 643 262<913.125 1101.4>
LayerCount: 2
Fore
SplineSet
345 616 m 1xf4
 417 698 485 729 594 729 c 0
 795 729 937 586 937 381 c 0xf8
 937 147 754 -24 503 -24 c 0
 363 -24 250 29 166 131 c 0
 86 230 49 351 49 522 c 0
 49 725 95 883 196 1014 c 0
 295 1145 422 1208 584 1208 c 0
 780 1208 905 1116 905 969 c 0
 905 875 843 816 746 816 c 0
 657 816 596 870 596 947 c 0
 596 981 608 1019 630 1048 c 0
 642 1063 643 1070 643 1080 c 0
 643 1104 613 1120 570 1120 c 0
 454 1120 377 988 353 746 c 0
 350 714 345 636 345 616 c 1xf4
505 601 m 0
 503 601 501 601 499 601 c 0
 437 601 387 556 369 485 c 0
 360 446 355 391 355 331 c 0
 355 155 408 56 500 56 c 0
 590 56 640 164 640 362 c 0
 640 516 594 598 505 601 c 0
EndSplineSet
Validated: 1
EndChar

StartChar: seven
Encoding: 55 55 187
Width: 979
Flags: W
HStem: 937 247<222.927 739.427> 1188 20G<132.725 219.5 878 932>
VStem: 77 94<696.475 752.934> 319 326<24.875 313.522>
LayerCount: 2
Fore
SplineSet
932 1208 m 1
 932 1137 l 1
 678 596 645 480 645 166 c 0
 645 43 584 -24 476 -24 c 0
 380 -24 319 42 319 143 c 0
 319 213 347 297 410 420 c 0
 419 437 489 551 626 763 c 1
 742 937 l 1
 599 934 524 930 517 930 c 0
 466 930 379 935 323 937 c 0
 311 939 301 937 292 937 c 0
 232 937 220 915 188 765 c 2
 171 688 l 1
 77 698 l 1
 135 1208 l 1
 304 1189 386 1184 543 1184 c 0
 719 1184 824 1191 932 1208 c 1
EndSplineSet
Validated: 1
EndChar

StartChar: eight
Encoding: 56 56 188
Width: 979
Flags: W
HStem: -24 89<344.23 638.23> 1120 88<366.997 611.872>
VStem: 46 222<140.478 425.535> 84 221<776.664 1020.07> 676 213<806.283 1059.03> 720 212<187.214 376.318>
LayerCount: 2
Fore
SplineSet
688 701 m 1xd8
 854 634 932 527 932 367 c 0
 932 133 746 -24 471 -24 c 0
 212 -24 46 94 46 278 c 0xe4
 46 377 92 456 177 500 c 0
 206 515 229 522 282 539 c 1
 147 611 84 710 84 845 c 0
 84 1065 254 1208 519 1208 c 0
 739 1208 889 1101 889 944 c 0
 889 865 852 795 785 749 c 0
 761 732 736 720 688 701 c 1xd8
601 744 m 1
 604 748 l 1
 648 787 676 855 676 925 c 0
 676 1044 604 1120 490 1120 c 0
 384 1120 305 1050 305 956 c 0xd8
 305 881 358 811 435 782 c 0
 467 770 522 754 592 737 c 1
 595 739 595 739 597 742 c 1
 601 744 l 1
374 493 m 1
 294 426 268 375 268 283 c 0
 268 146 352 65 490 65 c 0
 623 65 720 149 720 265 c 0xe4
 720 352 680 397 572 435 c 0
 529 449 446 473 374 493 c 1
EndSplineSet
Validated: 1
EndChar

StartChar: nine
Encoding: 57 57 189
Width: 979
Flags: W
HStem: -24 89<339.799 513.518> 449 128<283.5 551.789> 1120 88<396.775 565.9>
VStem: 43 295<627.153 987.958> 77 261<74.2291 269.752> 623 307<362.666 916.867>
LayerCount: 2
Fore
SplineSet
630 561 m 1xec
 558 481 487 449 381 449 c 0
 186 449 43 598 43 799 c 0xf4
 43 1036 222 1208 469 1208 c 0
 612 1208 737 1145 824 1029 c 0
 896 932 930 814 930 659 c 0
 930 473 885 309 800 183 c 1
 711 48 570 -24 394 -24 c 0
 201 -24 77 62 77 195 c 0
 77 294 145 365 239 365 c 0
 324 365 382 309 382 227 c 0
 382 189 379 179 348 130 c 0
 341 120 338 109 338 99 c 0
 338 79 358 65 396 65 c 0
 533 65 607 184 626 428 c 0
 629 469 630 486 630 561 c 1xec
483 1120 m 0
 387 1120 338 1024 338 838 c 0
 338 753 348 691 367 650 c 0
 387 607 433 577 481 577 c 0
 568 577 623 673 623 823 c 0
 623 902 607 994 585 1043 c 0
 565 1092 527 1120 483 1120 c 0
EndSplineSet
Validated: 1
EndChar

StartChar: colon
Encoding: 58 58 190
Width: 474
Flags: W
VStem: 62 353<694.344 830.875>
LayerCount: 2
Fore
SplineSet
77 795 m 2
 212 959 l 2
 234 986 244 988 266 959 c 2
 401 795 l 2
 410 783 415 773 415 762 c 0
 415 752 410 742 401 730 c 2
 266 567 l 2
 244 540 234 538 212 567 c 2
 77 730 l 2
 67 744 62 753 62 763 c 0
 62 772 67 782 77 795 c 2
77 218 m 2
 212 384 l 2
 234 411 244 413 266 384 c 2
 401 218 l 2
 420 196 420 179 401 157 c 2
 266 -9 l 2
 244 -36 234 -38 212 -9 c 2
 77 157 l 2
 57 183 57 194 77 218 c 2
EndSplineSet
Validated: 1
EndChar

StartChar: semicolon
Encoding: 59 59 191
Width: 474
Flags: W
VStem: 62 353<694.344 830.875>
LayerCount: 2
Fore
SplineSet
77 157 m 2
 57 183 57 194 77 218 c 2
 212 384 l 2
 234 411 244 413 266 384 c 2
 396 218 l 2
 413 194 415 183 401 157 c 2
 164 -242 l 2
 152 -261 136 -270 123 -270 c 0
 106 -270 92 -256 92 -233 c 0
 92 -227 92 -221 94 -215 c 2
 152 20 l 2
 157 44 157 60 143 75 c 2
 77 157 l 2
77 795 m 2
 212 959 l 2
 234 986 244 988 266 959 c 2
 401 795 l 2
 410 783 415 773 415 762 c 0
 415 752 410 742 401 730 c 2
 266 567 l 2
 244 540 234 538 212 567 c 2
 77 730 l 2
 67 744 62 753 62 763 c 0
 62 772 67 782 77 795 c 2
EndSplineSet
Validated: 1
EndChar

StartChar: less
Encoding: 60 60 192
Width: 1034
Flags: W
LayerCount: 2
Fore
SplineSet
952 689 m 1
 393 432 l 1
 952 171 l 1
 952 -43 l 1
 84 353 l 1
 84 507 l 1
 952 903 l 1
 952 689 l 1
EndSplineSet
Validated: 1
EndChar

StartChar: equal
Encoding: 61 61 193
Width: 1034
Flags: W
HStem: 157 196<87 947> 509 196<87 947>
LayerCount: 2
Fore
SplineSet
87 157 m 1
 87 353 l 1
 947 353 l 1
 947 157 l 1
 87 157 l 1
87 509 m 1
 87 705 l 1
 947 705 l 1
 947 509 l 1
 87 509 l 1
EndSplineSet
Validated: 1
EndChar

StartChar: greater
Encoding: 62 62 194
Width: 1034
Flags: W
LayerCount: 2
Fore
SplineSet
82 689 m 1
 82 903 l 1
 951 507 l 1
 951 353 l 1
 82 -43 l 1
 82 171 l 1
 642 432 l 1
 82 689 l 1
EndSplineSet
Validated: 1
EndChar

StartChar: question
Encoding: 63 63 195
Width: 853
Flags: W
HStem: 833 21G<154 244.5> 1155 103<338.961 468.995>
VStem: 39 297<880.682 1123.26> 243 300<110.109 264.891> 512 300<810.651 1108.46>
LayerCount: 2
Fore
SplineSet
256 220 m 2xd0
 370 389 l 2
 389 418 398 420 418 389 c 2
 532 220 l 2
 540 208 543 198 543 188 c 0
 543 177 540 167 532 155 c 2
 418 -14 l 2
 399 -43 390 -45 370 -14 c 2
 256 155 l 2
 248 168 243 178 243 188 c 0
 243 197 248 207 256 220 c 2xd0
413 741 m 0
 483 816 512 881 512 973 c 0
 512 1080 455 1155 391 1155 c 0
 384 1155 376 1154 369 1152 c 0
 343 1145 336 1131 336 1108 c 0
 336 1078 348 1033 348 969 c 0
 348 889 288 833 201 833 c 0
 107 833 39 900 39 992 c 0
 39 1149 198 1258 423 1258 c 0
 662 1258 812 1140 812 954 c 0xe8
 812 872 776 801 720 748 c 0
 619 654 495 618 418 505 c 0
 401 483 395 481 381 503 c 2
 341 568 l 2
 334 580 330 589 335 608 c 0
 344 651 374 697 413 741 c 0
EndSplineSet
Validated: 1
EndChar

StartChar: at
Encoding: 64 64 196
Width: 1274
Flags: W
HStem: -26 105<460.799 875.032> 247 89<461.345 611.933> 253 104<779.5 983.815> 889 89<604.25 764.73> 1154 104<453.494 870.461>
VStem: 41 109<403.824 842.801> 273 176<347.416 650.389> 1123 109<526.295 910.315>
LayerCount: 2
Fore
SplineSet
1099 324 m 1xbf
 1217 324 l 1
 1191 261 1163 222 1108 167 c 0
 978 36 832 -26 660 -26 c 0
 315 -26 41 260 41 618 c 0
 41 973 318 1258 664 1258 c 0
 980 1258 1232 1022 1232 727 c 0
 1232 480 1034 253 819 253 c 0xbf
 740 253 688 290 688 348 c 0
 688 353 689 363 691 375 c 1
 645 288 583 247 498 247 c 0xdf
 370 247 273 359 273 502 c 0
 273 610 317 736 389 833 c 0
 457 925 556 978 657 978 c 0
 732 978 773 952 816 889 c 1
 836 949 l 1
 1014 949 l 1
 857 457 l 2
 850 431 845 409 845 394 c 0
 845 370 859 357 886 357 c 0
 918 357 957 376 995 408 c 0
 1079 478 1123 585 1123 715 c 0
 1123 969 930 1154 662 1154 c 0
 368 1154 150 927 150 625 c 0
 150 316 374 79 664 79 c 0
 847 79 1002 165 1099 324 c 1xbf
693 889 m 0
 640 889 592 849 546 765 c 0
 486 659 449 533 449 437 c 0
 449 372 478 336 527 336 c 0xdf
 582 336 632 386 671 478 c 0
 717 586 773 768 773 812 c 0
 773 853 737 889 693 889 c 0
EndSplineSet
Validated: 1
EndChar

StartChar: A
Encoding: 65 65 197
Width: 1295
Flags: W
HStem: 0 92<-31 76.8998 317.576 463 729 856.984 1200.76 1328> 372 114<391 729> 1238 20G<590.448 737.28>
LayerCount: 2
Fore
SplineSet
599 1258 m 1
 729 1258 l 1
 1167 200 l 2
 1203 113 1231 95 1328 92 c 1
 1328 0 l 1
 729 0 l 1
 729 92 l 1
 758 94 l 1
 835 94 857 104 857 135 c 0
 857 149 850 174 836 205 c 2
 771 372 l 1
 346 372 l 1
 319 307 l 2
 297 258 292 239 292 210 c 0
 292 131 340 99 463 92 c 1
 463 0 l 1
 -31 0 l 1
 -31 92 l 1
 70 102 133 169 212 353 c 2
 599 1258 l 1
563 894 m 1
 391 486 l 1
 729 486 l 1
 563 894 l 1
EndSplineSet
Validated: 1
EndChar

StartChar: B
Encoding: 66 66 198
Width: 1327
Flags: W
HStem: 0 92<29 194.281 515.857 837.906> 585 94<514 798.226> 1140 92<29 194.281 534.803 816.249>
VStem: 207 307<118.651 585 679 1115.3> 891 309<788.622 1066.23> 930 326<183.94 474.16>
LayerCount: 2
Fore
SplineSet
29 1232 m 1xf4
 688 1232 l 2
 891 1232 971 1219 1065 1164 c 1
 1149 1118 1200 1027 1200 930 c 0xf8
 1200 828 1145 745 1043 696 c 0
 995 674 948 663 864 649 c 1
 953 637 1004 623 1062 596 c 0
 1188 540 1256 442 1256 323 c 0
 1256 209 1184 100 1075 51 c 1
 988 13 897 0 720 0 c 2
 29 0 l 1
 29 92 l 1
 55 92 l 2
 144 92 180 99 195 118 c 0
 207 132 207 138 207 246 c 2
 207 986 l 2
 207 1095 207 1101 195 1116 c 0
 180 1133 144 1140 55 1140 c 2
 29 1140 l 1
 29 1232 l 1xf4
514 679 m 1
 597 679 l 2
 703 679 761 692 807 730 c 0
 862 773 891 839 891 923 c 0
 891 1065 810 1140 660 1140 c 2
 609 1140 l 2
 577 1140 551 1133 534 1118 c 0
 517 1104 514 1090 514 1041 c 2
 514 679 l 1
514 585 m 1
 514 201 l 2
 514 145 514 140 519 126 c 0
 529 102 558 92 618 92 c 2
 669 92 l 2
 751 92 807 107 850 143 c 0
 899 184 930 259 930 341 c 0xf4
 930 430 894 505 836 544 c 0
 788 575 739 585 631 585 c 2
 514 585 l 1
EndSplineSet
Validated: 1
EndChar

StartChar: C
Encoding: 67 67 199
Width: 1327
Flags: W
HStem: -26 106<584.122 919.805> 1169 89<575.789 891.893>
VStem: 68 340<351.377 850.548> 1118 90<763 886.422> 1128 106<311.457 430.381>
LayerCount: 2
Fore
SplineSet
1191 1251 m 1xf0
 1208 763 l 1
 1118 753 l 1xf0
 1041 1038 916 1169 727 1169 c 0
 517 1169 408 984 408 631 c 0
 408 256 517 80 749 80 c 0
 945 80 1082 215 1128 452 c 1
 1234 427 l 1xe8
 1169 122 995 -26 693 -26 c 0
 493 -26 348 32 230 162 c 0
 121 283 68 424 68 601 c 0
 68 983 338 1258 713 1258 c 0
 834 1258 913 1237 1026 1169 c 1
 1118 1251 l 1
 1191 1251 l 1xf0
EndSplineSet
Validated: 1
EndChar

StartChar: D
Encoding: 68 68 200
Width: 1421
Flags: W
HStem: 0 92<32 197.281 524.762 840.145> 1140 92<32 197.281 523.599 835.023>
VStem: 210 307<118.651 1113.35> 1014 339<361.12 890.577>
LayerCount: 2
Fore
SplineSet
210 246 m 2
 210 986 l 2
 210 1094 210 1100 198 1114 c 0
 183 1133 147 1140 58 1140 c 2
 32 1140 l 1
 32 1232 l 1
 640 1232 l 2
 881 1232 1007 1208 1109 1140 c 0
 1269 1036 1353 859 1353 630 c 0
 1353 396 1270 210 1118 104 c 0
 1012 31 875 0 660 0 c 2
 32 0 l 1
 32 92 l 1
 58 92 l 2
 147 92 183 99 198 118 c 0
 210 132 210 138 210 246 c 2
620 92 m 2
 655 92 l 2
 769 92 871 135 922 208 c 1
 978 285 1014 450 1014 633 c 0
 1014 974 899 1140 662 1140 c 2
 620 1140 l 2
 538 1140 517 1120 517 1038 c 2
 517 203 l 2
 517 113 536 92 620 92 c 2
EndSplineSet
Validated: 1
EndChar

StartChar: E
Encoding: 69 69 201
Width: 1295
Flags: W
HStem: 0 92<27 192.281 539.94 908.274> 591 93<512 681.964> 1140 92<27 192.281 524.25 898.835>
VStem: 205 307<118.651 591 684 1113.35> 777 92<348 489.06 785.94 927> 1094 89<788 911.58> 1116 91<339.678 459>
LayerCount: 2
Fore
SplineSet
1172 1232 m 1xfa
 1183 788 l 1
 1094 788 l 1xfc
 1068 877 1031 963 995 1014 c 0
 937 1094 833 1140 707 1140 c 2
 659 1140 l 2
 589 1140 548 1129 529 1103 c 0
 515 1083 512 1063 512 993 c 2
 512 684 l 1
 541 684 l 2
 674 684 758 770 777 927 c 1
 869 927 l 1
 869 348 l 1
 777 348 l 1
 758 505 674 591 541 591 c 2
 512 591 l 1
 512 212 l 2
 512 156 517 136 539 116 c 0
 559 96 582 92 666 92 c 2
 717 92 l 2
 924 92 1044 203 1116 459 c 1
 1207 459 l 1
 1186 0 l 1
 27 0 l 1
 27 92 l 1
 53 92 l 2
 142 92 178 99 193 118 c 0
 205 132 205 138 205 246 c 2
 205 986 l 2
 205 1094 205 1100 193 1114 c 0
 178 1133 142 1140 53 1140 c 2
 27 1140 l 1
 27 1232 l 1
 1172 1232 l 1xfa
EndSplineSet
Validated: 1
EndChar

StartChar: F
Encoding: 70 70 202
Width: 1232
Flags: W
HStem: 0 92<38 202.281 524.93 720> 591 93<522 692.81> 1140 92<38 202.281 534.25 893.451>
VStem: 215 307<118.651 591 684 1113.35> 787 92<348 489.06 785.055 927> 1089 89<788 912.692>
LayerCount: 2
Fore
SplineSet
1167 1232 m 1
 1178 788 l 1
 1089 788 l 1
 1063 878 1026 965 990 1014 c 0
 932 1094 827 1140 701 1140 c 2
 669 1140 l 2
 599 1140 558 1129 539 1103 c 0
 525 1083 522 1063 522 993 c 2
 522 684 l 1
 551 684 l 2
 686 684 768 768 787 927 c 1
 879 927 l 1
 879 348 l 1
 787 348 l 1
 768 505 686 591 551 591 c 2
 522 591 l 1
 522 246 l 2
 522 138 522 132 534 118 c 0
 549 99 586 92 676 92 c 2
 720 92 l 1
 720 0 l 1
 38 0 l 1
 38 92 l 1
 63 92 l 2
 152 92 188 99 203 118 c 0
 215 132 215 138 215 246 c 2
 215 986 l 2
 215 1094 215 1100 203 1114 c 0
 188 1133 152 1140 63 1140 c 2
 38 1140 l 1
 38 1232 l 1
 1167 1232 l 1
EndSplineSet
Validated: 1
EndChar

StartChar: G
Encoding: 71 71 203
Width: 1421
Flags: W
HStem: -26 89<564.769 858.266> 481 92<788 956.628 1254.71 1394> 1169 89<591.436 918.144>
VStem: 67 341<343.589 854.736> 963 279<168.657 456.348> 1152 90<761 894.829>
LayerCount: 2
Fore
SplineSet
1227 1251 m 1xf4
 1242 761 l 1
 1152 761 l 1xf4
 1096 1020 947 1169 746 1169 c 0
 645 1169 554 1121 505 1041 c 0
 442 939 408 789 408 608 c 0
 408 448 432 309 478 210 c 0
 521 118 606 63 710 63 c 0
 862 63 963 168 963 328 c 2
 963 352 l 2
 963 477 955 481 807 481 c 2
 788 481 l 1
 788 573 l 1
 1394 573 l 1
 1394 481 l 1
 1297 479 1269 474 1254 457 c 0
 1242 443 1242 436 1242 328 c 2xf8
 1242 -26 l 1
 1152 -26 l 1
 1068 143 l 1
 1019 92 992 70 949 44 c 0
 870 0 766 -26 662 -26 c 0
 309 -26 67 228 67 597 c 0
 67 785 120 928 236 1051 c 1
 362 1188 529 1258 725 1258 c 0
 848 1258 932 1234 1051 1166 c 1
 1152 1251 l 1
 1227 1251 l 1xf4
EndSplineSet
Validated: 1
EndChar

StartChar: H
Encoding: 72 72 204
Width: 1484
Flags: W
HStem: 0 92<34 199.281 531.719 698 787 951.281 1273.72 1451> 579 102<519 964> 1140 92<34 199.281 531.719 698 787 951.281 1273.93 1451>
VStem: 212 307<118.651 579 681 1113.35> 964 307<118.651 579 681 1113.35>
LayerCount: 2
Fore
SplineSet
964 579 m 1
 519 579 l 1
 519 246 l 2
 519 137 519 132 531 118 c 0
 546 99 583 92 672 92 c 2
 698 92 l 1
 698 0 l 1
 34 0 l 1
 34 92 l 1
 60 92 l 2
 149 92 185 99 200 118 c 0
 212 132 212 138 212 246 c 2
 212 985 l 2
 212 1094 212 1100 200 1114 c 0
 185 1133 149 1140 60 1140 c 2
 34 1140 l 1
 34 1232 l 1
 698 1232 l 1
 698 1140 l 1
 672 1140 l 2
 583 1140 546 1133 531 1114 c 0
 519 1100 519 1094 519 985 c 2
 519 681 l 1
 964 681 l 1
 964 985 l 2
 964 1093 964 1100 952 1114 c 0
 937 1133 901 1140 812 1140 c 2
 787 1140 l 1
 787 1232 l 1
 1451 1232 l 1
 1451 1140 l 1
 1425 1140 l 2
 1336 1140 1298 1133 1283 1114 c 0
 1271 1100 1271 1094 1271 985 c 2
 1271 246 l 2
 1271 137 1271 132 1283 118 c 0
 1298 99 1336 92 1425 92 c 2
 1451 92 l 1
 1451 0 l 1
 787 0 l 1
 787 92 l 1
 812 92 l 2
 901 92 937 99 952 118 c 0
 964 132 964 138 964 246 c 2
 964 579 l 1
EndSplineSet
Validated: 1
EndChar

StartChar: I
Encoding: 73 73 205
Width: 757
Flags: W
HStem: 0 92<48 212.281 534.715 712> 1140 92<48 212.281 534.715 712>
VStem: 225 307<118.651 1113.35>
LayerCount: 2
Fore
SplineSet
225 246 m 2
 225 986 l 2
 225 1094 225 1100 213 1114 c 0
 198 1133 162 1140 73 1140 c 2
 48 1140 l 1
 48 1232 l 1
 712 1232 l 1
 712 1140 l 1
 686 1140 l 2
 597 1140 559 1133 544 1114 c 0
 532 1100 532 1095 532 986 c 2
 532 246 l 2
 532 137 532 132 544 118 c 0
 559 99 597 92 686 92 c 2
 712 92 l 1
 712 0 l 1
 48 0 l 1
 48 92 l 1
 73 92 l 2
 162 92 198 99 213 118 c 0
 225 132 225 138 225 246 c 2
EndSplineSet
Validated: 1
EndChar

StartChar: J
Encoding: 74 74 206
Width: 1105
Flags: W
HStem: -26 105<198.079 497.156> 229 334<145.417 338.233> 1140 92<427 591.281 913.715 1091>
VStem: 7 136<140.742 384.5> 604 307<211.019 1113.35>
LayerCount: 2
Fore
SplineSet
911 986 m 2
 911 478 l 2
 911 275 869 164 761 79 c 0
 674 9 560 -26 420 -26 c 0
 164 -26 7 103 7 311 c 0
 7 458 95 563 218 563 c 0
 320 563 394 490 394 389 c 0
 394 297 327 229 237 229 c 0
 223 229 211 231 196 234 c 0
 187 236 181 237 176 237 c 0
 157 237 143 224 143 205 c 0
 143 138 239 79 345 79 c 0
 434 79 515 118 558 179 c 0
 592 230 604 295 604 418 c 2
 604 986 l 2
 604 1095 604 1100 592 1114 c 0
 577 1133 541 1140 452 1140 c 2
 427 1140 l 1
 427 1232 l 1
 1091 1232 l 1
 1091 1140 l 1
 1065 1140 l 2
 976 1140 938 1133 923 1114 c 0
 911 1100 911 1095 911 986 c 2
EndSplineSet
Validated: 1
EndChar

StartChar: K
Encoding: 75 75 207
Width: 1390
Flags: W
HStem: 0 92<26 190.281 512.93 689 775 912.973 1279.13 1396> 1140 92<26 190.281 512.93 689 775 941.401 1200.18 1350>
VStem: 203 307<118.651 427 587 1113.35>
LayerCount: 2
Fore
SplineSet
654 577 m 1
 510 427 l 1
 510 246 l 2
 510 138 510 132 522 118 c 0
 537 99 575 92 664 92 c 2
 689 92 l 1
 689 0 l 1
 26 0 l 1
 26 92 l 1
 51 92 l 2
 140 92 176 99 191 118 c 0
 203 132 203 138 203 246 c 2
 203 986 l 2
 203 1094 203 1100 191 1114 c 0
 176 1133 140 1140 51 1140 c 2
 26 1140 l 1
 26 1232 l 1
 689 1232 l 1
 689 1140 l 1
 664 1140 l 2
 575 1140 537 1133 522 1114 c 0
 510 1100 510 1094 510 986 c 2
 510 587 l 1
 887 986 l 2
 918 1020 944 1061 944 1080 c 0
 944 1119 900 1140 816 1140 c 2
 775 1140 l 1
 775 1232 l 1
 1350 1232 l 1
 1350 1140 l 1
 1237 1133 1152 1084 1004 939 c 1
 862 790 l 1
 1217 224 l 2
 1296 101 1302 97 1396 92 c 1
 1396 0 l 1
 775 0 l 1
 775 92 l 1
 797 92 l 2
 876 92 913 104 913 131 c 0
 913 146 907 162 893 186 c 2
 654 577 l 1
EndSplineSet
Validated: 1
EndChar

StartChar: L
Encoding: 76 76 208
Width: 1232
Flags: W
HStem: 0 92<32 197.281 544.94 892.215> 1140 92<32 197.281 519.93 708>
VStem: 210 307<118.651 1113.35> 1106 90<330.874 459>
LayerCount: 2
Fore
SplineSet
1106 459 m 1
 1196 459 l 1
 1176 0 l 1
 32 0 l 1
 32 92 l 1
 58 92 l 2
 147 92 183 99 198 118 c 0
 210 132 210 138 210 247 c 2
 210 986 l 2
 210 1094 210 1100 198 1114 c 0
 183 1133 147 1140 58 1140 c 2
 32 1140 l 1
 32 1232 l 1
 708 1232 l 1
 708 1140 l 1
 671 1140 l 2
 581 1140 544 1133 529 1114 c 0
 517 1100 517 1094 517 986 c 2
 517 212 l 2
 517 156 522 136 544 116 c 0
 564 96 587 92 671 92 c 2
 707 92 l 2
 828 92 925 136 995 220 c 0
 1041 276 1072 341 1106 459 c 1
EndSplineSet
Validated: 1
EndChar

StartChar: M
Encoding: 77 77 209
Width: 1674
Flags: W
HStem: 0 92<15 153.72 359.282 502 995 1154.28 1487.72 1647> 1140 92<27 197.07 1487.72 1647>
VStem: 200 114<138.011 1078.39> 1167 308<118.652 1096.4>
LayerCount: 2
Fore
SplineSet
577 1232 m 1
 841 498 l 1
 1091 1232 l 1
 1647 1232 l 1
 1647 1140 l 1
 1628 1140 l 2
 1538 1140 1502 1133 1487 1114 c 0
 1475 1100 1475 1092 1475 986 c 2
 1475 246 l 2
 1475 140 1475 132 1487 118 c 0
 1502 99 1538 92 1628 92 c 2
 1647 92 l 1
 1647 0 l 1
 995 0 l 1
 995 92 l 1
 1014 92 l 2
 1104 92 1140 99 1155 118 c 0
 1167 132 1167 138 1167 246 c 2
 1167 1097 l 1
 790 0 l 1
 701 0 l 1
 314 1080 l 1
 314 370 l 2
 314 218 322 176 358 138 c 0
 385 109 434 94 502 92 c 1
 502 0 l 1
 15 0 l 1
 15 92 l 1
 82 94 128 109 155 138 c 0
 191 176 200 220 200 370 c 2
 200 986 l 2
 200 1094 200 1100 188 1114 c 0
 173 1133 136 1140 46 1140 c 2
 27 1140 l 1
 27 1232 l 1
 577 1232 l 1
EndSplineSet
Validated: 1
EndChar

StartChar: N
Encoding: 78 78 210
Width: 1421
Flags: W
HStem: 0 94<27 165.725 371.278 514> 1140 92<31 161.357 935 1073.72 1279.28 1422>
VStem: 212 114<140.011 932> 1120 114<461 1093.99>
LayerCount: 2
Fore
SplineSet
461 1232 m 1
 1120 461 l 1
 1120 862 l 2
 1120 1012 1111 1056 1075 1094 c 0
 1048 1123 1002 1138 935 1140 c 1
 935 1232 l 1
 1422 1232 l 1
 1422 1140 l 1
 1354 1138 1305 1123 1278 1094 c 0
 1242 1056 1234 1014 1234 862 c 2
 1234 -12 l 1
 1120 -12 l 1
 326 932 l 1
 326 370 l 2
 326 220 334 178 370 140 c 0
 397 111 441 97 514 94 c 1
 514 0 l 1
 27 0 l 1
 27 94 l 1
 100 97 140 111 167 140 c 0
 203 178 212 220 212 370 c 2
 212 1043 l 1
 169 1104 108 1138 31 1140 c 1
 31 1232 l 1
 461 1232 l 1
EndSplineSet
Validated: 1
EndChar

StartChar: O
Encoding: 79 79 211
Width: 1421
Flags: W
HStem: -26 89<568.924 855.641> 1169 89<563.019 852.341>
VStem: 67 341<359.654 843.378> 1014 341<364.994 841.948>
LayerCount: 2
Fore
SplineSet
712 1258 m 0
 879 1258 1012 1212 1126 1113 c 0
 1268 992 1355 797 1355 599 c 0
 1355 399 1273 226 1126 108 c 0
 1012 18 877 -26 703 -26 c 0
 333 -26 67 235 67 597 c 0
 67 797 152 990 295 1113 c 0
 406 1210 546 1258 712 1258 c 0
713 1169 m 0
 612 1169 544 1132 495 1048 c 0
 437 951 408 814 408 630 c 0
 408 451 439 301 495 195 c 0
 543 106 614 63 713 63 c 0
 908 63 1014 251 1014 597 c 0
 1014 781 983 936 927 1038 c 0
 878 1125 805 1169 713 1169 c 0
EndSplineSet
Validated: 1
EndChar

StartChar: P
Encoding: 80 80 212
Width: 1295
Flags: W
HStem: 0 92<41 206.281 538.719 717> 529 94<526 827.784> 1138 94<41 206.281 531.62 847.48>
VStem: 218 308<116.697 529 623 1113.4> 925 329<715.194 1056.47>
LayerCount: 2
Fore
SplineSet
526 529 m 1
 526 246 l 2
 526 137 526 131 538 116 c 0
 553 99 589 92 679 92 c 2
 717 92 l 1
 717 0 l 1
 41 0 l 1
 41 92 l 1
 67 92 l 2
 156 92 192 99 207 116 c 0
 217 129 218 135 218 205 c 0
 218 217 218 230 218 246 c 2
 218 985 l 2
 218 1001 218 1014 218 1026 c 0
 218 1096 217 1101 207 1114 c 0
 192 1131 156 1138 67 1138 c 2
 41 1138 l 1
 41 1232 l 1
 719 1232 l 2
 890 1232 990 1215 1082 1172 c 0
 1191 1121 1254 1017 1254 889 c 0
 1254 650 1074 529 717 529 c 2
 526 529 l 1
526 623 m 1
 625 623 l 2
 845 623 925 695 925 891 c 0
 925 1062 850 1138 688 1138 c 2
 620 1138 l 2
 543 1138 526 1120 526 1036 c 2
 526 623 l 1
EndSplineSet
Validated: 1
EndChar

StartChar: Q
Encoding: 81 81 213
Width: 1421
Flags: W
HStem: -321 159<996.5 1254.68> -26 89<567.758 804.512> 398 97<556.522 763.775> 1169 89<561.818 844.861>
VStem: 65 341<376.903 859.845> 1007 341<381.284 855.062> 1287 92<-150.11 -31>
LayerCount: 2
Fore
SplineSet
806 -43 m 2xfa
 806 -17 l 1
 765 -24 739 -26 698 -26 c 0
 507 -26 352 43 229 183 c 0
 121 304 65 454 65 620 c 0
 65 982 343 1258 710 1258 c 0
 1065 1258 1348 975 1348 620 c 0xfc
 1348 400 1239 194 1058 75 c 1
 1121 -116 1150 -162 1203 -162 c 0
 1256 -162 1278 -127 1287 -31 c 1
 1379 -31 l 1
 1379 -44 l 2
 1379 -208 1259 -321 1085 -321 c 0
 908 -321 806 -220 806 -43 c 2xfa
964 299 m 1
 991 371 1007 494 1007 631 c 0
 1007 776 983 910 940 1009 c 0
 894 1115 815 1169 707 1169 c 0
 509 1169 406 992 406 647 c 0
 406 505 418 396 442 323 c 1
 462 376 476 401 503 427 c 0
 547 470 616 495 688 495 c 0
 775 495 858 457 913 394 c 0
 935 367 945 347 964 299 c 1
809 90 m 1
 812 128 814 154 814 171 c 0
 814 318 759 398 660 398 c 0
 571 398 510 326 510 225 c 0
 510 128 587 63 701 63 c 0
 742 63 765 68 809 90 c 1
EndSplineSet
Validated: 1
EndChar

StartChar: R
Encoding: 82 82 214
Width: 1390
Flags: W
HStem: -26 144<1030 1278.38> 0 94<34 199.281 531.719 717> 592 94<519 755.328> 1140 92<34 199.281 524.397 840.112>
VStem: 212 307<118.696 592 686 1115.3> 911 326<771.646 1071.1> 1302 92<131.57 280>
LayerCount: 2
Fore
SplineSet
519 592 m 1xbe
 519 247 l 2
 519 138 519 133 531 118 c 0xbe
 546 101 583 94 672 94 c 2
 717 94 l 1
 717 0 l 1
 34 0 l 1
 34 94 l 1
 60 94 l 2x7e
 149 94 185 101 200 118 c 0
 212 133 212 138 212 247 c 2
 212 986 l 2
 212 1095 212 1101 200 1116 c 0
 185 1133 149 1140 60 1140 c 2
 34 1140 l 1
 34 1232 l 1
 763 1232 l 2
 920 1232 1034 1212 1099 1171 c 0
 1188 1113 1237 1025 1237 923 c 0
 1237 812 1177 719 1073 666 c 0
 1030 646 986 633 896 616 c 1
 1044 567 1109 490 1135 336 c 1
 1147 271 l 2
 1150 247 1154 231 1154 224 c 0
 1163 169 1164 157 1174 143 c 0
 1184 128 1205 118 1224 118 c 0
 1275 118 1300 172 1302 280 c 1
 1394 280 l 1
 1394 259 l 2
 1394 78 1288 -26 1104 -26 c 0
 956 -26 860 44 831 177 c 0
 826 204 817 277 807 391 c 1
 800 488 793 509 766 541 c 0
 735 575 687 592 614 592 c 2
 519 592 l 1xbe
519 686 m 1
 613 686 l 2
 840 686 911 741 911 915 c 0
 911 1070 840 1140 681 1140 c 2
 640 1140 l 2
 531 1140 519 1128 519 1031 c 2
 519 686 l 1
EndSplineSet
Validated: 1
EndChar

StartChar: S
Encoding: 83 83 215
Width: 1138
Flags: W
HStem: -26 89<458.262 791.621> 1169 89<361.192 684.31>
VStem: 89 196<776.995 1057.75> 89 85<379.969 471> 876 204<196.949 489.5> 935 91<802 897.13>
LayerCount: 2
Fore
SplineSet
1004 1244 m 1xe8
 1026 802 l 1
 935 802 l 1
 834 1044 692 1169 515 1169 c 0
 380 1169 285 1094 285 990 c 0xe4
 285 920 324 870 401 843 c 0
 444 828 444 828 575 802 c 1
 657 783 l 1
 952 718 1080 598 1080 381 c 0
 1080 142 896 -26 630 -26 c 0
 493 -26 384 10 280 89 c 1
 174 -12 l 1
 97 -12 l 1
 89 471 l 1
 174 471 l 1xd8
 268 215 437 63 630 63 c 0
 778 63 876 144 876 263 c 0
 876 323 848 373 800 399 c 0
 759 421 725 431 616 451 c 2
 510 471 l 1
 242 520 89 669 89 877 c 0
 89 1104 268 1258 531 1258 c 0
 650 1258 742 1231 838 1166 c 1
 927 1244 l 1
 1004 1244 l 1xe8
EndSplineSet
Validated: 1
EndChar

StartChar: T
Encoding: 84 84 216
Width: 1232
Flags: W
HStem: 0 92<271 460.07 782.719 961> 1143 89<271.931 461.878 771.044 959.971>
VStem: 26 90<770 942.284> 463 307<118.651 1142.37> 1116 91<770 938.641>
LayerCount: 2
Fore
SplineSet
1181 1232 m 1
 1207 770 l 1
 1116 770 l 1
 1090 908 1063 980 1015 1043 c 0
 960 1113 904 1143 831 1143 c 0
 780 1143 770 1131 770 1073 c 2
 770 246 l 2
 770 138 770 132 782 118 c 0
 797 99 833 92 923 92 c 2
 961 92 l 1
 961 0 l 1
 271 0 l 1
 271 92 l 1
 309 92 l 2
 399 92 436 99 451 118 c 0
 463 132 463 138 463 246 c 2
 463 1073 l 2
 463 1131 452 1143 401 1143 c 0
 322 1143 258 1104 203 1022 c 0
 162 962 138 896 116 770 c 1
 26 770 l 1
 51 1232 l 1
 1181 1232 l 1
EndSplineSet
Validated: 1
EndChar

StartChar: U
Encoding: 85 85 217
Width: 1421
Flags: W
HStem: -26 128<615.007 969.938> 1140 92<26 190.281 512.93 689 920 1058.72 1264.28 1406>
VStem: 203 307<204.994 1113.35> 1104 115<236.024 1093.99>
LayerCount: 2
Fore
SplineSet
510 986 m 2
 510 440 l 2
 510 315 529 232 567 186 c 1
 615 131 688 102 785 102 c 0
 927 102 1026 157 1075 265 c 0
 1097 313 1104 379 1104 519 c 2
 1104 862 l 2
 1104 1014 1096 1056 1060 1094 c 0
 1033 1123 987 1138 920 1140 c 1
 920 1232 l 1
 1406 1232 l 1
 1406 1140 l 1
 1338 1138 1290 1123 1263 1094 c 0
 1227 1056 1219 1012 1219 862 c 2
 1219 519 l 2
 1219 318 1205 241 1157 164 c 0
 1073 33 942 -26 724 -26 c 0
 483 -26 317 43 247 171 c 0
 215 231 203 302 203 445 c 2
 203 986 l 2
 203 1094 203 1100 191 1114 c 0
 176 1133 140 1140 51 1140 c 2
 26 1140 l 1
 26 1232 l 1
 689 1232 l 1
 689 1140 l 1
 664 1140 l 2
 575 1140 537 1133 522 1114 c 0
 510 1100 510 1094 510 986 c 2
EndSplineSet
Validated: 1
EndChar

StartChar: V
Encoding: 86 86 218
Width: 1295
Flags: W
HStem: 1140 92<-31 99.1948 445.023 587 824 928.873 1214.28 1328>
LayerCount: 2
Fore
SplineSet
732 352 m 1
 975 959 l 2
 985 985 990 1005 990 1024 c 0
 990 1065 968 1102 930 1121 c 0
 906 1135 879 1140 824 1140 c 1
 824 1232 l 1
 1328 1232 l 1
 1328 1140 l 1
 1224 1130 1147 1060 1092 923 c 2
 701 -26 l 1
 551 -26 l 1
 137 1022 l 2
 98 1121 70 1140 -31 1140 c 1
 -31 1232 l 1
 587 1232 l 1
 587 1140 l 1
 551 1140 l 2
 476 1140 445 1128 445 1097 c 0
 445 1087 451 1068 461 1041 c 2
 732 352 l 1
EndSplineSet
Validated: 1
EndChar

StartChar: W
Encoding: 87 87 219
Width: 1674
Flags: W
HStem: 1140 92<10 117.07 439.015 539 616 705.255 1021.01 1121 1231 1324.97 1561.98 1661>
LayerCount: 2
Fore
SplineSet
1213 440 m 1
 1362 927 l 2
 1381 988 1384 1007 1384 1031 c 0
 1384 1072 1362 1108 1326 1125 c 0
 1304 1135 1280 1138 1231 1140 c 1
 1231 1232 l 1
 1661 1232 l 1
 1661 1140 l 1
 1559 1120 1525 1080 1476 911 c 1
 1179 -26 l 1
 1055 -26 l 1
 841 669 l 1
 616 -26 l 1
 488 -26 l 1
 140 1041 l 2
 113 1123 91 1140 14 1140 c 2
 10 1140 l 1
 10 1232 l 1
 539 1232 l 1
 539 1140 l 1
 459 1137 439 1128 439 1097 c 0
 439 1085 442 1068 452 1039 c 2
 650 428 l 1
 787 857 l 1
 725 1050 l 1
 699 1123 683 1137 616 1140 c 1
 616 1232 l 1
 1121 1232 l 1
 1121 1140 l 1
 1041 1135 1021 1126 1021 1094 c 0
 1021 1084 1022 1074 1031 1048 c 2
 1213 440 l 1
EndSplineSet
Validated: 1
EndChar

StartChar: X
Encoding: 88 88 220
Width: 1232
Flags: W
HStem: 0 92<-20 119.659 374.853 544 640 752.979 1137.95 1254> 1140 92<-20 91.5986 474.012 591 684 833.298 1076.45 1210>
LayerCount: 2
Fore
SplineSet
736 705 m 1
 1038 265 l 2
 1144 111 1164 95 1254 92 c 1
 1254 0 l 1
 640 0 l 1
 640 92 l 1
 725 94 753 104 753 133 c 0
 753 150 744 174 730 191 c 2
 544 457 l 1
 394 266 l 2
 372 239 360 208 360 181 c 0
 360 121 414 95 544 92 c 1
 544 0 l 1
 -20 0 l 1
 -20 92 l 1
 79 95 126 125 225 246 c 2
 476 555 l 1
 126 1053 l 2
 78 1121 55 1135 -20 1140 c 1
 -20 1232 l 1
 591 1232 l 1
 591 1140 l 1
 490 1137 474 1131 474 1099 c 0
 474 1085 480 1072 492 1055 c 2
 671 797 l 1
 790 944 l 2
 831 992 848 1026 848 1053 c 0
 848 1109 792 1140 684 1140 c 1
 684 1232 l 1
 1210 1232 l 1
 1210 1140 l 1
 1121 1133 1062 1099 985 1009 c 1
 736 705 l 1
EndSplineSet
Validated: 1
EndChar

StartChar: Y
Encoding: 89 89 221
Width: 1232
Flags: W
HStem: 0 92<271 460.07 782.719 961> 1140 92<-20 102.213 471.023 594 751 899.884 1124.93 1254>
VStem: 463 307<118.651 521>
LayerCount: 2
Fore
SplineSet
717 676 m 1
 887 980 l 2
 901 1007 911 1038 911 1058 c 0
 911 1107 862 1140 787 1140 c 2
 751 1140 l 1
 751 1232 l 1
 1254 1232 l 1
 1254 1140 l 1
 1158 1133 1091 1087 1026 981 c 1
 770 543 l 1
 770 246 l 2
 770 138 770 132 782 118 c 0
 797 99 833 92 923 92 c 2
 961 92 l 1
 961 0 l 1
 271 0 l 1
 271 92 l 1
 309 92 l 2
 399 92 436 99 451 118 c 0
 463 132 463 140 463 246 c 2
 463 521 l 1
 114 1079 l 2
 82 1128 57 1140 -20 1140 c 1
 -20 1232 l 1
 594 1232 l 1
 594 1140 l 1
 567 1140 l 2
 502 1140 471 1129 471 1103 c 0
 471 1088 475 1077 492 1050 c 2
 717 676 l 1
EndSplineSet
Validated: 1
EndChar

StartChar: Z
Encoding: 90 90 222
Width: 1138
Flags: W
HStem: 0 94<398 786.141> 1138 94<363.318 725>
VStem: 84 87<802 916.375> 992 90<329.854 471>
LayerCount: 2
Fore
SplineSet
1082 1232 m 1
 1082 1138 l 1
 398 94 l 1
 550 94 l 2
 671 94 718 101 771 128 c 0
 880 183 961 307 992 471 c 1
 1082 471 l 1
 1055 0 l 1
 41 0 l 1
 41 99 l 1
 725 1138 l 1
 599 1138 l 2
 418 1138 338 1106 263 1000 c 0
 225 949 200 894 171 802 c 1
 84 802 l 1
 104 1232 l 1
 1082 1232 l 1
EndSplineSet
Validated: 1
EndChar

StartChar: bracketleft
Encoding: 91 91 223
Width: 663
Flags: W
HStem: -184 85<353 579> 1147 85<353 579>
VStem: 143 210<-99 1147>
LayerCount: 2
Fore
SplineSet
579 1232 m 1
 579 1147 l 1
 353 1147 l 1
 353 -99 l 1
 579 -99 l 1
 579 -184 l 1
 143 -184 l 1
 143 1232 l 1
 579 1232 l 1
EndSplineSet
Validated: 1
EndChar

StartChar: backslash
Encoding: 92 92 224
Width: 1034
Flags: W
HStem: 0 21G<809.299 947> 1238 20G<85 223.685>
LayerCount: 2
Fore
SplineSet
212 1258 m 1
 947 0 l 1
 821 0 l 1
 85 1258 l 1
 212 1258 l 1
EndSplineSet
Validated: 1
EndChar

StartChar: bracketright
Encoding: 93 93 225
Width: 663
Flags: W
HStem: -184 85<53 278> 1147 85<53 278>
VStem: 278 210<-99 1147>
LayerCount: 2
Fore
SplineSet
53 -184 m 1
 53 -99 l 1
 278 -99 l 1
 278 1147 l 1
 53 1147 l 1
 53 1232 l 1
 488 1232 l 1
 488 -184 l 1
 53 -184 l 1
EndSplineSet
Validated: 1
EndChar

StartChar: asciicircum
Encoding: 94 94 226
Width: 1034
Flags: W
HStem: 1212 20G<434.666 601.276>
LayerCount: 2
Fore
SplineSet
945 543 m 1
 742 543 l 1
 519 969 l 1
 292 543 l 1
 89 543 l 1
 445 1232 l 1
 591 1232 l 1
 945 543 l 1
EndSplineSet
Validated: 1
EndChar

StartChar: underscore
Encoding: 95 95 227
Width: 853
Flags: W
HStem: -253 154<0 853>
LayerCount: 2
Fore
SplineSet
0 -99 m 1
 853 -99 l 1
 853 -253 l 1
 0 -253 l 1
 0 -99 l 1
EndSplineSet
Validated: 1
EndChar

StartChar: grave
Encoding: 96 96 228
Width: 568
Flags: W
HStem: 930 323
VStem: 3 422
LayerCount: 2
Fore
SplineSet
425 930 m 1
 316 930 l 1
 65 1079 l 2
 24 1103 3 1133 3 1167 c 0
 3 1215 46 1253 101 1253 c 0
 130 1253 157 1242 183 1222 c 0
 193 1215 193 1215 232 1166 c 2
 425 930 l 1
EndSplineSet
Validated: 1
EndChar

StartChar: a
Encoding: 97 97 229
Width: 1042
Flags: W
HStem: -26 145<787.5 962.105> -26 116<241 545.396> 744 89<351.72 586.587>
VStem: 61 285<112.007 303.002> 108 238<557.192 724.197> 613 268<148.375 401 483.016 718.254>
LayerCount: 2
Fore
SplineSet
881 543 m 2x6c
 881 242 l 2
 881 143 889 119 927 119 c 0
 939 119 944 121 959 131 c 0
 973 140 983 143 993 143 c 0
 1008 143 1019 133 1019 116 c 0
 1019 43 928 -26 831 -26 c 0xac
 744 -26 679 19 650 96 c 1
 560 7 471 -26 324 -26 c 0
 158 -26 61 48 61 174 c 0x74
 61 276 119 345 244 396 c 0
 324 428 384 443 556 481 c 0
 571 483 594 488 613 493 c 1
 613 582 l 2
 613 700 575 744 473 744 c 0
 405 744 346 718 346 689 c 0
 346 680 347 679 362 660 c 0
 377 640 386 616 386 596 c 0
 386 533 325 485 246 485 c 0
 167 485 108 540 108 613 c 0
 108 746 261 833 497 833 c 0
 630 833 737 805 800 754 c 0
 860 706 881 654 881 543 c 2x6c
613 401 m 1
 522 381 l 2
 399 352 346 300 346 210 c 0
 346 137 389 90 456 90 c 0x74
 552 90 613 174 613 305 c 2
 613 401 l 1
EndSplineSet
Validated: 1
EndChar

StartChar: b
Encoding: 98 98 230
Width: 1105
Flags: W
HStem: -26 89<477.554 678.754> 705 128<502.052 685.605> 1145 87<0 134.617> 1238 20G<94.6154 410>
VStem: 142 268<136 618.625 705 1140.27> 749 295<208.395 622.497>
LayerCount: 2
Fore
SplineSet
410 1258 m 1
 410 705 l 1
 480 794 560 833 674 833 c 0
 891 833 1044 660 1044 418 c 0
 1044 155 867 -26 608 -26 c 0
 480 -26 392 16 312 113 c 1
 201 -26 l 1
 118 -26 l 1
 135 68 142 186 142 352 c 2
 142 986 l 2
 142 1138 136 1145 32 1145 c 2
 0 1145 l 1
 0 1232 l 1
 410 1258 l 1
589 705 m 0
 470 705 408 589 408 362 c 0
 408 169 467 63 580 63 c 0
 691 63 749 178 749 398 c 0
 749 603 697 705 589 705 c 0
EndSplineSet
Validated: 1
EndChar

StartChar: c
Encoding: 99 99 231
Width: 948
Flags: W
HStem: -26 116<447.563 703.011> 744 89<436.668 641.302>
VStem: 53 295<200.493 582.752> 642 239<547.264 726.654>
LayerCount: 2
Fore
SplineSet
811 302 m 1
 899 273 l 1
 873 193 846 141 797 90 c 1
 722 8 638 -26 512 -26 c 0
 237 -26 53 142 53 391 c 0
 53 649 258 833 541 833 c 0
 748 833 881 741 881 601 c 0
 881 514 821 456 727 456 c 0
 645 456 587 507 587 580 c 0
 587 612 594 628 623 664 c 0
 638 683 642 691 642 696 c 0
 642 723 600 744 551 744 c 0
 423 744 348 625 348 422 c 0
 348 210 429 90 567 90 c 0
 637 90 705 122 746 177 c 0
 772 211 787 239 811 302 c 1
EndSplineSet
Validated: 1
EndChar

StartChar: d
Encoding: 100 100 232
Width: 1138
Flags: W
HStem: -26 116<426.356 610.513> 0 21G<717 1116> 19 92<990.65 1116> 717 116<431.753 622.068> 1145 87<538 693.934> 1238 20G<637.462 969>
VStem: 63 295<181.837 596.103> 701 268<182.498 631.375 717 1140.27>
LayerCount: 2
Fore
SplineSet
969 1258 m 1x9f
 969 208 l 2
 969 157 975 137 990 123 c 0
 1004 111 1009 111 1070 111 c 2
 1116 111 l 1
 1116 19 l 1x3f
 717 0 l 1x5f
 717 123 l 1
 647 21 560 -26 437 -26 c 0
 215 -26 63 144 63 391 c 0
 63 640 234 833 452 833 c 0
 560 833 636 796 701 717 c 1
 701 986 l 2
 701 1138 696 1145 592 1145 c 2
 538 1145 l 1
 538 1232 l 1
 969 1258 l 1x9f
531 717 m 0
 422 717 358 597 358 394 c 0
 358 199 419 90 527 90 c 0x9f
 633 90 705 218 705 404 c 0
 705 593 637 717 531 717 c 0
EndSplineSet
Validated: 1
EndChar

StartChar: e
Encoding: 101 101 233
Width: 979
Flags: W
HStem: -26 116<448.831 724.013> 389 94<352 653.675> 744 89<419.738 607.714>
VStem: 55 295<204.195 389 483 586.061> 654 268<483.01 622.285>
LayerCount: 2
Fore
SplineSet
922 389 m 1
 350 389 l 1
 352 292 364 239 393 193 c 0
 436 128 503 90 582 90 c 0
 693 90 770 147 838 280 c 1
 922 246 l 1
 847 63 715 -26 515 -26 c 0
 385 -26 272 12 193 79 c 0
 108 152 55 275 55 396 c 0
 55 509 100 621 177 701 c 0
 262 788 377 833 514 833 c 0
 763 833 922 670 922 416 c 2
 922 389 l 1
352 483 m 1
 608 483 l 2
 642 483 654 497 654 538 c 0
 654 673 606 744 519 744 c 0
 417 744 352 645 352 483 c 1
EndSplineSet
Validated: 1
EndChar

StartChar: f
Encoding: 102 102 234
Width: 663
Flags: W
HStem: 0 85<36 168.068 444.045 599> 705 102<24 172 440 654> 1162 89<479.048 577.79>
VStem: 172 268<91.3144 705 807 1038.98> 579 213<1012.72 1160.52>
LayerCount: 2
Fore
SplineSet
654 807 m 1
 654 705 l 1
 440 705 l 1
 440 246 l 1
 440 166 l 2
 440 98 459 85 568 85 c 2
 599 85 l 1
 599 0 l 1
 36 0 l 1
 36 85 l 1
 43 85 l 2
 154 85 172 98 172 166 c 2
 172 246 l 1
 172 705 l 1
 24 705 l 1
 24 807 l 1
 172 807 l 1
 172 829 l 2
 172 1082 320 1251 544 1251 c 0
 686 1251 792 1171 792 1065 c 0
 792 985 734 925 655 925 c 0
 583 925 527 976 527 1043 c 0
 527 1075 544 1113 570 1133 c 0
 577 1140 579 1144 579 1149 c 0
 579 1156 566 1162 551 1162 c 0
 517 1162 478 1133 461 1094 c 0
 444 1056 440 1019 440 905 c 2
 440 807 l 1
 654 807 l 1
EndSplineSet
Validated: 1
EndChar

StartChar: g
Encoding: 103 103 235
Width: 1042
Flags: W
HStem: -345 89<302.302 706.12> -73 239<338.143 713.647> 271 82<403.098 577.878> 744 89<402.229 583.872> 790 128<809.961 974.5>
VStem: 51 222<-223.206 -82.6376> 77 261<95.5 235.868> 87 277<397.989 679.181> 620 276<404.788 686.313> 741 222<-197.862 -13>
LayerCount: 2
Fore
SplineSet
449 166 m 2xf240
 567 166 l 2
 690 166 765 159 821 140 c 1
 906 114 963 35 963 -61 c 0
 963 -244 785 -345 468 -345 c 0
 190 -345 51 -290 51 -177 c 0xf440
 51 -97 118 -43 232 -26 c 1
 133 1 77 58 77 133 c 0xf2
 77 222 142 276 275 300 c 1
 152 343 87 427 87 541 c 0
 87 710 256 833 490 833 c 0xf1
 577 833 654 815 719 783 c 1
 794 877 860 918 937 918 c 0
 1012 918 1063 874 1063 807 c 0
 1063 746 1017 698 957 698 c 0
 911 698 865 736 865 775 c 2
 865 782 l 2
 865 789 862 790 857 790 c 0xe9
 837 790 816 775 794 744 c 1
 869 683 896 630 896 550 c 0xf180
 896 446 840 358 741 312 c 0
 676 281 611 271 498 271 c 2
 468 271 l 2
 369 271 338 258 338 215 c 0
 338 174 359 166 449 166 c 2xf240
495 744 m 0
 408 744 364 681 364 556 c 0
 364 501 372 453 391 415 c 1
 410 372 442 353 493 353 c 0
 573 353 620 425 620 546 c 0xf180
 620 676 577 744 495 744 c 0
560 -73 m 2
 336 -73 l 1
 293 -92 273 -119 273 -157 c 0
 273 -220 349 -256 480 -256 c 0
 656 -256 741 -222 741 -152 c 0xe440
 741 -130 730 -106 715 -96 c 0
 686 -77 666 -73 560 -73 c 2
EndSplineSet
Validated: 1
EndChar

StartChar: h
Encoding: 104 104 236
Width: 1169
Flags: W
HStem: 0 87<32 165.508 440.121 553 616 730.858 1005.47 1137> 674 159<550.894 771.5> 1145 87<27 161.582> 1238 20G<121.615 437>
VStem: 169 268<93.397 604.972 674 1141.44> 734 268<93.0005 645.142>
LayerCount: 2
Fore
SplineSet
437 1258 m 1
 437 674 l 1
 509 783 597 833 727 833 c 0
 816 833 891 804 937 751 c 1
 983 702 1002 637 1002 531 c 2
 1002 246 l 1
 1002 167 l 2
 1002 97 1021 87 1130 87 c 2
 1137 87 l 1
 1137 0 l 1
 616 0 l 1
 616 87 l 1
 717 87 734 99 734 166 c 2
 734 246 l 1
 734 507 l 2
 734 616 692 674 613 674 c 0
 550 674 490 634 463 573 c 0
 444 532 437 488 437 411 c 2
 437 246 l 1
 437 167 l 2
 437 97 454 87 553 87 c 1
 553 0 l 1
 32 0 l 1
 32 87 l 1
 39 87 l 2
 150 87 169 98 169 166 c 2
 169 246 l 1
 169 980 l 1
 167 1142 166 1145 60 1145 c 2
 27 1145 l 1
 27 1232 l 1
 437 1258 l 1
EndSplineSet
Validated: 1
EndChar

StartChar: i
Encoding: 105 105 237
Width: 631
Flags: W
HStem: 0 87<48 177.662 452.418 582> 708 87<48 173.934> 956 302<205.56 415.875>
VStem: 159 302<1002.72 1213.75> 181 268<93.0411 703.076>
LayerCount: 2
Fore
SplineSet
449 807 m 1xe8
 449 246 l 1
 449 166 l 2
 449 99 468 87 572 87 c 2
 582 87 l 1
 582 0 l 1
 48 0 l 1
 48 87 l 1
 55 87 l 2
 163 87 181 99 181 167 c 2
 181 246 l 1
 181 548 l 2
 181 700 176 708 72 708 c 2
 48 708 l 1
 48 795 l 1
 449 807 l 1xe8
311 1258 m 0
 393 1258 461 1190 461 1108 c 0
 461 1023 392 956 307 956 c 0
 227 956 159 1026 159 1108 c 0xf0
 159 1190 227 1258 311 1258 c 0
EndSplineSet
Validated: 1
EndChar

StartChar: j
Encoding: 106 106 238
Width: 600
Flags: W
HStem: -345 80<58.112 164.646> 708 87<26 181.955> 956 302<209.109 419.375>
VStem: -140 244<-242.624 -76.4358> 162 302<1002.72 1213.75> 189 268<-139.473 703.024>
LayerCount: 2
Fore
SplineSet
314 1258 m 0xf8
 396 1258 464 1190 464 1108 c 0
 464 1023 396 956 311 956 c 0
 231 956 162 1026 162 1108 c 0
 162 1190 230 1258 314 1258 c 0xf8
457 807 m 1xf4
 457 186 l 2
 457 9 442 -87 398 -172 c 0
 345 -278 227 -345 99 -345 c 0
 -41 -345 -140 -273 -140 -174 c 0
 -140 -101 -84 -46 -7 -46 c 0
 58 -46 104 -93 104 -160 c 0
 104 -198 91 -222 55 -246 c 1
 65 -260 77 -265 99 -265 c 0
 160 -265 189 -212 189 -96 c 2
 189 561 l 2
 189 698 181 708 80 708 c 2
 26 708 l 1
 26 795 l 1
 457 807 l 1xf4
EndSplineSet
Validated: 1
EndChar

StartChar: k
Encoding: 107 107 239
Width: 1138
Flags: W
HStem: 0 87<26 158.508 433.121 546 604 687.983 1029.68 1126> 720 87<561 683.569 889.141 1063> 1145 87<20 154.934> 1238 20G<114.615 430>
VStem: 162 268<93.397 294 420 1140.27>
LayerCount: 2
Fore
SplineSet
430 1258 m 1
 430 420 l 1
 642 604 l 2
 673 631 684 652 684 672 c 0
 684 703 647 720 582 720 c 2
 561 720 l 1
 561 807 l 1
 1063 807 l 1
 1063 720 l 1
 1024 720 l 2
 959 720 910 700 840 640 c 2
 708 531 l 1
 976 196 l 1
 1051 99 1066 87 1126 87 c 1
 1126 0 l 1
 604 0 l 1
 604 87 l 1
 621 87 l 2
 665 87 688 99 688 121 c 0
 688 136 680 157 666 174 c 2
 509 364 l 1
 430 294 l 1
 430 246 l 1
 430 167 l 2
 430 99 447 87 546 87 c 1
 546 0 l 1
 26 0 l 1
 26 87 l 1
 32 87 l 2
 143 87 162 98 162 166 c 2
 162 246 l 1
 162 986 l 2
 162 1138 157 1145 53 1145 c 2
 20 1145 l 1
 20 1232 l 1
 430 1258 l 1
EndSplineSet
Validated: 1
EndChar

StartChar: l
Encoding: 108 108 240
Width: 600
Flags: W
HStem: 0 87<32 165.508 463.587 565> 1145 87<27 161.934> 1238 20G<121.615 437>
VStem: 169 268<99.4718 1140.27>
LayerCount: 2
Fore
SplineSet
437 1258 m 1
 437 246 l 1
 437 166 l 2
 437 123 443 109 463 99 c 0
 475 92 521 87 553 87 c 2
 565 87 l 1
 565 0 l 1
 32 0 l 1
 32 87 l 1
 39 87 l 2
 150 87 169 98 169 166 c 2
 169 246 l 1
 169 986 l 2
 169 1138 164 1145 60 1145 c 2
 27 1145 l 1
 27 1232 l 1
 437 1258 l 1
EndSplineSet
Validated: 1
EndChar

StartChar: m
Encoding: 109 109 241
Width: 1643
Flags: W
HStem: 0 87<34 167.529 441.382 538 591 685.639 958.382 1055 1106 1202.62 1476.47 1608> 674 159<533.746 753 1047.15 1281> 708 87<34 163.617>
VStem: 171 268<92.7141 622.6> 688 268<91.2242 622.6> 1205 268<93.2838 659.874>
CounterMasks: 1 1c
LayerCount: 2
Fore
SplineSet
423 807 m 1xbc
 423 674 l 1
 491 782 582 833 696 833 c 0
 810 833 901 775 937 679 c 1
 1017 788 1096 833 1205 833 c 0
 1357 833 1473 725 1473 585 c 2
 1473 246 l 1
 1473 166 l 2
 1473 99 1492 87 1601 87 c 2
 1608 87 l 1
 1608 0 l 1
 1106 0 l 1
 1106 87 l 1
 1193 89 1205 99 1205 166 c 2
 1205 246 l 1
 1205 522 l 2
 1205 628 1176 674 1111 674 c 0
 1015 674 956 595 956 474 c 2
 956 246 l 1
 956 166 l 2
 956 99 968 89 1055 87 c 1
 1055 0 l 1
 591 0 l 1
 591 87 l 1
 676 89 688 99 688 167 c 2
 688 246 l 1
 688 515 l 2
 688 628 661 674 594 674 c 0xdc
 500 674 439 595 439 474 c 2
 439 246 l 1
 439 166 l 2
 439 99 451 89 538 87 c 1
 538 0 l 1
 34 0 l 1
 34 87 l 1
 43 87 l 2
 152 87 171 97 171 167 c 2
 171 246 l 1
 171 548 l 2
 171 700 165 708 61 708 c 2
 34 708 l 1
 34 795 l 1
 423 807 l 1xbc
EndSplineSet
Validated: 1
EndChar

StartChar: n
Encoding: 110 110 242
Width: 1169
Flags: W
HStem: 0 87<34 165.529 440.142 555 620 733.981 1008.47 1140> 674 159<552.405 773.5> 708 87<34 161.934>
VStem: 169 268<93.0005 602.496 657 703.306> 737 268<93.0005 645.142>
LayerCount: 2
Fore
SplineSet
425 807 m 1xb8
 425 657 l 1
 509 783 594 833 729 833 c 0
 818 833 894 804 940 751 c 1
 986 702 1005 637 1005 531 c 2
 1005 246 l 1
 1005 167 l 2
 1005 97 1024 87 1133 87 c 2
 1140 87 l 1
 1140 0 l 1
 620 0 l 1
 620 87 l 1
 721 87 737 99 737 166 c 2
 737 246 l 1
 737 507 l 2
 737 616 693 674 613 674 c 0xd8
 552 674 491 634 464 573 c 1
 444 532 437 488 437 411 c 2
 437 246 l 1
 437 166 l 2
 437 99 454 87 555 87 c 1
 555 0 l 1
 34 0 l 1
 34 87 l 1
 41 87 l 2
 150 87 169 97 169 167 c 2
 169 246 l 1
 169 543 l 2
 169 702 164 708 60 708 c 2
 34 708 l 1
 34 795 l 1
 425 807 l 1xb8
EndSplineSet
Validated: 1
EndChar

StartChar: o
Encoding: 111 111 243
Width: 1042
Flags: W
HStem: -26 89<420.523 616.54> 744 89<425.846 621.009>
VStem: 53 295<211.394 591.083> 693 295<211.483 587.637>
LayerCount: 2
Fore
SplineSet
526 833 m 0
 785 833 988 641 988 399 c 0
 988 155 789 -26 519 -26 c 0
 249 -26 53 156 53 403 c 0
 53 649 255 833 526 833 c 0
522 744 m 0
 408 744 348 628 348 403 c 0
 348 178 407 63 521 63 c 0
 630 63 693 184 693 401 c 0
 693 490 679 587 659 643 c 0
 637 703 582 744 522 744 c 0
EndSplineSet
Validated: 1
EndChar

StartChar: p
Encoding: 112 112 244
Width: 1138
Flags: W
HStem: -345 86<31 162.529 436.492 582> -26 116<512.825 708.645> 705 128<528.703 714.997> 708 87<31 158.266>
VStem: 166 267<-252.308 85 172.989 613.073> 783 296<215.939 625.04>
LayerCount: 2
Fore
SplineSet
433 807 m 1xdc
 433 698 l 1
 510 795 584 833 700 833 c 0xec
 918 833 1079 661 1079 425 c 0
 1079 169 905 -26 676 -26 c 0
 579 -26 501 10 433 85 c 1
 433 -99 l 1
 433 -179 l 2
 433 -247 452 -259 563 -259 c 2
 582 -259 l 1
 582 -345 l 1
 31 -345 l 1
 31 -259 l 1
 38 -259 l 2
 147 -259 166 -247 166 -179 c 2
 166 -99 l 1
 166 543 l 1
 164 705 162 708 56 708 c 2
 31 708 l 1
 31 795 l 1
 433 807 l 1xdc
625 705 m 0
 500 705 432 592 432 391 c 0
 432 198 497 90 611 90 c 0
 719 90 783 205 783 396 c 0
 783 597 727 705 625 705 c 0
EndSplineSet
Validated: 1
EndChar

StartChar: q
Encoding: 113 113 245
Width: 1105
Flags: W
HStem: -345 86<541 685.631 960.471 1092> -26 116<420.465 595.649> 744 89<432.197 623.415>
VStem: 58 295<186.444 592.886> 689 268<-252.959 99 176.047 671.074>
LayerCount: 2
Fore
SplineSet
899 831 m 1
 983 831 l 1
 966 696 957 568 957 464 c 2
 957 -99 l 1
 957 -179 l 2
 957 -247 976 -259 1085 -259 c 2
 1092 -259 l 1
 1092 -345 l 1
 541 -345 l 1
 541 -259 l 1
 560 -259 l 2
 671 -259 689 -247 689 -179 c 2
 689 -99 l 1
 689 99 l 1
 616 14 535 -26 427 -26 c 0
 328 -26 222 20 162 90 c 1
 99 160 58 283 58 396 c 0
 58 647 244 833 493 833 c 0
 623 833 713 791 790 695 c 1
 899 831 l 1
526 744 m 0
 413 744 353 628 353 403 c 0
 353 198 410 90 519 90 c 0
 628 90 695 220 695 432 c 0
 695 522 686 584 666 635 c 0
 639 702 584 744 526 744 c 0
EndSplineSet
Validated: 1
EndChar

StartChar: r
Encoding: 114 114 246
Width: 885
Flags: W
HStem: 0 87<31 162.529 438.471 601> 514 319<642.026 821.983> 708 87<31 158.617>
VStem: 166 269<92.5759 547.356> 608 274<553.926 716.823>
LayerCount: 2
Fore
SplineSet
411 807 m 1xb8
 411 601 l 1
 472 758 564 833 695 833 c 0
 804 833 882 759 882 660 c 0
 882 576 820 514 736 514 c 0xd8
 663 514 608 567 608 640 c 0
 608 671 615 689 637 720 c 1
 579 703 543 672 507 609 c 0
 464 534 435 399 435 280 c 2
 435 246 l 1
 435 167 l 2
 435 97 454 87 563 87 c 2
 601 87 l 1
 601 0 l 1
 31 0 l 1
 31 87 l 1
 38 87 l 2
 147 87 166 97 166 167 c 2
 166 246 l 1
 166 543 l 2
 166 702 160 708 56 708 c 2
 31 708 l 1
 31 795 l 1
 411 807 l 1xb8
EndSplineSet
Validated: 1
EndChar

StartChar: s
Encoding: 115 115 247
Width: 853
Flags: W
HStem: -26 89<298.772 576.298> 744 89<282.365 545.004> 796 20G<642.842 749.518>
VStem: 65 77<235.838 299> 72 187<536.184 699.405> 599 196<114.564 301>
LayerCount: 2
Fore
SplineSet
749 816 m 1xac
 756 546 l 1
 676 546 l 1
 592 686 512 744 403 744 c 0
 319 744 259 703 259 645 c 0
 259 601 281 583 365 561 c 2
 519 524 l 2
 642 493 678 478 722 439 c 0
 770 396 795 337 795 265 c 0
 795 94 653 -26 452 -26 c 0
 363 -26 275 -4 212 34 c 1
 145 3 l 1
 72 3 l 1xcc
 65 299 l 1
 142 299 l 1xd4
 224 137 321 63 452 63 c 0
 542 63 599 103 599 164 c 0
 599 215 565 244 480 263 c 2
 355 290 l 2
 244 314 194 338 143 387 c 0
 97 431 72 491 72 556 c 0
 72 716 210 833 401 833 c 0xcc
 483 833 548 816 613 778 c 1
 676 816 l 1
 749 816 l 1xac
EndSplineSet
Validated: 1
EndChar

StartChar: t
Encoding: 116 116 248
Width: 727
Flags: W
HStem: -26 145<354.5 567.787> 705 102<39 159.38 428 650>
VStem: 160 268<121.958 705> 321 107<970.819 1145> 599 92<147.16 317>
LayerCount: 2
Fore
SplineSet
650 807 m 1xd8
 650 705 l 1
 428 705 l 1
 428 266 l 2
 428 150 443 119 492 119 c 0
 560 119 599 188 599 308 c 0
 599 311 599 314 599 317 c 1
 689 317 l 1
 691 300 691 287 691 278 c 0
 691 205 666 123 623 68 c 0
 577 7 500 -26 403 -26 c 0
 306 -26 232 8 196 68 c 0
 167 116 160 157 160 297 c 2
 160 705 l 1xe8
 39 705 l 1
 39 794 l 1
 201 813 294 927 321 1145 c 1
 428 1145 l 1
 428 807 l 1
 650 807 l 1xd8
EndSplineSet
Validated: 1
EndChar

StartChar: u
Encoding: 117 117 249
Width: 1169
Flags: W
HStem: -26 159<381 608.3> 0 21G<741 1138> 19 92<998.819 1138> 708 87<22 151.266 592 721.934>
VStem: 159 268<158.692 703.818> 741 256<114.233 140 221.971 699.902>
LayerCount: 2
Fore
SplineSet
997 807 m 1x9c
 997 224 l 1
 997 184 l 2
 997 123 1011 111 1091 111 c 2
 1138 111 l 1
 1138 19 l 1x3c
 741 0 l 1x5c
 741 140 l 1
 642 19 560 -26 439 -26 c 0
 323 -26 232 27 186 121 c 0
 162 169 159 200 159 326 c 2
 159 543 l 1
 157 705 155 708 49 708 c 2
 22 708 l 1
 22 795 l 1
 427 807 l 1
 427 316 l 2
 427 186 463 133 548 133 c 0
 613 133 673 172 700 230 c 1
 722 273 729 321 729 406 c 2
 729 543 l 2
 729 702 724 708 620 708 c 2
 592 708 l 1
 592 795 l 1
 997 807 l 1x9c
EndSplineSet
Validated: 1
EndChar

StartChar: v
Encoding: 118 118 250
Width: 1042
Flags: W
HStem: 722 85<20 109.495 413.018 502 633 760.146 919.836 1021>
LayerCount: 2
Fore
SplineSet
609 239 m 1
 734 553 l 2
 760 616 765 631 765 655 c 0
 765 703 727 722 633 722 c 1
 633 807 l 1
 1021 807 l 1
 1021 722 l 1
 1014 722 l 2
 946 722 907 686 858 572 c 2
 596 -24 l 1
 451 -24 l 1
 137 631 l 2
 101 706 83 719 20 722 c 1
 20 807 l 1
 502 807 l 1
 502 722 l 1
 437 722 413 712 413 683 c 0
 413 673 418 655 427 638 c 2
 609 239 l 1
EndSplineSet
Validated: 1
EndChar

StartChar: w
Encoding: 119 119 251
Width: 1517
Flags: W
HStem: 720 87<32 125.462 420.011 503 556 649.728 928.021 1033 1109 1228.53 1395.56 1495>
LayerCount: 2
Fore
SplineSet
1096 263 m 1
 1215 553 l 2
 1232 594 1239 622 1239 642 c 0
 1239 690 1193 720 1121 720 c 2
 1109 720 l 1
 1109 807 l 1
 1495 807 l 1
 1495 720 l 1
 1418 715 1384 684 1335 575 c 2
 1067 -24 l 1
 939 -24 l 1
 756 425 l 1
 561 -24 l 1
 432 -24 l 1
 154 625 l 2
 123 697 99 717 32 720 c 1
 32 807 l 1
 503 807 l 1
 503 720 l 1
 435 718 420 711 420 679 c 0
 420 670 420 671 432 640 c 2
 580 263 l 1
 703 553 l 1
 660 655 l 2
 638 708 619 720 556 720 c 1
 556 807 l 1
 1033 807 l 1
 1033 720 l 1
 1021 720 l 2
 956 720 928 708 928 681 c 0
 928 672 932 658 939 643 c 2
 1096 263 l 1
EndSplineSet
Validated: 1
EndChar

StartChar: x
Encoding: 120 120 252
Width: 1042
Flags: W
HStem: 0 87<22 131.688 319.36 422 485 564.984 917.331 1021> 720 87<22 116.16 452.015 527 584 690.982 867.605 1004>
LayerCount: 2
Fore
SplineSet
631 464 m 1
 867 184 l 2
 939 100 958 89 1021 87 c 1
 1021 0 l 1
 485 0 l 1
 485 87 l 1
 497 87 l 2
 543 87 565 99 565 126 c 0
 565 138 560 149 546 164 c 2
 445 285 l 1
 343 184 l 2
 328 169 319 152 319 135 c 0
 319 106 350 87 399 87 c 2
 422 87 l 1
 422 0 l 1
 22 0 l 1
 22 87 l 1
 73 89 113 110 174 166 c 2
 381 362 l 1
 137 654 l 2
 93 707 73 717 22 720 c 1
 22 807 l 1
 527 807 l 1
 527 720 l 1
 509 720 l 2
 473 720 452 710 452 693 c 0
 452 683 457 672 471 657 c 2
 568 539 l 1
 655 623 l 2
 681 647 691 664 691 681 c 0
 691 705 666 720 623 720 c 2
 584 720 l 1
 584 807 l 1
 1004 807 l 1
 1004 720 l 1
 931 720 879 696 809 631 c 2
 631 464 l 1
EndSplineSet
Validated: 1
EndChar

StartChar: y
Encoding: 121 121 253
Width: 1042
Flags: W
HStem: -352 116<165 375.892> 720 87<24 114.915 418.014 509 637 764.086 923.987 1021>
LayerCount: 2
Fore
SplineSet
613 270 m 1
 754 582 l 2
 763 602 770 633 770 652 c 0
 770 696 728 720 655 720 c 2
 637 720 l 1
 637 807 l 1
 1021 807 l 1
 1021 720 l 1
 951 717 914 684 865 580 c 2
 567 -63 l 2
 475 -264 372 -352 229 -352 c 0
 101 -352 17 -289 17 -195 c 0
 17 -111 82 -46 166 -46 c 0
 241 -46 294 -94 294 -162 c 0
 294 -186 290 -203 280 -220 c 0
 278 -222 278 -223 278 -225 c 0
 278 -230 285 -236 294 -236 c 0
 342 -236 395 -188 439 -101 c 1
 478 -27 l 1
 128 652 l 2
 101 708 87 718 24 720 c 1
 24 807 l 1
 509 807 l 1
 509 720 l 1
 478 720 l 2
 437 720 418 708 418 684 c 0
 418 672 423 655 432 638 c 2
 613 270 l 1
EndSplineSet
Validated: 1
EndChar

StartChar: z
Encoding: 122 122 254
Width: 916
Flags: W
HStem: 0 85<384 658.15> 722 85<256.066 524>
LayerCount: 2
Fore
SplineSet
845 807 m 1
 845 725 l 1
 384 85 l 1
 490 85 l 2
 606 85 634 95 678 150 c 0
 716 196 737 242 761 324 c 1
 845 324 l 1
 828 0 l 1
 60 0 l 1
 60 75 l 1
 524 722 l 1
 437 722 l 2
 318 722 287 713 249 674 c 0
 223 647 206 606 174 500 c 1
 87 500 l 1
 108 807 l 1
 845 807 l 1
EndSplineSet
Validated: 1
EndChar

StartChar: braceleft
Encoding: 123 123 255
Width: 663
Flags: W
HStem: -184 78<501.251 585> 1154 78<500.911 585>
VStem: 273 210<-61.8004 420.51 597.219 1138.92>
LayerCount: 2
Fore
SplineSet
143 486 m 1
 143 561 l 1
 215 578 240 596 259 640 c 0
 271 669 273 686 273 788 c 2
 273 976 l 2
 273 1089 291 1150 335 1186 c 1
 366 1213 434 1232 497 1232 c 2
 585 1232 l 1
 585 1154 l 1
 508 1147 483 1114 483 1034 c 2
 483 939 l 1
 483 737 l 2
 483 606 444 558 309 524 c 1
 444 490 483 442 483 311 c 2
 483 109 l 2
 483 -38 483 -37 498 -63 c 0
 515 -90 537 -101 585 -106 c 1
 585 -184 l 1
 497 -184 l 2
 434 -184 366 -165 335 -138 c 1
 291 -102 273 -41 273 72 c 2
 273 259 l 2
 273 372 272 390 253 422 c 0
 233 456 208 469 143 486 c 1
EndSplineSet
Validated: 1
EndChar

StartChar: bar
Encoding: 124 124 256
Width: 1034
Flags: W
HStem: 0 21G<415 618> 1212 20G<415 618>
VStem: 415 203<0 1232>
LayerCount: 2
Fore
SplineSet
618 1232 m 1
 618 0 l 1
 415 0 l 1
 415 1232 l 1
 618 1232 l 1
EndSplineSet
Validated: 1
EndChar

StartChar: braceright
Encoding: 125 125 257
Width: 663
Flags: W
HStem: -184 78<53 138.737> 1154 78<53 140.043>
VStem: 159 210<-61.8004 450.781 627.491 1136.25>
LayerCount: 2
Fore
SplineSet
495 561 m 1
 495 486 l 1
 425 469 399 452 382 408 c 0
 370 377 369 361 369 259 c 2
 369 72 l 2
 369 -41 351 -102 307 -138 c 1
 276 -165 208 -184 145 -184 c 2
 53 -184 l 1
 53 -106 l 1
 102 -101 125 -90 142 -63 c 0
 159 -37 159 -38 159 109 c 2
 159 311 l 2
 159 442 198 490 333 524 c 1
 198 558 159 606 159 737 c 2
 159 939 l 1
 159 1034 l 2
 159 1114 132 1147 53 1154 c 1
 53 1232 l 1
 145 1232 l 2
 208 1232 276 1213 307 1186 c 1
 351 1150 369 1089 369 976 c 2
 369 788 l 2
 369 677 370 658 389 626 c 0
 408 592 432 576 495 561 c 1
EndSplineSet
Validated: 1
EndChar

StartChar: asciitilde
Encoding: 126 126 258
Width: 1034
Flags: W
HStem: 273 195<540.461 769.326> 377 195<264.533 492.117>
LayerCount: 2
Fore
SplineSet
230 288 m 1x40
 87 377 l 1
 155 505 239 572 333 572 c 0x40
 372 572 409 561 486 532 c 2
 577 500 l 1
 650 471 663 468 689 468 c 0
 728 468 756 488 804 556 c 1
 947 466 l 1
 877 338 795 273 701 273 c 0x80
 662 273 625 281 548 312 c 1
 457 345 l 1
 384 374 371 377 345 377 c 0
 306 377 278 356 230 288 c 1x40
EndSplineSet
Validated: 1
EndChar

